<svg xmlns="http://www.w3.org/2000/svg" width="245" height="161.669" viewBox="0 0 245 161.669">
  <g id="default-pic" transform="translate(2082 -1955.665)">
    <rect id="Rectangle_210" data-name="Rectangle 210" width="245" height="161.669" transform="translate(-2082 1955.665)" fill="#c8d6df"/>
    <path id="Path_199" data-name="Path 199" d="M-1381,2156l7.333-21,14-12,16.667-6-2.667-4.667L-1343,2110l8.167,1.333v2l-1.5,3.667,13.833,3.833,13.5,11.667,5.667,8.667,2.667,11.333v3.5h6.5l1.333,3-1.333,4.333H-1385.5L-1387,2160l1.5-4Z" transform="translate(-617 -109.335)" fill="#b4c4cf" opacity="0.71"/>
    <path id="Path_200" data-name="Path 200" d="M-1380,2175.5l20.25,13.75-1.75,3.75-2.75,3.25h-3l-18.25-13v-3.5Z" transform="translate(-617 -109.335)" fill="#b4c4cf" opacity="0.71"/>
    <g id="Group_174" data-name="Group 174" transform="translate(-2094.436 1963.665)">
      <path id="Subtraction_5" data-name="Subtraction 5" d="M1501.675-1983.916h0a3.4,3.4,0,0,1-1.917-.592l-18.129-12.316a3.423,3.423,0,0,1-.909-4.747l2.65-3.907a3.393,3.393,0,0,1,2.187-1.44,3.465,3.465,0,0,1,.645-.061,3.405,3.405,0,0,1,1.826.535l.373.237,7.02-8.525a.918.918,0,0,1,.078-.083l.029-.027a17.289,17.289,0,0,1,2.117-1.709l1.333-.912h-16.9a3.644,3.644,0,0,1-3.64-3.641v-1.732a3.645,3.645,0,0,1,3.64-3.64h3.838l.029-.469a40.446,40.446,0,0,1,12.194-26.533,40.207,40.207,0,0,1,22.548-11.093l.771-.109-.42-.656a6.411,6.411,0,0,1-1.021-3.468c0-.642.3-1.829,2.321-2.571a12.313,12.313,0,0,1,4.1-.626,12.308,12.308,0,0,1,4.1.626c2.02.743,2.321,1.93,2.321,2.571a6.409,6.409,0,0,1-1.025,3.475l-.422.655.771.111a40.716,40.716,0,0,1,27.726,17.222.911.911,0,0,1,.147.689.912.912,0,0,1-.383.589.917.917,0,0,1-.519.162.922.922,0,0,1-.759-.4,38.9,38.9,0,0,0-5.787-6.661,38.814,38.814,0,0,0-7.029-5.116,38.793,38.793,0,0,0-7.975-3.416,38.786,38.786,0,0,0-8.626-1.561l-.211-.012-.068,0-.139-.008c-.255-.013-.527-.027-.792-.037l-.3-.008c-.4-.011-.72-.016-1.03-.016-.246,0-.5,0-.737.008h-.047l-.4.011-.058,0h-.116l-.055,0c-.364.014-.749.033-1.143.057h-.032a38.494,38.494,0,0,0-13.167,3.245,38.638,38.638,0,0,0-11.265,7.646,38.628,38.628,0,0,0-8.166,11.515,38.442,38.442,0,0,0-3.465,13.639l-.036.533h5.224a.92.92,0,0,1,.919.919.919.919,0,0,1-.919.918h-10.9a1.8,1.8,0,0,0-1.8,1.8v1.732a1.8,1.8,0,0,0,1.8,1.8H1570.8a1.8,1.8,0,0,0,1.8-1.8v-1.732a1.8,1.8,0,0,0-1.8-1.8H1499.59a.919.919,0,0,1-.919-.918.92.92,0,0,1,.919-.919h65.529l-.035-.533a38.389,38.389,0,0,0-3.495-13.689.912.912,0,0,1-.03-.7.906.906,0,0,1,.475-.517.92.92,0,0,1,.387-.086.923.923,0,0,1,.834.533,40.187,40.187,0,0,1,3.674,14.526l.03.47h3.86a3.648,3.648,0,0,1,3.616,3.639v1.732a3.643,3.643,0,0,1-3.639,3.64h-12.132l.21.652a3.894,3.894,0,0,1-1.162,4.288l-9,7.969-.04.033a26.394,26.394,0,0,1-9.345,4.727l-5.224,1.444a26.651,26.651,0,0,1-7.1.958,26.1,26.1,0,0,1-4.255-.347,43.648,43.648,0,0,0-6.989-.665,20.874,20.874,0,0,0-4.678.48,9.7,9.7,0,0,0-5.036,3.038l-.375.426.573.389a3.421,3.421,0,0,1,.908,4.747l-2.65,3.907a3.391,3.391,0,0,1-2.186,1.44A3.455,3.455,0,0,1,1501.675-1983.916Zm-15.475-21.225a1.583,1.583,0,0,0-.3.029,1.571,1.571,0,0,0-1.012.666l-2.65,3.908a1.582,1.582,0,0,0,.419,2.2l18.129,12.316a1.574,1.574,0,0,0,.887.274,1.606,1.606,0,0,0,.3-.028,1.568,1.568,0,0,0,1.012-.667l2.649-3.906a1.574,1.574,0,0,0,.244-1.185,1.568,1.568,0,0,0-.664-1.011l-16.931-11.5-1.2-.813A1.571,1.571,0,0,0,1486.2-2005.141Zm19.525-12.322a13.864,13.864,0,0,0-8.9,3.925l-.023.022-6.878,8.353,14.241,9.674.291-.349a11.548,11.548,0,0,1,6.22-3.876,22.788,22.788,0,0,1,5.1-.526,45.5,45.5,0,0,1,7.287.688,24.279,24.279,0,0,0,3.956.323,24.768,24.768,0,0,0,6.6-.894l5.225-1.444a24.587,24.587,0,0,0,8.665-4.373l9-7.972c.022-.02.042-.035.059-.048l.006,0a2.162,2.162,0,0,0,.3-2.818,1.466,1.466,0,0,0-1.264-.667,3.3,3.3,0,0,0-1.671.581l-8.865,5.868a.947.947,0,0,1-.253.117l-8.775,2.538a.9.9,0,0,1-.235.036l-6.224.135h-.013a.927.927,0,0,1-.9-.688.916.916,0,0,1,.459-1.043l4.2-2.222a2.492,2.492,0,0,0,1.144-3.21,2.41,2.41,0,0,0-.853-1.021,2.591,2.591,0,0,0-1.457-.443,2.659,2.659,0,0,0-.534.055l-12.307,2.566a.912.912,0,0,1-.188.02.925.925,0,0,1-.239-.031l-9.4-2.534-.33-.091-.025-.007-.091-.025-.175-.048a11.516,11.516,0,0,0-3.006-.568h-.148Zm29.583,0h0l.51.775a4.233,4.233,0,0,1,.336.611,4.339,4.339,0,0,1-1.186,5.058l-1.1.917,1.782-.041,8.525-2.466,7.334-4.854h-16.2Zm-17.715,0-.13.983,1.7.458,2.165-.452-.1-.989Zm8.843-47.511c.385,0,.774.006,1.157.017l.159.005.061,0,.05,0c.315.011.592.024.822.036l.167.009.138-.093a4.586,4.586,0,0,0,2.029-3.74l0-.179-.112-.14c-.439-.551-2.117-1.108-4.474-1.108s-4.035.557-4.475,1.108l-.112.14,0,.179a4.587,4.587,0,0,0,2.028,3.74l.14.094.167-.01.428-.021.077,0,.045,0,.229-.008.056,0,.187-.006h.012l.4-.011C1525.906-2064.971,1526.173-2064.974,1526.436-2064.974Z" transform="translate(-1388.936 2108.5)" fill="#fff"/>
      <g id="Group_169" data-name="Group 169" transform="translate(77.436 47.156)">
        <g id="g3572" transform="translate(0 0)">
          <path id="path3574" d="M-73.218,0A6.782,6.782,0,0,1-80,6.782" transform="translate(80)" fill="none" stroke="#fff" stroke-linecap="round" stroke-linejoin="round" stroke-miterlimit="10" stroke-width="2"/>
        </g>
        <g id="g3576" transform="translate(6.782 0)">
          <path id="path3578" d="M0,0A6.782,6.782,0,0,0,6.782,6.782" fill="none" stroke="#fff" stroke-linecap="round" stroke-linejoin="round" stroke-miterlimit="10" stroke-width="2"/>
        </g>
        <g id="g3580" transform="translate(6.782 6.782)">
          <path id="path3582" d="M0-73.218A6.782,6.782,0,0,1,6.782-80" transform="translate(0 80)" fill="none" stroke="#fff" stroke-linecap="round" stroke-linejoin="round" stroke-miterlimit="10" stroke-width="2"/>
        </g>
        <g id="g3584" transform="translate(0 6.782)">
          <path id="path3586" d="M-73.218-73.218A6.782,6.782,0,0,0-80-80" transform="translate(80 80)" fill="none" stroke="#fff" stroke-linecap="round" stroke-linejoin="round" stroke-miterlimit="10" stroke-width="2"/>
        </g>
      </g>
      <g id="Group_170" data-name="Group 170" transform="translate(183.819 49.321)">
        <g id="g3620" transform="translate(4.617 0)">
          <path id="path3622" d="M0-70.765V-80" transform="translate(0 80)" fill="none" stroke="#fff" stroke-linecap="round" stroke-linejoin="round" stroke-miterlimit="10" stroke-width="2"/>
        </g>
        <g id="g3624" transform="translate(0 4.617)">
          <path id="path3626" d="M0,0H9.234" fill="none" stroke="#fff" stroke-linecap="round" stroke-linejoin="round" stroke-miterlimit="10" stroke-width="2"/>
        </g>
      </g>
      <g id="Group_171" data-name="Group 171" transform="translate(1836 -2392.344)">
        <g id="g3556" transform="translate(-1745.656 2413.344)">
          <path id="path3558" d="M-66.922,0A13.077,13.077,0,0,1-80,13.078" transform="translate(80)" fill="none" stroke="#fff" stroke-linecap="round" stroke-linejoin="round" stroke-miterlimit="10" stroke-width="2"/>
        </g>
        <g id="g3560" transform="translate(-1732.578 2413.344)">
          <path id="path3562" d="M0,0A13.077,13.077,0,0,0,13.078,13.078" fill="none" stroke="#fff" stroke-linecap="round" stroke-linejoin="round" stroke-miterlimit="10" stroke-width="2"/>
        </g>
        <g id="g3564" transform="translate(-1732.578 2426.422)">
          <path id="path3566" d="M0-66.922A13.077,13.077,0,0,1,13.078-80" transform="translate(0 80)" fill="none" stroke="#fff" stroke-linecap="round" stroke-linejoin="round" stroke-miterlimit="10" stroke-width="2"/>
        </g>
        <g id="g3568" transform="translate(-1745.656 2426.422)">
          <path id="path3570" d="M-66.922-66.922A13.077,13.077,0,0,0-80-80" transform="translate(80 80)" fill="none" stroke="#fff" stroke-linecap="round" stroke-linejoin="round" stroke-miterlimit="10" stroke-width="2"/>
        </g>
      </g>
    </g>
  </g>
</svg>
