<svg xmlns="http://www.w3.org/2000/svg" width="127" height="127" viewBox="0 0 127 127">
  <g id="default-pic-small" transform="translate(2088 -2287)">
    <rect id="Rectangle_215" data-name="Rectangle 215" width="127" height="127" transform="translate(-2088 2287)" fill="#c8d6df"/>
    <g id="Group_176" data-name="Group 176" transform="translate(2.617 7.292)">
      <path id="Path_203" data-name="Path 203" d="M-1381.817,2149.734l6.334-18.139,12.093-10.365,14.4-5.183-2.3-4.031,2.3-2.015,7.054,1.152v1.728l-1.3,3.167,11.949,3.311,11.661,10.078,4.895,7.486,2.3,9.789v3.023h5.615l1.152,2.591-1.152,3.743H-1385.7l-1.3-2.879,1.3-3.455Z" transform="translate(-678.388 202.528)" fill="#b4c4cf" opacity="0.71"/>
      <path id="Path_204" data-name="Path 204" d="M-1380.749,2175.5l17.491,11.877-1.512,3.239-2.375,2.807h-2.591l-15.764-11.229v-3.023Z" transform="translate(-678.592 193.606)" fill="#b4c4cf" opacity="0.71"/>
      <g id="Group_175" data-name="Group 175" transform="translate(-2076.617 2298.708)">
        <path id="Subtraction_5" data-name="Subtraction 5" d="M20.074,76.085h0a2.937,2.937,0,0,1-1.656-.511L2.757,64.936a2.957,2.957,0,0,1-.785-4.1L4.261,57.46A2.931,2.931,0,0,1,6.15,56.217a3,3,0,0,1,.557-.053,2.941,2.941,0,0,1,1.577.462l.322.2,6.064-7.364a.79.79,0,0,1,.068-.071l.025-.023A14.939,14.939,0,0,1,16.591,47.9l1.151-.787H3.144A3.148,3.148,0,0,1,0,43.963v-1.5a3.148,3.148,0,0,1,3.144-3.144H6.459l.025-.405a35.055,35.055,0,0,1,30.009-32.5l.666-.094L36.8,5.757a5.538,5.538,0,0,1-.881-3c0-.554.26-1.579,2-2.221A11.869,11.869,0,0,1,45,.541c1.745.642,2.005,1.667,2.005,2.221a5.536,5.536,0,0,1-.885,3l-.365.566.666.1A35.169,35.169,0,0,1,70.374,21.3a.794.794,0,0,1-.653,1.244.8.8,0,0,1-.655-.344A33.471,33.471,0,0,0,43.656,7.729l-.182-.011-.059,0-.12-.007c-.221-.012-.455-.024-.684-.032l-.26-.007c-.348-.01-.622-.014-.889-.014-.213,0-.428,0-.637.007h-.041l-.342.009-.05,0h-.1l-.047,0c-.314.012-.647.028-.988.05h-.028A33.4,33.4,0,0,0,8.078,38.864l-.031.46H12.56a.793.793,0,1,1,0,1.587H3.144a1.558,1.558,0,0,0-1.556,1.556v1.5A1.558,1.558,0,0,0,3.144,45.52H79.779a1.558,1.558,0,0,0,1.556-1.556v-1.5a1.558,1.558,0,0,0-1.556-1.556H18.273a.793.793,0,1,1,0-1.587h56.6l-.03-.46A33.158,33.158,0,0,0,71.826,27.04a.795.795,0,0,1,.719-1.129.8.8,0,0,1,.721.46,34.714,34.714,0,0,1,3.173,12.547l.026.406H79.8a3.151,3.151,0,0,1,3.124,3.143v1.5a3.147,3.147,0,0,1-3.143,3.144H69.3l.181.564a3.363,3.363,0,0,1-1,3.7L60.7,58.259l-.034.028A22.8,22.8,0,0,1,52.6,62.37l-4.513,1.247a23.023,23.023,0,0,1-6.129.828,22.545,22.545,0,0,1-3.675-.3,37.709,37.709,0,0,0-6.037-.574,18.03,18.03,0,0,0-4.041.414,8.382,8.382,0,0,0-4.35,2.625l-.324.368.5.336a2.955,2.955,0,0,1,.784,4.1l-2.289,3.375a2.929,2.929,0,0,1-1.888,1.244A2.979,2.979,0,0,1,20.074,76.085ZM6.708,57.751a1.371,1.371,0,0,0-1.132.6L3.287,61.727a1.367,1.367,0,0,0,.362,1.9L19.308,74.261a1.36,1.36,0,0,0,.767.236,1.391,1.391,0,0,0,.259-.024,1.354,1.354,0,0,0,.874-.576L23.5,70.523a1.367,1.367,0,0,0-.363-1.9L8.508,58.691l-1.034-.7A1.357,1.357,0,0,0,6.708,57.751ZM23.572,47.108a11.977,11.977,0,0,0-7.69,3.39l-.02.019L9.921,57.732l12.3,8.356.251-.3a9.975,9.975,0,0,1,5.373-3.348,19.689,19.689,0,0,1,4.4-.454,39.286,39.286,0,0,1,6.295.595,20.982,20.982,0,0,0,3.417.279,21.391,21.391,0,0,0,5.7-.772l4.514-1.247a21.238,21.238,0,0,0,7.485-3.777l7.775-6.886c.019-.017.036-.03.051-.041l.005,0a1.867,1.867,0,0,0,.259-2.434,1.266,1.266,0,0,0-1.091-.576,2.853,2.853,0,0,0-1.444.5l-7.657,5.068a.821.821,0,0,1-.219.1l-7.58,2.192a.771.771,0,0,1-.2.031l-5.376.117h-.011a.8.8,0,0,1-.778-.594.792.792,0,0,1,.4-.9l3.625-1.919a2.153,2.153,0,0,0,.988-2.773,2.083,2.083,0,0,0-.737-.882,2.238,2.238,0,0,0-1.259-.382,2.3,2.3,0,0,0-.461.047l-10.63,2.216a.792.792,0,0,1-.162.017.8.8,0,0,1-.206-.027l-8.115-2.189-.285-.078-.022-.006-.079-.022L26.3,47.6a9.945,9.945,0,0,0-2.6-.49h-.128Zm25.553,0h0l.441.669a3.641,3.641,0,0,1,.29.528,3.748,3.748,0,0,1-1.025,4.369l-.951.792,1.539-.036,7.364-2.13,6.335-4.193H49.125Zm-15.3,0-.113.849,1.467.4,1.87-.39-.089-.854ZM41.462,6.069c.332,0,.669,0,1,.015l.138,0,.052,0,.043,0c.272.01.512.021.71.031l.144.008.119-.08A3.961,3.961,0,0,0,45.42,2.82l0-.155-.1-.121c-.379-.476-1.828-.957-3.864-.957s-3.485.481-3.865.957l-.1.121,0,.155a3.962,3.962,0,0,0,1.751,3.23l.121.081.145-.008.37-.018.066,0,.038,0,.2-.007.048,0,.161-.005h.01l.345-.009C41,6.072,41.235,6.069,41.462,6.069Z" transform="translate(10.42 13.389)" fill="#fff"/>
        <g id="Group_169" data-name="Group 169" transform="translate(0 22.593)">
          <g id="g3572" transform="translate(0 0)">
            <path id="path3574" d="M-74.142,0A5.858,5.858,0,0,1-80,5.858" transform="translate(80)" fill="none" stroke="#fff" stroke-linecap="round" stroke-linejoin="round" stroke-miterlimit="10" stroke-width="2"/>
          </g>
          <g id="g3576" transform="translate(5.858 0)">
            <path id="path3578" d="M0,0A5.858,5.858,0,0,0,5.858,5.858" fill="none" stroke="#fff" stroke-linecap="round" stroke-linejoin="round" stroke-miterlimit="10" stroke-width="2"/>
          </g>
          <g id="g3580" transform="translate(5.858 5.858)">
            <path id="path3582" d="M0-74.142A5.858,5.858,0,0,1,5.858-80" transform="translate(0 80)" fill="none" stroke="#fff" stroke-linecap="round" stroke-linejoin="round" stroke-miterlimit="10" stroke-width="2"/>
          </g>
          <g id="g3584" transform="translate(0 5.858)">
            <path id="path3586" d="M-74.142-74.142A5.858,5.858,0,0,0-80-80" transform="translate(80 80)" fill="none" stroke="#fff" stroke-linecap="round" stroke-linejoin="round" stroke-miterlimit="10" stroke-width="2"/>
          </g>
        </g>
        <g id="Group_170" data-name="Group 170" transform="translate(91.891 24.463)">
          <g id="g3620" transform="translate(3.988 0)">
            <path id="path3622" d="M0-72.023V-80" transform="translate(0 80)" fill="none" stroke="#fff" stroke-linecap="round" stroke-linejoin="round" stroke-miterlimit="10" stroke-width="2"/>
          </g>
          <g id="g3624" transform="translate(0 3.988)">
            <path id="path3626" d="M0,0H7.976" fill="none" stroke="#fff" stroke-linecap="round" stroke-linejoin="round" stroke-miterlimit="10" stroke-width="2"/>
          </g>
        </g>
        <g id="Group_171" data-name="Group 171" transform="translate(11.15 0)">
          <g id="g3556">
            <path id="path3558" d="M-68.7,0A11.3,11.3,0,0,1-80,11.3" transform="translate(80)" fill="none" stroke="#fff" stroke-linecap="round" stroke-linejoin="round" stroke-miterlimit="10" stroke-width="2"/>
          </g>
          <g id="g3560" transform="translate(11.297)">
            <path id="path3562" d="M0,0A11.3,11.3,0,0,0,11.3,11.3" fill="none" stroke="#fff" stroke-linecap="round" stroke-linejoin="round" stroke-miterlimit="10" stroke-width="2"/>
          </g>
          <g id="g3564" transform="translate(11.297 11.297)">
            <path id="path3566" d="M0-68.7A11.3,11.3,0,0,1,11.3-80" transform="translate(0 80)" fill="none" stroke="#fff" stroke-linecap="round" stroke-linejoin="round" stroke-miterlimit="10" stroke-width="2"/>
          </g>
          <g id="g3568" transform="translate(0 11.297)">
            <path id="path3570" d="M-68.7-68.7A11.3,11.3,0,0,0-80-80" transform="translate(80 80)" fill="none" stroke="#fff" stroke-linecap="round" stroke-linejoin="round" stroke-miterlimit="10" stroke-width="2"/>
          </g>
        </g>
      </g>
    </g>
  </g>
</svg>
