<svg xmlns="http://www.w3.org/2000/svg" width="19" height="19" viewBox="0 0 19 19">
  <g id="ic-addnote" transform="translate(510 707)">
    <g id="add" transform="translate(-508 -705)">
      <path id="Path_223" data-name="Path 223" d="M9.186,0H1.773A1.772,1.772,0,0,0,0,1.773v9.992a1.772,1.772,0,0,0,1.773,1.773H6.021a5.629,5.629,0,0,1-.541-2.417,5.571,5.571,0,0,1,.406-2.1.341.341,0,0,1-.084.006H2.579a.645.645,0,1,1,0-1.289H5.8a.637.637,0,0,1,.567.348,5.69,5.69,0,0,1,1.6-1.637H2.579a.645.645,0,1,1,0-1.289h5.8a.647.647,0,0,1,.645.645.341.341,0,0,1-.006.084,5.4,5.4,0,0,1,1.94-.4V1.773A1.772,1.772,0,0,0,9.186,0ZM5.157,3.868H2.579a.645.645,0,0,1,0-1.289H5.157a.645.645,0,1,1,0,1.289Z" fill="#1f89cd"/>
      <path id="Path_224" data-name="Path 224" d="M14.851,10.5A4.351,4.351,0,1,0,19.2,14.851,4.356,4.356,0,0,0,14.851,10.5Zm1.773,5H15.5v1.128a.645.645,0,1,1-1.289,0V15.5H13.079a.645.645,0,0,1,0-1.289h1.128V13.079a.645.645,0,0,1,1.289,0v1.128h1.128a.645.645,0,1,1,0,1.289Z" transform="translate(-3.731 -3.731)" fill="#1f89cd"/>
    </g>
    <rect id="Rectangle_281" data-name="Rectangle 281" width="19" height="19" transform="translate(-510 -707)" fill="none"/>
  </g>
</svg>
