<svg xmlns="http://www.w3.org/2000/svg" xmlns:xlink="http://www.w3.org/1999/xlink" width="25" height="25" viewBox="0 0 25 25">
  <defs>
    <clipPath id="clip-path">
      <rect id="Rectangle_30" data-name="Rectangle 30" width="20" height="18" transform="translate(0 0.005)" fill="#1f89cd"/>
    </clipPath>
  </defs>
  <g id="ic-burger" transform="translate(-132 -16)">
    <g id="Group_40" data-name="Group 40" transform="translate(135 20.054)">
      <path id="Path_68" data-name="Path 68" d="M246.978,360H241l2.989,2.242Z" transform="translate(-231.395 -345.641)" fill="#1f89cd"/>
      <g id="Group_9" data-name="Group 9" transform="translate(0 -0.059)">
        <g id="Group_8" data-name="Group 8" clip-path="url(#clip-path)">
          <path id="Path_69" data-name="Path 69" d="M19.538,302.411c-.031,0-.061-.01-.092-.017.031.007.062.013.092.017" transform="translate(-18.671 -290.272)" fill="#1f89cd"/>
          <path id="Path_70" data-name="Path 70" d="M6.754,210.461A1.465,1.465,0,0,0,7,212.2l.045.045a.4.4,0,0,0,.593-.023l.043-.051a2.173,2.173,0,0,1,1.657-.972,2.131,2.131,0,0,1,1.618.773c.293.293.437.423.773.423s.48-.13.773-.423a2.081,2.081,0,0,1,3.237,0c.293.293.437.423.773.423s.48-.13.773-.423a2.081,2.081,0,0,1,3.237,0c.293.293.437.423.773.423s.48-.13.773-.423a2.131,2.131,0,0,1,1.618-.773,2.173,2.173,0,0,1,1.657.972l.076.09a.3.3,0,0,0,.464-.019l.068-.093a1.888,1.888,0,0,0,.088-2.091L26.012,210H7.022c-.09.146-.181.3-.268.461" transform="translate(-6.314 -201.56)" fill="#1f89cd"/>
          <path id="Path_71" data-name="Path 71" d="M320.981,360l-4.623,3.467a.6.6,0,0,1-.359.12h3.587a4.522,4.522,0,0,0,4.192-2.8.6.6,0,0,0-.573-.791Z" transform="translate(-303.406 -345.582)" fill="#1f89cd"/>
          <path id="Path_72" data-name="Path 72" d="M48.872,272.391a2.366,2.366,0,0,0,.323-1.1,2,2,0,0,1-1.041-.744c-.286-.34-.475-.548-.743-.548-.336,0-.48.13-.773.423a2.081,2.081,0,0,1-3.237,0c-.293-.293-.437-.423-.773-.423s-.48.13-.773.423a2.081,2.081,0,0,1-3.237,0c-.293-.293-.437-.423-.773-.423s-.48.13-.773.423a2.081,2.081,0,0,1-3.237,0c-.293-.293-.437-.423-.773-.423-.268,0-.457.208-.743.548a2,2,0,0,1-1.039.759,2.364,2.364,0,0,0,.321,1.085Z" transform="translate(-30.034 -259.169)" fill="#1f89cd"/>
          <path id="Path_73" data-name="Path 73" d="M7.613,360H.606a.6.6,0,0,0-.573.791,4.522,4.522,0,0,0,4.192,2.8h8.369a.594.594,0,0,1-.358-.12Z" transform="translate(0 -345.582)" fill="#1f89cd"/>
          <path id="Path_74" data-name="Path 74" d="M19.8,7.174a.594.594,0,0,0,.6-.673,7.93,7.93,0,0,0-7.8-6.5H7.812a7.93,7.93,0,0,0-7.8,6.5.594.594,0,0,0,.6.673Z" transform="translate(0 0.07)" fill="#1f89cd"/>
        </g>
      </g>
    </g>
    <rect id="Rectangle_138" data-name="Rectangle 138" width="25" height="25" transform="translate(132 16)" fill="none"/>
  </g>
</svg>
