<svg xmlns="http://www.w3.org/2000/svg" width="24" height="13.031" viewBox="0 0 24 13.031">
  <path id="ic-backward-gray" d="M24,128.83a1.2,1.2,0,0,1-1.2,1.2H7.274a1.57,1.57,0,0,1-1.1-.413L.594,124.815a1.714,1.714,0,0,1,0-2.591l5.583-4.806a1.569,1.569,0,0,1,1.1-.414H22.8a1.2,1.2,0,0,1,1.2,1.2Zm-4.423-2.738-2.574-2.573,2.574-2.573a.733.733,0,0,0,0-1.038.722.722,0,0,0-1.039,0l-2.575,2.573-2.574-2.573a.722.722,0,0,0-1.039,0,.733.733,0,0,0,0,1.038l2.574,2.573-2.574,2.573a.733.733,0,0,0,0,1.038.722.722,0,0,0,1.039,0l2.574-2.573,2.575,2.573a.722.722,0,0,0,1.039,0,.733.733,0,0,0,0-1.039Z" transform="translate(-0.002 -117.004)" fill="#b7b7b7" fill-rule="evenodd"/>
</svg>
