<svg xmlns="http://www.w3.org/2000/svg" width="18" height="13.455" viewBox="0 0 18 13.455">
  <g id="ic-crown" transform="translate(-2.5 -14.495)">
    <path id="Path_356" data-name="Path 356" d="M18.873,28.628l-2.9-5.945a.464.464,0,0,0-.828,0l-2.861,5.945a.463.463,0,0,1-.753.113l-3.05-3.349a.466.466,0,0,0-.791.452l1.431,4.7c0,.038.038.075.038.151v3.022a.435.435,0,0,0,.452.452h11.86a.435.435,0,0,0,.452-.452V30.7a.284.284,0,0,1,.038-.151l1.468-4.7a.472.472,0,0,0-.791-.452l-3.05,3.349a.428.428,0,0,1-.715-.113Z" transform="translate(-4.059 -6.221)" fill="#fe0"/>
    <circle id="Ellipse_26" data-name="Ellipse 26" cx="1.483" cy="1.483" r="1.483" transform="translate(17.534 17.605)" fill="#fe0"/>
    <circle id="Ellipse_27" data-name="Ellipse 27" cx="1.483" cy="1.483" r="1.483" transform="translate(2.5 17.605)" fill="#fe0"/>
    <circle id="Ellipse_28" data-name="Ellipse 28" cx="1.701" cy="1.701" r="1.701" transform="translate(9.799 14.495)" fill="#fe0"/>
  </g>
</svg>
