<svg xmlns="http://www.w3.org/2000/svg" width="33" height="33" viewBox="0 0 33 33">
  <g id="ic-coupon" transform="translate(-1110 -3727)">
    <path id="coupon" d="M29,13a1,1,0,0,0,1-1V9a3,3,0,0,0-3-3H21V9a1,1,0,0,1-2,0V6H5A3,3,0,0,0,2,9v3a1,1,0,0,0,1,1,3,3,0,0,1,0,6,1,1,0,0,0-1,1v3a3,3,0,0,0,3,3H19V23a1,1,0,0,1,2,0v3h6a3,3,0,0,0,3-3V20a1,1,0,0,0-1-1,3,3,0,0,1,0-6Zm-8,6a1,1,0,0,1-2,0V18a1,1,0,0,1,2,0Zm0-5a1,1,0,0,1-2,0V13a1,1,0,0,1,2,0Z" transform="translate(1111 3728)" fill="#f57d7d"/>
    <rect id="Rectangle_231" data-name="Rectangle 231" width="33" height="33" transform="translate(1110 3727)" fill="none"/>
  </g>
</svg>
