<svg xmlns="http://www.w3.org/2000/svg" width="33" height="33" viewBox="0 0 33 33">
  <g id="ic-cash" transform="translate(-1715 -1667)">
    <g id="money" transform="translate(1717 1674)">
      <path id="Path_101" data-name="Path 101" d="M29.469,91.82H1.2a1.2,1.2,0,0,0-1.2,1.2v17.272a1.2,1.2,0,0,0,1.2,1.2H29.469a1.2,1.2,0,0,0,1.2-1.2V93.018A1.2,1.2,0,0,0,29.469,91.82Zm-1.046,13.831a.9.9,0,0,1-.9.9,1.8,1.8,0,0,0-1.8,1.8.9.9,0,0,1-.9.9H5.837a.9.9,0,0,1-.9-.9,1.8,1.8,0,0,0-1.8-1.8.9.9,0,0,1-.9-.9V97.657a.9.9,0,0,1,.9-.9,1.8,1.8,0,0,0,1.8-1.8.9.9,0,0,1,.9-.9H24.83a.9.9,0,0,1,.9.9,1.8,1.8,0,0,0,1.8,1.8.9.9,0,0,1,.9.9Z" transform="translate(0 -91.82)" fill="#1f89cd"/>
      <path id="Path_102" data-name="Path 102" d="M87.474,159.29H70.05a3.607,3.607,0,0,1-2.58,2.58v6.424a3.607,3.607,0,0,1,2.58,2.58H87.474a3.607,3.607,0,0,1,2.58-2.58V161.87A3.607,3.607,0,0,1,87.474,159.29Zm-15.391,6.691H71.1a.9.9,0,0,1,0-1.8h.988a.9.9,0,0,1,0,1.8Zm6.679,2.458a3.357,3.357,0,1,1,3.357-3.357A3.36,3.36,0,0,1,78.762,168.439Zm7.667-2.458h-.988a.9.9,0,0,1,0-1.8h.988a.9.9,0,0,1,0,1.8Z" transform="translate(-63.429 -155.249)" fill="#1f89cd"/>
      <ellipse id="Ellipse_12" data-name="Ellipse 12" cx="1.56" cy="1.56" rx="1.56" ry="1.56" transform="translate(13.774 8.274)" fill="#1f89cd"/>
    </g>
    <rect id="Rectangle_158" data-name="Rectangle 158" width="33" height="33" transform="translate(1715 1667)" fill="none"/>
  </g>
</svg>
