<svg xmlns="http://www.w3.org/2000/svg" width="12.999" height="13" viewBox="0 0 12.999 13">
  <path id="ic-close" d="M-2508.152,117a.178.178,0,0,1-.126-.049l-5.177-5.178-5.172,5.173a.207.207,0,0,1-.14.054.18.18,0,0,1-.126-.049l-.961-.962a.2.2,0,0,1,0-.266l5.164-5.189-5.251-5.251a.194.194,0,0,1,0-.265l.962-.962a.2.2,0,0,1,.138-.055.178.178,0,0,1,.126.049l5.269,5.269,5.173-5.172a.2.2,0,0,1,.139-.055.175.175,0,0,1,.128.052l.961.95a.2.2,0,0,1-.007.275l-5.179,5.178,5.185,5.172a.2.2,0,0,1,.005.265l-.963.963A.205.205,0,0,1-2508.152,117Z" transform="translate(2520.001 -104)" fill="#fff"/>
</svg>
