<svg xmlns="http://www.w3.org/2000/svg" width="12.999" height="13" viewBox="0 0 12.999 13">
  <g id="ic-close-dark" transform="translate(-0.501 -0.501)">
    <path id="Subtraction_3" data-name="Subtraction 3" d="M-2124.653-1235a.177.177,0,0,1-.126-.049l-5.178-5.178-5.172,5.172a.2.2,0,0,1-.139.055.176.176,0,0,1-.125-.049l-.962-.962a.2.2,0,0,1,0-.266l5.165-5.189-5.251-5.251a.194.194,0,0,1-.006-.265l.962-.962a.2.2,0,0,1,.14-.055.176.176,0,0,1,.125.049l5.269,5.269,5.173-5.172a.2.2,0,0,1,.138-.055.176.176,0,0,1,.128.052l.961.949a.2.2,0,0,1-.007.276l-5.177,5.178,5.184,5.172a.2.2,0,0,1,.005.265l-.962.962A.207.207,0,0,1-2124.653-1235Z" transform="translate(2137.002 1248.5)" fill="#1f89cd"/>
  </g>
</svg>
