<svg xmlns="http://www.w3.org/2000/svg" width="16" height="16.363" viewBox="0 0 16 16.363">
  <g id="ic-calendar" transform="translate(-5.411)">
    <g id="Group_201" data-name="Group 201" transform="translate(5.411)">
      <path id="Path_206" data-name="Path 206" d="M119.074,258.613a.371.371,0,0,0-.371-.371h-1.3a.371.371,0,0,0-.371.371v1.3a.371.371,0,0,0,.371.371h1.3a.371.371,0,0,0,.371-.371v-1.3Z" transform="translate(-113.293 -249.586)" fill="#1f89cd"/>
      <path id="Path_207" data-name="Path 207" d="M215.708,258.613a.371.371,0,0,0-.371-.371h-1.3a.371.371,0,0,0-.371.371v1.3a.371.371,0,0,0,.371.371h1.3a.371.371,0,0,0,.371-.371Z" transform="translate(-206.689 -249.586)" fill="#1f89cd"/>
      <path id="Path_208" data-name="Path 208" d="M312.337,258.613a.371.371,0,0,0-.371-.371h-1.3a.371.371,0,0,0-.371.371v1.3a.371.371,0,0,0,.371.371h1.3a.371.371,0,0,0,.371-.371Z" transform="translate(-300.078 -249.586)" fill="#1f89cd"/>
      <path id="Path_209" data-name="Path 209" d="M119.074,355.246a.371.371,0,0,0-.371-.371h-1.3a.371.371,0,0,0-.371.371v1.3a.371.371,0,0,0,.371.371h1.3a.371.371,0,0,0,.371-.371v-1.3Z" transform="translate(-113.293 -342.98)" fill="#1f89cd"/>
      <path id="Path_210" data-name="Path 210" d="M215.708,355.246a.371.371,0,0,0-.371-.371h-1.3a.371.371,0,0,0-.371.371v1.3a.371.371,0,0,0,.371.371h1.3a.371.371,0,0,0,.371-.371Z" transform="translate(-206.689 -342.98)" fill="#1f89cd"/>
      <path id="Path_211" data-name="Path 211" d="M312.337,355.246a.371.371,0,0,0-.371-.371h-1.3a.371.371,0,0,0-.371.371v1.3a.371.371,0,0,0,.371.371h1.3a.371.371,0,0,0,.371-.371v-1.3Z" transform="translate(-300.078 -342.98)" fill="#1f89cd"/>
      <path id="Path_212" data-name="Path 212" d="M19.987,54.149v1.979a1.617,1.617,0,0,1-1.62,1.616H17.344a1.625,1.625,0,0,1-1.63-1.616V54.142H11.108v1.986a1.625,1.625,0,0,1-1.63,1.616H8.455a1.617,1.617,0,0,1-1.62-1.616V54.149a1.473,1.473,0,0,0-1.424,1.466v11.6A1.474,1.474,0,0,0,6.878,68.69H19.944a1.476,1.476,0,0,0,1.467-1.475v-11.6A1.473,1.473,0,0,0,19.987,54.149Zm-.475,12.343a.634.634,0,0,1-.634.634H7.916a.634.634,0,0,1-.634-.634V60.5a.634.634,0,0,1,.634-.634H18.878a.634.634,0,0,1,.634.634v5.992Z" transform="translate(-5.411 -52.327)" fill="#1f89cd"/>
      <path id="Path_213" data-name="Path 213" d="M80.106,4.356h1.011a.555.555,0,0,0,.556-.555V.556A.556.556,0,0,0,81.117,0H80.106a.556.556,0,0,0-.556.556V3.8A.555.555,0,0,0,80.106,4.356Z" transform="translate(-77.065)" fill="#1f89cd"/>
      <path id="Path_214" data-name="Path 214" d="M345.014,4.356h1.011a.555.555,0,0,0,.555-.555V.556A.555.555,0,0,0,346.025,0h-1.011a.556.556,0,0,0-.556.556V3.8A.555.555,0,0,0,345.014,4.356Z" transform="translate(-333.093)" fill="#1f89cd"/>
    </g>
  </g>
</svg>
