<svg xmlns="http://www.w3.org/2000/svg" width="21" height="21" viewBox="0 0 21 21">
  <g id="ic-coin" transform="translate(-1625 2470)">
    <path id="coins" d="M19.057,5.514c0,2.573-3.882,4.514-9.029,4.514S1,8.087,1,5.514,4.882,1,10.029,1,19.057,2.941,19.057,5.514ZM11.834,19.057c-3.837,0-7.115-.993-9.029-2.663.054,2.555,3.909,4.469,9.029,4.469s8.947-1.905,9.029-4.433C18.976,18.064,15.78,19.057,11.834,19.057Zm-1.806-3.611a16.92,16.92,0,0,1-6.78-1.264c1.156,1.824,4.46,3.07,8.586,3.07,5.146,0,9.029-1.941,9.029-4.514a2.709,2.709,0,0,0-.515-1.553C19,13.766,15.112,15.446,10.029,15.446Zm.9-3.611H9.126C5.587,11.7,2.706,10.733,1,9.225c.081,2.51,3.936,4.415,9.029,4.415s8.947-1.905,9.029-4.433C17.315,10.715,14.435,11.681,10.931,11.834Z" transform="translate(1625 -2470)" fill="#fff"/>
    <rect id="Rectangle_402" data-name="Rectangle 402" width="21" height="21" transform="translate(1625 -2470)" fill="none"/>
  </g>
</svg>
