<svg xmlns="http://www.w3.org/2000/svg" width="31.31" height="17" viewBox="0 0 31.31 17">
  <path id="ic-delete" d="M31.312,132.433A1.569,1.569,0,0,1,29.75,134H9.489a2.049,2.049,0,0,1-1.432-.539l-7.284-6.27a2.236,2.236,0,0,1,0-3.38l7.284-6.27A2.048,2.048,0,0,1,9.489,117H29.75a1.569,1.569,0,0,1,1.562,1.571Zm-5.77-3.573L22.184,125.5l3.358-3.357a.956.956,0,0,0,0-1.355.942.942,0,0,0-1.356,0l-3.359,3.357-3.358-3.357a.943.943,0,0,0-1.356,0,.956.956,0,0,0,0,1.354l3.358,3.357-3.358,3.357a.956.956,0,0,0,0,1.355.942.942,0,0,0,1.356,0l3.358-3.357,3.359,3.357a.942.942,0,0,0,1.356,0,.956.956,0,0,0,0-1.355Z" transform="translate(-0.002 -117.004)" fill="#fff" fill-rule="evenodd"/>
</svg>
