<svg xmlns="http://www.w3.org/2000/svg" width="18" height="12" viewBox="0 0 18 12">
  <g id="ic-dropdown" transform="translate(-1057 -45)">
    <g id="ic-dropdown-2" data-name="ic-dropdown" transform="translate(1057 -62.57)">
      <g id="chevron_down" transform="translate(0 109.57)">
        <path id="Path_215" data-name="Path 215" d="M13.972,110.353a.916.916,0,0,0-.689-.738,1.02,1.02,0,0,0-1.061.309q-1.719,1.723-3.432,3.451c-.574.574-1.154,1.146-1.788,1.777l-5.234-5.234A1.028,1.028,0,0,0,.3,109.841a1.021,1.021,0,0,0,.016,1.468q2.961,2.978,5.942,5.942a1,1,0,0,0,1.463.016q2.994-2.974,5.966-5.964A.986.986,0,0,0,13.972,110.353Z" transform="translate(0 -109.57)" fill="#1f89cd"/>
      </g>
    </g>
    <rect id="Rectangle_344" data-name="Rectangle 344" width="18" height="12" transform="translate(1057 45)" fill="none"/>
  </g>
</svg>
