<svg xmlns="http://www.w3.org/2000/svg" width="25" height="25" viewBox="0 0 25 25">
  <g id="ic-dessert" transform="translate(-832 -16)">
    <g id="cupcake" transform="translate(840.741 18.999)">
      <path id="Path_60" data-name="Path 60" d="M-1.957,376.02H-3.5a.236.236,0,0,0-.231.289l0,.011,1.672,6.77a1.166,1.166,0,0,0,1.134.888H9.38a1.164,1.164,0,0,0,1.136-.9l1.605-6.77v0a.236.236,0,0,0-.232-.286Zm3.018,5.995a.573.573,0,0,1-.674-.452l-.634-3.217a.574.574,0,1,1,1.126-.222l.634,3.217a.574.574,0,0,1-.452.674Zm3.7-.563a.574.574,0,1,1-1.148,0v-3.217a.574.574,0,1,1,1.148,0Zm3.862-3.106-.634,3.217a.574.574,0,1,1-1.126-.222l.634-3.217a.574.574,0,1,1,1.126.222Zm0,0" transform="translate(0 -364.63)" fill="#1f89cd"/>
      <path id="Path_61" data-name="Path 61" d="M27.056,10.242h.438a2.663,2.663,0,0,0,.2-1V9.111A2.685,2.685,0,0,0,25.92,6.59a2.3,2.3,0,0,0,.528-1.459,2.485,2.485,0,0,0-2.557-2.4h-.927A4.871,4.871,0,0,0,19.891.02a.574.574,0,0,0-.682.761,2.323,2.323,0,0,1,.017,1.949h-2.6a2.486,2.486,0,0,0-2.557,2.4A2.3,2.3,0,0,0,14.6,6.59a2.685,2.685,0,0,0-1.769,2.521v.134a2.663,2.663,0,0,0,.2,1Zm0,0" transform="translate(-16.071 0)" fill="#1f89cd"/>
    </g>
    <rect id="Rectangle_143" data-name="Rectangle 143" width="25" height="25" transform="translate(832 16)" fill="none"/>
  </g>
</svg>
