<svg xmlns="http://www.w3.org/2000/svg" width="20" height="20" viewBox="0 0 20 20">
  <g id="ic-edit-noline" transform="translate(1896 63)">
    <g id="pencil_1_" data-name="pencil (1)" transform="translate(-1891 -58.246)">
      <path id="Path_225" data-name="Path 225" d="M6.634,82.473.723,88.384a.236.236,0,0,0-.061.108l-.655,2.63a.233.233,0,0,0,.226.289A.231.231,0,0,0,.288,91.4l2.63-.655a.233.233,0,0,0,.108-.061l5.911-5.911Zm0,0" transform="translate(0 -80.433)" fill="#1f89cd"/>
      <path id="Path_226" data-name="Path 226" d="M337.437,1.234,336.78.576a1.191,1.191,0,0,0-1.645,0l-.806.806,2.3,2.3.806-.806a1.164,1.164,0,0,0,0-1.645Zm0,0" transform="translate(-327.036 0)" fill="#1f89cd"/>
    </g>
    <rect id="Rectangle_283" data-name="Rectangle 283" width="20" height="20" transform="translate(-1896 -63)" fill="none"/>
  </g>
</svg>
