<svg xmlns="http://www.w3.org/2000/svg" width="28.993" height="29" viewBox="0 0 28.993 29">
  <g id="ic-edit" transform="translate(-2.013 -2.008)">
    <path id="Path_163" data-name="Path 163" d="M23.889,3.3a4.352,4.352,0,0,0-6.194,0L14.91,6.131l6.15,6.15L23.845,9.5A4.352,4.352,0,0,0,23.889,3.3Z" transform="translate(5.811 0)" fill="#1f89cd"/>
    <path id="Path_164" data-name="Path 164" d="M18.661,6.27,6.491,18.44a1.668,1.668,0,0,0-.276.377L2.183,26.955a1.444,1.444,0,0,0,1.9,1.987l8.138-4.033a1.668,1.668,0,0,0,.377-.276l12.17-12.17Z" transform="translate(0 1.92)" fill="#1f89cd"/>
    <path id="Path_165" data-name="Path 165" d="M25.505,22.9H12.451a1.451,1.451,0,1,1,0-2.9H25.505a1.451,1.451,0,1,1,0,2.9Z" transform="translate(4.049 8.106)" fill="#1f89cd"/>
  </g>
</svg>
