<svg xmlns="http://www.w3.org/2000/svg" xmlns:xlink="http://www.w3.org/1999/xlink" width="30" height="30" viewBox="0 0 30 30">
  <defs>
    <clipPath id="clip-path">
      <rect id="Rectangle_192" data-name="Rectangle 192" width="30" height="30" fill="#f72a81"/>
    </clipPath>
  </defs>
  <g id="ic-foodpanda" transform="translate(-1159 -80)">
    <rect id="Rectangle_197" data-name="Rectangle 197" width="23.086" height="22.07" transform="translate(1163 84)" fill="#fff"/>
    <g id="Group_153" data-name="Group 153" transform="translate(1159 80)">
      <g id="Group_148" data-name="Group 148" clip-path="url(#clip-path)">
        <path id="Path_152" data-name="Path 152" d="M14.987,30c-2.947,0-5.893.01-8.84,0a6.283,6.283,0,0,1-6.1-5.48A6.934,6.934,0,0,1,0,23.73Q0,14.984,0,6.239A6.309,6.309,0,0,1,5.184.113,7.616,7.616,0,0,1,6.435.006Q15,0,23.565,0a6.327,6.327,0,0,1,6.358,5.3A4.88,4.88,0,0,1,30,6.16Q30,14.919,30,23.678a6.3,6.3,0,0,1-3.951,5.879A5.667,5.667,0,0,1,23.88,30q-4.446,0-8.893,0M10.059,4.857c-.048-.06-.106-.135-.168-.209a2.954,2.954,0,0,0-2.08-1.087,3,3,0,0,0-2.4,5.071.26.26,0,0,1,.043.392A11.1,11.1,0,0,0,3.91,17.49,11.339,11.339,0,1,0,24.537,9a.231.231,0,0,1,.035-.351,2.88,2.88,0,0,0,.861-2.181,3,3,0,0,0-5.351-1.781.293.293,0,0,1-.428.1,11.151,11.151,0,0,0-7.4-.655c-.733.184-1.442.468-2.193.716" transform="translate(0 0)" fill="#f72a81"/>
        <path id="Path_153" data-name="Path 153" d="M122.069,187.771a4.212,4.212,0,0,1,4.7-4.148,1.9,1.9,0,0,1,1.623,1.236,1.561,1.561,0,0,1-.25,1.672c-.416.517-.843,1.026-1.243,1.555a5.494,5.494,0,0,0-1,2,2.462,2.462,0,0,1-.185.488,1.208,1.208,0,0,1-1.611.6,3.238,3.238,0,0,1-1.565-1.525,3.794,3.794,0,0,1-.47-1.885m5.033-1.7a.61.61,0,1,0-1.22,0,.61.61,0,0,0,1.22,0" transform="translate(-115.663 -173.961)" fill="#f72a81"/>
        <path id="Path_154" data-name="Path 154" d="M332.041,187.737a3.93,3.93,0,0,1-1.466,3.112,1.609,1.609,0,0,1-1.251.431,1.088,1.088,0,0,1-.866-.559,2.253,2.253,0,0,1-.237-.551,6.525,6.525,0,0,0-1.3-2.456c-.262-.338-.531-.672-.817-.99a1.654,1.654,0,0,1-.4-1.833,1.876,1.876,0,0,1,1.583-1.25,4.2,4.2,0,0,1,4.7,3.52c.033.206.044.416.061.575m-4.25-1.052a.61.61,0,0,0,.608-.594.61.61,0,1,0-1.221,0,.608.608,0,0,0,.612.59" transform="translate(-308.488 -173.974)" fill="#f72a81"/>
        <path id="Path_155" data-name="Path 155" d="M238.652,344.277a2.764,2.764,0,0,1-5.474,0Z" transform="translate(-220.941 -326.218)" fill="#f72a81"/>
        <path id="Path_156" data-name="Path 156" d="M108.227,86.055a11.806,11.806,0,0,0-3.133,2.718,2.087,2.087,0,0,1,.957-3.548,2.072,2.072,0,0,1,2.177.83" transform="translate(-98.962 -80.704)" fill="#f72a81"/>
        <path id="Path_157" data-name="Path 157" d="M398.1,88.771a11.918,11.918,0,0,0-3.151-2.729,2.093,2.093,0,1,1,3.151,2.729" transform="translate(-374.223 -80.698)" fill="#f72a81"/>
        <path id="Path_158" data-name="Path 158" d="M249.892,292.026c.5.083,1.012.135,1.508.26s.563.384.249.765a2.711,2.711,0,0,1-1.739.932,1.382,1.382,0,0,1-.768-.214,4.316,4.316,0,0,1-.991-.665c-.391-.379-.3-.7.225-.829.488-.121.994-.167,1.516-.249" transform="translate(-234.902 -276.708)" fill="#f72a81"/>
      </g>
    </g>
  </g>
</svg>
