<svg xmlns="http://www.w3.org/2000/svg" width="25" height="25" viewBox="0 0 25 25">
  <g id="ic-fish" transform="translate(-337 185)">
    <rect id="Rectangle_161" data-name="Rectangle 161" width="25" height="25" transform="translate(337 -185)" fill="none"/>
    <g id="fish" transform="translate(337.999 -243.596)">
      <g id="Group_115" data-name="Group 115" transform="translate(0.001 62.596)">
        <path id="Path_118" data-name="Path 118" d="M15.092,64.809c-2.5-2.117-6.98-2.213-6.98-2.213a10.252,10.252,0,0,1,.836,3.849,19.138,19.138,0,0,0-4.1,3.347S2.8,67.3.031,67.578a5.628,5.628,0,0,0,1.218,4.041A5.628,5.628,0,0,0,.031,75.66c2.768.277,4.816-2.214,4.816-2.214a17.253,17.253,0,0,0,5.7,4.155,11.717,11.717,0,0,0,0,2.876,6.626,6.626,0,0,0,3.775-2.032,9.947,9.947,0,0,0,9.345-6.825A10.054,10.054,0,0,0,15.092,64.809Zm3.169,5.433a.826.826,0,1,1,.826-.826A.826.826,0,0,1,18.261,70.243Z" transform="translate(-0.001 -62.596)" fill="#1f89cd"/>
      </g>
    </g>
  </g>
</svg>
