<svg xmlns="http://www.w3.org/2000/svg" width="25" height="25" viewBox="0 0 25 25">
  <g id="ic-hotpot" transform="translate(-339 180)">
    <g id="hot-pot" transform="translate(340 -179)">
      <path id="Path_112" data-name="Path 112" d="M1.328,60H0a2.659,2.659,0,0,0,2.656,2.656,1.33,1.33,0,0,1,1.328,1.328H5.312a2.659,2.659,0,0,0-2.656-2.656A1.33,1.33,0,0,1,1.328,60Z" transform="translate(0 -57.344)" fill="#1f89cd"/>
      <path id="Path_113" data-name="Path 113" d="M64.029,3.984h1.328a2.7,2.7,0,0,0-2.7-2.656A1.33,1.33,0,0,1,61.328,0H60a2.659,2.659,0,0,0,2.656,2.656A1.368,1.368,0,0,1,64.029,3.984Z" transform="translate(-57.344)" fill="#1f89cd"/>
      <path id="Path_114" data-name="Path 114" d="M0,181.328H1.362a8.758,8.758,0,0,0,8.643,8.057h2.656a8.758,8.758,0,0,0,8.643-8.057h1.362V180H0Z" transform="translate(0 -172.031)" fill="#1f89cd"/>
      <path id="Path_115" data-name="Path 115" d="M129.945,407.155l-.694-4.857a10.1,10.1,0,0,1-4.1.872h-2.656a10.1,10.1,0,0,1-4.1-.872l-.694,4.857h4.13v-.664a1.992,1.992,0,1,1,3.984,0v.664Z" transform="translate(-112.489 -384.488)" fill="#1f89cd"/>
      <path id="Path_116" data-name="Path 116" d="M241.664,482a.665.665,0,0,0-.664.664v.664h1.328v-.664A.665.665,0,0,0,241.664,482Z" transform="translate(-230.331 -460.661)" fill="#1f89cd"/>
      <path id="Path_117" data-name="Path 117" d="M190.768,30,189.7,35.312h5.87L194.512,30Z" transform="translate(-181.307 -28.672)" fill="#1f89cd"/>
    </g>
    <rect id="Rectangle_161" data-name="Rectangle 161" width="25" height="25" transform="translate(339 -180)" fill="none"/>
  </g>
</svg>
