<svg xmlns="http://www.w3.org/2000/svg" width="30" height="30" viewBox="0 0 30 30">
  <g id="ic-linepay" transform="translate(-15 -7)">
    <rect id="Rectangle_207" data-name="Rectangle 207" width="30" height="30" rx="5" transform="translate(15 7)" fill="#06bb64"/>
    <g id="Group_350" data-name="Group 350" transform="translate(-508.464 -1316.394)">
      <g id="Group_347" data-name="Group 347" transform="translate(529.145 1328.394)">
        <g id="Group_346" data-name="Group 346">
          <rect id="Rectangle_332" data-name="Rectangle 332" width="1.473" height="6.419" rx="0.737" transform="translate(5.103 0.001)" fill="#fff"/>
          <path id="Path_301" data-name="Path 301" d="M535.7,1333.344h-2.552v-4.683a.263.263,0,0,0-.263-.263h-.947a.263.263,0,0,0-.263.263v5.893a.263.263,0,0,0,.263.263H535.7a.263.263,0,0,0,.263-.263v-.947A.263.263,0,0,0,535.7,1333.344Z" transform="translate(-531.674 -1328.398)" fill="#fff"/>
          <path id="Path_302" data-name="Path 302" d="M602.014,1329.872a.263.263,0,0,0,.263-.263v-.947a.263.263,0,0,0-.263-.263h-3.762a.263.263,0,0,0-.263.263v5.893a.263.263,0,0,0,.263.263h3.762a.263.263,0,0,0,.263-.263v-.947a.263.263,0,0,0-.263-.263h-2.552v-1h2.552a.263.263,0,0,0,.263-.263v-.947a.263.263,0,0,0-.263-.263h-2.552v-1Z" transform="translate(-583.915 -1328.398)" fill="#fff"/>
          <path id="Path_303" data-name="Path 303" d="M572.608,1328.395h-.947a.263.263,0,0,0-.263.263v3.41l-2.478-3.543a.327.327,0,0,0-.292-.129.252.252,0,0,0-.045,0h-.947a.263.263,0,0,0-.263.263v5.892a.263.263,0,0,0,.263.263h.947a.263.263,0,0,0,.263-.263v-3.561l2.584,3.694a.323.323,0,0,0,.03.037.263.263,0,0,0,.182.093h.966a.263.263,0,0,0,.263-.263v-5.892A.263.263,0,0,0,572.608,1328.395Z" transform="translate(-559.797 -1328.394)" fill="#fff"/>
        </g>
      </g>
      <g id="Group_348" data-name="Group 348" transform="translate(528.464 1336.96)">
        <path id="Path_304" data-name="Path 304" d="M547.565,1368.758h-18.38a.721.721,0,0,0-.721.721v10.992a.721.721,0,0,0,.721.721h18.38a.721.721,0,0,0,.721-.721v-10.992A.721.721,0,0,0,547.565,1368.758Zm-13.966,6.887H532.8v1.6a.2.2,0,0,1-.2.2h-1.044a.2.2,0,0,1-.2-.2v-5.479a.2.2,0,0,1,.2-.2H533.6a2.039,2.039,0,1,1,0,4.077Zm6.839,1.807H539.31a.12.12,0,0,1-.12-.12v-.168a1.651,1.651,0,0,1-1.156.4,2.246,2.246,0,0,1,0-4.471,1.651,1.651,0,0,1,1.156.4v-.168a.12.12,0,0,1,.12-.12h1.127a.12.12,0,0,1,.12.12v4A.12.12,0,0,1,540.437,1377.452Zm3.148,1.647h-1.161a.12.12,0,0,1-.111-.164l.611-1.54-1.649-4.019a.12.12,0,0,1,.111-.165h1.161a.18.18,0,0,1,.167.112l.929,2.264.9-2.262a.18.18,0,0,1,.167-.114h1.161a.12.12,0,0,1,.111.164l-2.227,5.611A.18.18,0,0,1,543.586,1379.1Z" transform="translate(-528.464 -1368.758)" fill="#fff"/>
        <path id="Path_305" data-name="Path 305" d="M571.342,1395.328a.935.935,0,1,0,.91.934A.873.873,0,0,0,571.342,1395.328Z" transform="translate(-561.525 -1389.689)" fill="#fff"/>
        <path id="Path_306" data-name="Path 306" d="M549.707,1388.44h-.795v1.343h.795a.673.673,0,0,0,0-1.343Z" transform="translate(-544.572 -1384.263)" fill="#fff"/>
      </g>
    </g>
  </g>
</svg>
