<svg xmlns="http://www.w3.org/2000/svg" width="100" height="100" viewBox="0 0 100 100">
  <g id="ic-member-search" transform="translate(-633 -282)">
    <g id="search" transform="translate(643.477 293)">
      <g id="Group_387" data-name="Group 387" transform="translate(24.806 49.13)">
        <g id="Group_386" data-name="Group 386">
          <path id="Path_335" data-name="Path 335" d="M161.762,320.143h-.124a1.533,1.533,0,1,0,0,3.066h.145a1.533,1.533,0,1,0-.021-3.066Z" transform="translate(-160.105 -320.143)" fill="#1f89cd" stroke="#fff" stroke-width="1"/>
        </g>
      </g>
      <g id="Group_389" data-name="Group 389" transform="translate(8.251 8.047)">
        <g id="Group_388" data-name="Group 388">
          <path id="Path_336" data-name="Path 336" d="M70.312,52.438A18.089,18.089,0,1,0,88.4,70.527,18.109,18.109,0,0,0,70.312,52.438Zm0,33.112a14.954,14.954,0,0,1-9.518-3.409,3.777,3.777,0,0,1,3.074-3.368l2.485-.459,2.661,4.255a1.533,1.533,0,0,0,2.6,0l2.659-4.254,2.485.459a3.777,3.777,0,0,1,3.074,3.368A14.953,14.953,0,0,1,70.312,85.55ZM67.383,67.912a7.808,7.808,0,0,0,5.072-1.864l2.056,1.208v1.557a4.2,4.2,0,0,1-8.4,0v-.9h1.269Zm-1.267-3.066a4.2,4.2,0,0,1,8.135-1.3L72.986,62.8a1.533,1.533,0,0,0-1.951.337,4.753,4.753,0,0,1-3.651,1.7ZM71.7,76.636l-1.393,2.228-1.394-2.229A3.719,3.719,0,0,0,69.245,76a7.243,7.243,0,0,0,2.133,0A3.723,3.723,0,0,0,71.7,76.636ZM82.275,79.6a6.842,6.842,0,0,0-4.961-3.845l-2.6-.48a.692.692,0,0,1-.471-.364,7.263,7.263,0,0,0,3.329-6.1V65a7.264,7.264,0,1,0-14.528,0v3.814a7.263,7.263,0,0,0,3.328,6.1.688.688,0,0,1-.472.365l-2.594.48A6.842,6.842,0,0,0,58.348,79.6a15.023,15.023,0,1,1,23.927,0Z" transform="translate(-52.223 -52.438)" fill="#1f89cd" stroke="#fff" stroke-width="1"/>
        </g>
      </g>
      <g id="Group_391" data-name="Group 391" transform="translate(0.279 0.076)">
        <g id="Group_390" data-name="Group 390" transform="translate(0)">
          <path id="Path_337" data-name="Path 337" d="M76.269,64.63,54.9,43.258a1.533,1.533,0,0,0-2.168,0l-1.179,1.179-3.484-3.484A26.062,26.062,0,1,0,.279,26.554,25.819,25.819,0,0,0,5.663,42.419a26.241,26.241,0,0,0,13.6,9.222,1.533,1.533,0,0,0,.831-2.951,22.993,22.993,0,1,1,24.794-8.534,1.479,1.479,0,0,0-.1.133,23,23,0,0,1-4.347,4.439,1.529,1.529,0,0,0-.325.246l0,.005a22.894,22.894,0,0,1-7.993,3.838,1.533,1.533,0,1,0,.768,2.968,25.964,25.964,0,0,0,8.164-3.708l3.43,3.43-1.438,1.438a1.533,1.533,0,0,0,0,2.168l4.81,4.81h0L64.415,76.485A8.382,8.382,0,1,0,76.269,64.63ZM43.494,46.183a26.105,26.105,0,0,0,2.713-2.755L49.383,46.6l-2.734,2.734ZM74.1,74.317a5.323,5.323,0,0,1-7.518,0L51.1,58.838l3.759-3.759A1.533,1.533,0,1,0,52.7,52.911L48.936,56.67l-2.642-2.642,1.437-1.437h0l4.9-4.9h0l1.178-1.178L74.1,66.8a5.317,5.317,0,0,1,0,7.518Z" transform="translate(-0.279 -0.494)" fill="#1f89cd" stroke="#fff" stroke-width="1"/>
        </g>
      </g>
      <g id="Group_393" data-name="Group 393" transform="translate(49.823)">
        <g id="Group_392" data-name="Group 392">
          <path id="Path_338" data-name="Path 338" d="M339.493,0a12.574,12.574,0,0,0-10.835,6.208h-4.006a1.533,1.533,0,0,0,0,3.066h2.712a12.562,12.562,0,0,0,10.657,15.778V39.18a1.533,1.533,0,0,0,3.066,0V25.036A12.569,12.569,0,0,0,339.493,0Zm6.327,19.655a9.481,9.481,0,0,1-12.655,0v-.1a1.9,1.9,0,0,1,1.551-1.867l1.259-.235a5.264,5.264,0,0,0,7.035,0l1.259.235a1.9,1.9,0,0,1,1.551,1.867Zm-8.537-6.126V11.093a2.21,2.21,0,1,1,4.42,0v2.436a2.21,2.21,0,1,1-4.42,0Zm10.738,3.232a4.959,4.959,0,0,0-3.19-2.083l-.182-.034a5.276,5.276,0,0,0,.12-1.115V11.093a5.276,5.276,0,0,0-10.552,0v2.436a5.278,5.278,0,0,0,.12,1.115l-.182.034a4.959,4.959,0,0,0-3.19,2.082,9.5,9.5,0,1,1,17.056,0Z" transform="translate(-323.12)" fill="#1f89cd" stroke="#fff" stroke-width="1"/>
        </g>
      </g>
      <g id="Group_395" data-name="Group 395" transform="translate(64.725 43.595)">
        <g id="Group_394" data-name="Group 394">
          <path id="Path_339" data-name="Path 339" d="M422.838,284.524a1.532,1.532,0,1,0,.449,1.084A1.542,1.542,0,0,0,422.838,284.524Z" transform="translate(-420.221 -284.075)" fill="#1f89cd" stroke="#fff" stroke-width="1"/>
        </g>
      </g>
      <g id="Group_397" data-name="Group 397" transform="translate(0.279 49.129)">
        <g id="Group_396" data-name="Group 396" transform="translate(0)">
          <path id="Path_340" data-name="Path 340" d="M32.969,335.474H25.323A12.559,12.559,0,0,0,9.477,324.9v-3.234a1.533,1.533,0,0,0-3.066,0v4.551A12.568,12.568,0,1,0,25.323,338.54h7.646a1.533,1.533,0,0,0,0-3.066Zm-13.792,8.618a9.481,9.481,0,0,1-12.655,0V344a1.9,1.9,0,0,1,1.551-1.867l1.259-.235a5.264,5.264,0,0,0,7.035,0l1.259.235A1.9,1.9,0,0,1,19.176,344Zm-8.537-6.126V335.53a2.21,2.21,0,0,1,4.42,0v2.436a2.21,2.21,0,0,1-4.42,0ZM21.377,341.2a4.959,4.959,0,0,0-3.19-2.083l-.182-.034a5.277,5.277,0,0,0,.12-1.115V335.53a5.276,5.276,0,1,0-10.552,0v2.436a5.277,5.277,0,0,0,.12,1.115l-.182.034a4.96,4.96,0,0,0-3.19,2.082,9.5,9.5,0,1,1,17.056,0Z" transform="translate(-0.279 -320.133)" fill="#1f89cd" stroke="#fff" stroke-width="1"/>
        </g>
      </g>
      <g id="Group_399" data-name="Group 399" transform="translate(37.99 64.47)">
        <g id="Group_398" data-name="Group 398">
          <path id="Path_341" data-name="Path 341" d="M253.675,420.1h-6.132a1.533,1.533,0,0,0,0,3.066h6.132a1.533,1.533,0,1,0,0-3.066Z" transform="translate(-246.011 -420.1)" fill="#1f89cd" stroke="#fff" stroke-width="1"/>
        </g>
      </g>
      <g id="Group_401" data-name="Group 401" transform="translate(30.632 70.899)">
        <g id="Group_400" data-name="Group 400">
          <path id="Path_342" data-name="Path 342" d="M199.6,461.991a1.533,1.533,0,1,0,0,3.066h.015a1.533,1.533,0,1,0-.015-3.066Z" transform="translate(-198.063 -461.991)" fill="#1f89cd" stroke="#fff" stroke-width="1"/>
        </g>
      </g>
      <g id="Group_403" data-name="Group 403" transform="translate(37.982 70.899)">
        <g id="Group_402" data-name="Group 402">
          <path id="Path_343" data-name="Path 343" d="M247.495,461.991a1.533,1.533,0,1,0,0,3.066h.015a1.533,1.533,0,1,0-.015-3.066Z" transform="translate(-245.962 -461.991)" fill="#1f89cd" stroke="#fff" stroke-width="1"/>
        </g>
      </g>
      <g id="Group_405" data-name="Group 405" transform="translate(45.333 70.899)">
        <g id="Group_404" data-name="Group 404">
          <path id="Path_344" data-name="Path 344" d="M295.394,461.991a1.533,1.533,0,1,0,0,3.066h.015a1.533,1.533,0,1,0-.015-3.066Z" transform="translate(-293.861 -461.991)" fill="#1f89cd" stroke="#fff" stroke-width="1"/>
        </g>
      </g>
    </g>
    <rect id="Rectangle_387" data-name="Rectangle 387" width="100" height="100" transform="translate(633 282)" fill="none"/>
  </g>
</svg>
