<svg xmlns="http://www.w3.org/2000/svg" width="30" height="30" viewBox="0 0 30 30">
  <g id="ic-menu" transform="translate(-23 -215)">
    <g id="dish" transform="translate(24.771 219.429)">
      <path id="Path_30" data-name="Path 30" d="M51.278,123.915v-1.759h.988a.829.829,0,0,0,0-1.656H48.7a.829.829,0,0,0,0,1.656h.988v1.759a11.841,11.841,0,0,0-10.684,10.109H61.963A11.841,11.841,0,0,0,51.278,123.915Zm-4.553,4.938a7.583,7.583,0,0,0-2.884,3.3.791.791,0,0,1-.717.472.763.763,0,0,1-.341-.081.844.844,0,0,1-.375-1.1,9.211,9.211,0,0,1,3.5-4.014.775.775,0,0,1,1.088.286A.849.849,0,0,1,46.726,128.853Zm3.759-1.081a7.131,7.131,0,0,0-.8.046.76.76,0,0,1-.087,0,.807.807,0,0,1-.788-.738.82.82,0,0,1,.7-.913,8.653,8.653,0,0,1,.977-.055.829.829,0,0,1,0,1.656Z" transform="translate(-36.854 -117.166)" fill="#fff"/>
      <path id="Path_31" data-name="Path 31" d="M26.73,395.5H.532a.543.543,0,0,0-.532.552,2.929,2.929,0,0,0,2.875,2.981H24.387a2.929,2.929,0,0,0,2.875-2.981A.543.543,0,0,0,26.73,395.5Z" transform="translate(0 -377.567)" fill="#fff"/>
      <path id="Path_32" data-name="Path 32" d="M378.626,55.812h.828v.828a.828.828,0,0,0,1.656,0v-.828h.828a.828.828,0,0,0,0-1.656h-.828v-.828a.828.828,0,0,0-1.656,0v.828h-.828a.828.828,0,1,0,0,1.656Z" transform="translate(-357.944 -52.5)" fill="#fff"/>
      <path id="Path_33" data-name="Path 33" d="M20.828,113.337h.828v.828a.828.828,0,1,0,1.656,0v-.828h.828a.828.828,0,1,0,0-1.656h-.828v-.828a.828.828,0,1,0-1.656,0v.828h-.828a.828.828,0,1,0,0,1.656Z" transform="translate(-18.896 -106.85)" fill="#fff"/>
    </g>
    <rect id="Rectangle_8" data-name="Rectangle 8" width="30" height="30" transform="translate(23 215)" fill="none"/>
  </g>
</svg>
