<svg xmlns="http://www.w3.org/2000/svg" width="30" height="30" viewBox="0 0 30 30">
  <g id="ic-order" transform="translate(-23 -340)">
    <rect id="Rectangle_9" data-name="Rectangle 9" width="30" height="30" transform="translate(23 340)" fill="none"/>
    <g id="list_1_" data-name="list (1)" transform="translate(29 341.714)">
      <path id="Path_36" data-name="Path 36" d="M103.833,73h-.205v1.283a2.312,2.312,0,0,1-2.31,2.31H93.825a2.312,2.312,0,0,1-2.31-2.31V73H91.31A2.312,2.312,0,0,0,89,75.31V93.222a2.313,2.313,0,0,0,2.31,2.31h12.524a2.313,2.313,0,0,0,2.31-2.31V75.31A2.312,2.312,0,0,0,103.833,73Zm-10.7,8.626a.77.77,0,1,1-.846.766A.771.771,0,0,1,93.131,81.626Zm-.621,7.88a.77.77,0,1,1,1.314-.544A.771.771,0,0,1,92.51,89.506Zm1.311-3.753a.77.77,0,1,1-.691-.842A.772.772,0,0,1,93.821,85.753Zm8.267,3.979H96.34a.77.77,0,1,1,0-1.54h5.748a.77.77,0,1,1,0,1.54Zm0-3.285H96.34a.77.77,0,1,1,0-1.54h5.748a.77.77,0,1,1,0,1.54Zm0-3.285H96.34a.77.77,0,1,1,0-1.54h5.748a.77.77,0,1,1,0,1.54Z" transform="translate(-89 -69.253)" fill="#fff"/>
      <path id="Path_37" data-name="Path 37" d="M177.033,2.874V5.03a.77.77,0,0,1-.77.77H168.77a.77.77,0,0,1-.77-.77V2.874a.77.77,0,0,1,.77-.77h1.694a2.054,2.054,0,1,1,4.106,0h1.694A.77.77,0,0,1,177.033,2.874Z" transform="translate(-163.945)" fill="#fff"/>
    </g>
  </g>
</svg>
