<svg id="ic-online-notice" xmlns="http://www.w3.org/2000/svg" xmlns:xlink="http://www.w3.org/1999/xlink" width="30" height="30" viewBox="0 0 30 30">
  <defs>
    <clipPath id="clip-path">
      <rect id="Rectangle_331" data-name="Rectangle 331" width="30" height="30" fill="none"/>
    </clipPath>
  </defs>
  <g id="Group_345" data-name="Group 345" clip-path="url(#clip-path)">
    <path id="Path_298" data-name="Path 298" d="M20.916,30a3.783,3.783,0,0,0,3.33-1.992.189.189,0,0,0-.079-.255.18.18,0,0,0-.088-.022H17.755a.19.19,0,0,0-.19.188.2.2,0,0,0,.022.089A3.787,3.787,0,0,0,20.916,30" fill="#ffdf00"/>
    <path id="Path_299" data-name="Path 299" d="M18.076,11.148c-2.665,1.1-3.96,3.2-3.96,6.436,0,3.562-.629,4.321-1.67,5.578l-.231.28a1.661,1.661,0,0,0-.22,1.778,1.767,1.767,0,0,0,1.623,1h14.6a1.764,1.764,0,0,0,1.616-.992,1.662,1.662,0,0,0-.218-1.781c-.078-.094-.155-.189-.231-.28-1.04-1.258-1.669-2.017-1.669-5.578a7.224,7.224,0,0,0-1.31-4.491,6.172,6.172,0,0,0-2.65-1.944.148.148,0,0,1-.039-.031,3.019,3.019,0,0,0-2.8-2.3,3.021,3.021,0,0,0-2.8,2.3.14.14,0,0,1-.038.031" fill="#ffdf00"/>
    <path id="Path_300" data-name="Path 300" d="M13.618,28.217a3.749,3.749,0,0,1-3.427-2.133,3.671,3.671,0,0,1,.478-3.91c.07-.087.14-.171.209-.254l.028-.034.075-.091H1.509V6.436H14.454v4.757A8.018,8.018,0,0,1,15.963,10V5.319A3.31,3.31,0,0,0,12.662,2H3.319A3.31,3.31,0,0,0,0,5.3V25.235a3.328,3.328,0,0,0,3.319,3.319h9.325a3.275,3.275,0,0,0,1.438-.337Zm-5.589-1.8H8a1.493,1.493,0,1,1,.033,0" fill="#fff"/>
  </g>
</svg>
