<svg xmlns="http://www.w3.org/2000/svg" width="22" height="22" viewBox="0 0 22 22">
  <g id="ic-print-receipt" transform="translate(1696 1269)">
    <g id="Group_378" data-name="Group 378" transform="translate(-10)">
      <rect id="Rectangle_304" data-name="Rectangle 304" width="22" height="22" transform="translate(-1686 -1269)" fill="none"/>
      <g id="_x31_30" transform="translate(-1685 -1268.644)">
        <path id="Path_327" data-name="Path 327" d="M17.12,2.644H3.614A.616.616,0,0,0,3,3.258V4.289a.612.612,0,0,0,.614.614H4.2V17.2a.6.6,0,0,0,.325.54.591.591,0,0,0,.626-.031l1.185-.786a.593.593,0,0,1,.663,0l1.179.786a.624.624,0,0,0,.681,0l1.179-.786a.593.593,0,0,1,.663,0l1.173.786a.6.6,0,0,0,.681,0l1.179-.786a.593.593,0,0,1,.663,0l1.173.786a.612.612,0,0,0,.632.031.6.6,0,0,0,.325-.54V4.9h.589a.612.612,0,0,0,.614-.614V3.258A.616.616,0,0,0,17.12,2.644Zm-5.5,10.964H6.966a.614.614,0,0,1,0-1.228h4.653a.614.614,0,0,1,0,1.228Zm2.149-2.818h-6.8a.614.614,0,1,1,0-1.228h6.8a.614.614,0,0,1,0,1.228Zm0-2.818h-6.8a.614.614,0,0,1,0-1.228h6.8a.614.614,0,0,1,0,1.228Z" fill="#fff"/>
      </g>
    </g>
  </g>
</svg>
