<svg xmlns="http://www.w3.org/2000/svg" width="37.006" height="37.006" viewBox="0 0 37.006 37.006">
  <g id="ic-poker-menu" transform="translate(-21.903 -530.217)">
    <g id="ic-print-setting" transform="translate(1 147)">
      <rect id="Rectangle_328" data-name="Rectangle 328" width="30" height="30" transform="translate(24 386)" fill="none"/>
    </g>
    <g id="poker-table_1_" data-name="poker-table (1)" transform="translate(21.903 548.72) rotate(-45)">
      <path id="Path_348" data-name="Path 348" d="M21.184,12.821l.185.185a5.913,5.913,0,0,1-8.363,8.363L4.8,13.161A5.913,5.913,0,0,1,13.161,4.8l.185.185,1.09-3.137A8.98,8.98,0,0,0,0,8.98a8.921,8.921,0,0,0,2.63,6.35l8.208,8.208A8.98,8.98,0,0,0,24.321,11.731Z" fill="#fff"/>
      <path id="Path_349" data-name="Path 349" d="M103.127,60.484a.766.766,0,0,0-.224-.579l-1.795-1.795-1.276,3.672a.767.767,0,0,1-1.266.291l-1.05-1.05a4.38,4.38,0,1,0-6.194,6.194l8.208,8.208a4.38,4.38,0,0,0,6.194-6.194l-1.05-1.05a.767.767,0,0,1,.29-1.266l3.672-1.276-1.795-1.795a.767.767,0,0,0-.579-.224,3,3,0,0,1-3.137-3.137ZM103.04,71.3l-1.446,1.446a.767.767,0,1,1-1.084-1.084l1.446-1.446A.767.767,0,0,1,103.04,71.3Zm-2.168-2.168-1.446,1.446a.767.767,0,0,1-1.084-1.084l1.446-1.446a.767.767,0,0,1,1.084,1.084ZM98.7,66.959,97.258,68.4a.767.767,0,0,1-1.084-1.084l1.446-1.446A.767.767,0,0,1,98.7,66.959Zm-2.168-2.168L95.09,66.236a.767.767,0,0,1-1.084-1.084l1.446-1.446a.767.767,0,1,1,1.084,1.084Z" transform="translate(-85.439 -55.14)" fill="#fff"/>
    </g>
  </g>
</svg>
