<svg xmlns="http://www.w3.org/2000/svg" width="25" height="25" viewBox="0 0 25 25">
  <g id="ic-pizza" transform="translate(-17 -16)">
    <g id="XMLID_238_" transform="translate(19.519 19)">
      <path id="XMLID_37_" d="M18.022,1.616A21.346,21.346,0,0,0,9.648,0,21.346,21.346,0,0,0,1.273,1.616,1.313,1.313,0,0,0,.651,3.468l.424.752A15.49,15.49,0,0,1,5.009,2.677a19.26,19.26,0,0,1,4.638-.554,19.258,19.258,0,0,1,4.638.554A15.492,15.492,0,0,1,18.22,4.219l.424-.752a1.313,1.313,0,0,0-.622-1.852Z" transform="translate(0 0)" fill="#1f89cd"/>
      <path id="XMLID_36_" d="M260.186,327.824a1.395,1.395,0,1,0,1.407,1.394A1.4,1.4,0,0,0,260.186,327.824Z" transform="translate(-249.032 -316.063)" fill="#1f89cd"/>
      <path id="XMLID_35_" d="M31.872,91.287l1.319,2.338A2.485,2.485,0,1,1,34.9,96.65l4.138,7.333a1.008,1.008,0,0,0,1.753,0l1.309-2.321a2.475,2.475,0,1,1,1.719-3.046l4.136-7.329a16.427,16.427,0,0,0-8.041-1.957A16.427,16.427,0,0,0,31.872,91.287Zm9.857-.482A2.294,2.294,0,1,1,39.424,93.1,2.3,2.3,0,0,1,41.729,90.805Z" transform="translate(-30.265 -86.125)" fill="#1f89cd"/>
      <ellipse id="XMLID_34_" cx="1.407" cy="1.394" rx="1.407" ry="1.394" transform="translate(3.922 6.753)" fill="#1f89cd"/>
      <path id="XMLID_33_" d="M273.764,163.032a1.212,1.212,0,1,0-1.224-1.212A1.219,1.219,0,0,0,273.764,163.032Z" transform="translate(-262.299 -154.846)" fill="#1f89cd"/>
    </g>
    <rect id="Rectangle_137" data-name="Rectangle 137" width="25" height="25" transform="translate(17 16)" fill="none"/>
  </g>
</svg>
