<svg xmlns="http://www.w3.org/2000/svg" xmlns:xlink="http://www.w3.org/1999/xlink" width="100" height="100" viewBox="0 0 100 100">
  <defs>
    <clipPath id="clip-path">
      <path id="path4089" d="M0-682.665H96.28v96.28H0Z" transform="translate(0 682.665)" fill="#1f89cd"/>
    </clipPath>
  </defs>
  <g id="ic-poker-table-none" transform="translate(-495 -413)">
    <rect id="Rectangle_211" data-name="Rectangle 211" width="100" height="100" transform="translate(495 413)" fill="none"/>
    <g id="g4083" transform="translate(497 1097.665)">
      <g id="g4085" transform="translate(0 -682.665)">
        <g id="g4087" transform="translate(0 0)" clip-path="url(#clip-path)">
          <g id="g4093" transform="translate(1.41 17.082)">
            <path id="path4095" d="M-268.192,0h5.474M-290.01,60.021A30.72,30.72,0,0,1-312.227,30.6,30.725,30.725,0,0,1-290.01,1.173m27.292,60.021h-5.474m27.3-59.989A30.717,30.717,0,0,1-218.768,30.6a30.728,30.728,0,0,1-22.127,29.4" transform="translate(312.227)" fill="none" stroke="#1f89cd" stroke-linecap="round" stroke-linejoin="round" stroke-miterlimit="10" stroke-width="2.2"/>
          </g>
          <g id="g4097" transform="translate(8.708 24.385)">
            <path id="path4099" d="M-90.869-9.577a23.405,23.405,0,0,0-14.92,21.722,23.4,23.4,0,0,0,14.92,21.721m27.292-45.016h-5.474m27.3,44.984A23.406,23.406,0,0,0-26.93,12.145,23.4,23.4,0,0,0-41.754-9.539m-27.3,44.979h5.474" transform="translate(105.789 11.149)" fill="none" stroke="#1f89cd" stroke-linecap="round" stroke-linejoin="round" stroke-miterlimit="10" stroke-width="2.2"/>
          </g>
          <g id="g4101" transform="translate(23.628 11.128)">
            <path id="path4103" d="M-46.977-450.841h-7.713v-34.275h21.818v34.275h-7.713m27.292-74.025h7.719v34.27H-27.4v-34.27h7.719m-35.011,0h21.818v34.27H-54.691Zm27.292,39.75H-5.575v34.275H-27.4Z" transform="translate(54.691 524.865)" fill="none" stroke="#1f89cd" stroke-linecap="round" stroke-linejoin="round" stroke-miterlimit="10" stroke-width="2.2"/>
          </g>
          <g id="g4105" transform="translate(56.218 60.248)">
            <path id="path4107" d="M0-94.6l4.686-4.83h6.546L0-110.137Z" transform="translate(0 110.137)" fill="none" stroke="#1f89cd" stroke-linecap="round" stroke-linejoin="round" stroke-miterlimit="10" stroke-width="2.2"/>
          </g>
          <g id="g4109" transform="translate(28.852 23.597)">
            <path id="path4111" d="M-64.67-26.777a2.581,2.581,0,0,0,0-3.641,2.577,2.577,0,0,0-3.646,0l-1.29,1.285-1.285-1.285a2.577,2.577,0,0,0-3.646,0,2.581,2.581,0,0,0,0,3.641c1.967,1.972,2.964,2.964,4.931,4.936C-67.634-23.814-66.637-24.805-64.67-26.777Z" transform="translate(75.289 31.174)" fill="none" stroke="#1f89cd" stroke-linecap="round" stroke-linejoin="round" stroke-miterlimit="10" stroke-width="2.2"/>
          </g>
          <g id="g4113" transform="translate(57.071 20.451)">
            <path id="path4115" d="M-28.992-46a2.581,2.581,0,0,1-2.164,1.162,2.6,2.6,0,0,1-2.6-2.6,2.6,2.6,0,0,1,2.34-2.58,2.648,2.648,0,0,1-.176-.943,2.6,2.6,0,0,1,2.6-2.6,2.6,2.6,0,0,1,2.6,2.6,2.644,2.644,0,0,1-.176.943,2.6,2.6,0,0,1,2.34,2.58,2.6,2.6,0,0,1-2.6,2.6A2.588,2.588,0,0,1-28.992-46Z" transform="translate(33.752 53.559)" fill="none" stroke="#1f89cd" stroke-linecap="round" stroke-linejoin="round" stroke-miterlimit="10" stroke-width="2.2"/>
          </g>
          <g id="g4117" transform="translate(29.311 61.25)">
            <path id="path4119" d="M-59.436-27.594a2.378,2.378,0,0,1,0,3.353,2.371,2.371,0,0,1-3.348,0l-1.189-1.183-1.183,1.183a2.371,2.371,0,0,1-3.347,0,2.378,2.378,0,0,1,0-3.353l4.531-4.531C-62.159-30.318-61.243-29.4-59.436-27.594Z" transform="translate(69.195 32.125)" fill="none" stroke="#1f89cd" stroke-linecap="round" stroke-linejoin="round" stroke-miterlimit="10" stroke-width="2.2"/>
          </g>
          <g id="g4121" transform="translate(34.534 67.951)">
            <path id="path4123" d="M0,0V4.947" fill="none" stroke="#1f89cd" stroke-linecap="round" stroke-linejoin="round" stroke-miterlimit="10" stroke-width="2.2"/>
          </g>
          <g id="g4125" transform="translate(61.831 28.004)">
            <path id="path4127" d="M0,0V5.026" transform="translate(0)" fill="none" stroke="#1f89cd" stroke-linecap="round" stroke-linejoin="round" stroke-miterlimit="10" stroke-width="2.2"/>
          </g>
          <g id="g4129" transform="translate(16.325 43.409)">
            <path id="path4131" d="M0,0V9.462" fill="none" stroke="#1f89cd" stroke-linecap="round" stroke-linejoin="round" stroke-miterlimit="10" stroke-width="2.2"/>
          </g>
          <g id="g4133" transform="translate(80.045 43.409)">
            <path id="path4135" d="M0,0V9.462" fill="none" stroke="#1f89cd" stroke-linecap="round" stroke-linejoin="round" stroke-miterlimit="10" stroke-width="2.2"/>
          </g>
        </g>
      </g>
    </g>
  </g>
</svg>
