<svg xmlns="http://www.w3.org/2000/svg" xmlns:xlink="http://www.w3.org/1999/xlink" width="30" height="30" viewBox="0 0 30 30">
  <defs>
    <clipPath id="clip-path">
      <rect id="Rectangle_327" data-name="Rectangle 327" width="30" height="26.228" fill="none"/>
    </clipPath>
  </defs>
  <g id="ic-print-setting" transform="translate(-24 -386)">
    <g id="Group_341" data-name="Group 341" transform="translate(24 388)">
      <g id="Group_340" data-name="Group 340" clip-path="url(#clip-path)">
        <path id="Path_286" data-name="Path 286" d="M103.464,11.134l1.51,2.612a.754.754,0,0,0,.895.337l2.219-.751a6.012,6.012,0,0,0,.609.349l.459,2.3a.754.754,0,0,0,.739.606h3.016a.754.754,0,0,0,.74-.606l.459-2.3a6.013,6.013,0,0,0,.609-.349l2.219.751a.754.754,0,0,0,.895-.337l1.508-2.612a.754.754,0,0,0-.155-.944l-1.763-1.546c.007-.117.01-.234.01-.349s0-.234-.01-.35l1.76-1.547a.754.754,0,0,0,.155-.948l-1.508-2.61a.754.754,0,0,0-.895-.337l-2.218.75a6,6,0,0,0-.609-.35l-.459-2.3A.754.754,0,0,0,112.909,0h-3.016a.754.754,0,0,0-.74.606l-.459,2.3a6.04,6.04,0,0,0-.609.35L105.867,2.5a.754.754,0,0,0-.895.337l-1.508,2.611a.754.754,0,0,0,.155.944l1.76,1.547c-.007.117-.01.234-.01.35s0,.234.01.349l-1.76,1.55a.754.754,0,0,0-.155.944M111.4,5.278a3.016,3.016,0,1,1-3.016,3.016A3.016,3.016,0,0,1,111.4,5.278Z" transform="translate(-89.442)" fill="#fff"/>
        <path id="Path_287" data-name="Path 287" d="M14.045,75.587l-1.51-2.612a2.479,2.479,0,0,1,.02-2.5H.778A.781.781,0,0,0,0,71.251V80.49a.78.78,0,0,0,.779.779h3.28V78.384a2.666,2.666,0,0,1,2.663-2.663h7.407c-.029-.044-.057-.088-.084-.134" transform="translate(0.001 -60.981)" fill="#fff"/>
        <path id="Path_288" data-name="Path 288" d="M148.221,134.416h-3.016a2.457,2.457,0,0,1-1.037-.229V136.4h3.282a.78.78,0,0,0,.779-.779v-1.208h-.008" transform="translate(-124.752 -116.114)" fill="#fff"/>
        <path id="Path_289" data-name="Path 289" d="M54.95,123.4H44.921a.78.78,0,0,0-.779.779v8.051a.78.78,0,0,0,.779.779H54.95a.78.78,0,0,0,.779-.779v-8.051a.78.78,0,0,0-.779-.779m-2.634,7.53H47.559a.942.942,0,0,1,0-1.885h4.758a.942.942,0,0,1,0,1.885m0-3.567H47.559a.942.942,0,1,1,0-1.885h4.758a.942.942,0,1,1,0,1.885" transform="translate(-38.197 -106.785)" fill="#fff"/>
        <path id="Path_290" data-name="Path 290" d="M27.815,17.195l1.508-2.611.012-.02H19.23a1.573,1.573,0,0,0-1.571,1.571v4.074H28.242a2.478,2.478,0,0,1-.427-3.014" transform="translate(-15.281 -12.602)" fill="#fff"/>
      </g>
    </g>
    <rect id="Rectangle_328" data-name="Rectangle 328" width="30" height="30" transform="translate(24 386)" fill="none"/>
  </g>
</svg>
