<svg id="ic-remove" xmlns="http://www.w3.org/2000/svg" width="19" height="19" viewBox="0 0 19 19">
  <path id="Path_333" data-name="Path 333" d="M9.5,0A9.5,9.5,0,1,0,19,9.5,9.511,9.511,0,0,0,9.5,0Zm0,0" fill="#1f89cd"/>
  <path id="Path_334" data-name="Path 334" d="M162.7,161.581a.792.792,0,1,1-1.12,1.12l-2.379-2.379-2.379,2.379a.792.792,0,0,1-1.12-1.12l2.379-2.379-2.379-2.379a.792.792,0,0,1,1.12-1.12l2.379,2.379,2.379-2.379a.792.792,0,0,1,1.12,1.12l-2.379,2.379Zm0,0" transform="translate(-149.702 -149.702)" fill="#fafafa"/>
</svg>
