<svg xmlns="http://www.w3.org/2000/svg" width="46.152" height="38.166" viewBox="0 0 46.152 38.166">
  <g id="ic-service" transform="translate(-5.232 -12.114)">
    <path id="path2" d="M28.9,12.124A18.157,18.157,0,0,0,10.857,25.2a2.948,2.948,0,0,0-1.17.108A5.984,5.984,0,0,0,6.1,28.441a10.593,10.593,0,0,0-.735,5.951,9.063,9.063,0,0,0,2.421,5.131,4.076,4.076,0,0,0,3.784,1.216c1.944-.415,2.908-.725,2.636-2.536l-1.318-8.779a15.443,15.443,0,0,1,30.839.021l-.921,6.141A15.429,15.429,0,0,1,29.758,45.659H25.832A1.825,1.825,0,0,0,24,47.487v.964a1.825,1.825,0,0,0,1.829,1.828h4.95a1.822,1.822,0,0,0,1.825-1.828v-.5a18.225,18.225,0,0,0,10.854-7.628l1.586.421a3.944,3.944,0,0,0,3.784-1.216,9.068,9.068,0,0,0,2.421-5.131,10.664,10.664,0,0,0-.735-5.951,5.171,5.171,0,0,0-3.143-3.013,6.729,6.729,0,0,0-1.622-.227A18.155,18.155,0,0,0,28.9,12.124Z" transform="translate(0 0)" fill="#fff" fill-rule="evenodd"/>
    <path id="path4" d="M42.3,31.978a2.372,2.372,0,1,1-2.376,2.373A2.374,2.374,0,0,1,42.3,31.978Zm-6.389,0a2.372,2.372,0,1,1-2.373,2.373A2.371,2.371,0,0,1,35.911,31.978Zm-6.386,0a2.372,2.372,0,1,1-2.373,2.373A2.372,2.372,0,0,1,29.525,31.978Zm6.386-10.191a12.621,12.621,0,0,0-9.154,21.249l-.75,3.361c-.247,1.106.52,1.85,1.514,1.3L30.8,45.863a12.786,12.786,0,0,0,5.108,1.051,12.563,12.563,0,0,0,0-25.127Z" transform="translate(-7.603 -4.06)" fill="#fff" fill-rule="evenodd"/>
  </g>
</svg>
