<svg xmlns="http://www.w3.org/2000/svg" xmlns:xlink="http://www.w3.org/1999/xlink" width="25" height="25" viewBox="0 0 25 25">
  <defs>
    <clipPath id="clip-path">
      <rect id="Rectangle_31" data-name="Rectangle 31" width="17" height="17" transform="translate(0 0)" fill="#1f89cd"/>
    </clipPath>
  </defs>
  <g id="ic-sandwich" transform="translate(-712 -16)">
    <g id="Group_41" data-name="Group 41" transform="translate(716 20)">
      <g id="Group_33" data-name="Group 33" transform="translate(0 0)" clip-path="url(#clip-path)">
        <path id="Path_92" data-name="Path 92" d="M114.77,1.74c.121.212.139.245.782.258a4.158,4.158,0,0,1,1.617.279A3.389,3.389,0,0,0,112.806.209a3.206,3.206,0,0,1,1.964,1.53" transform="translate(-109.154 0)" fill="#1f89cd"/>
        <path id="Path_93" data-name="Path 93" d="M439.394,259.521a3.962,3.962,0,0,1,.349,1.777c.011.639.04.655.259.78a3.232,3.232,0,0,1,1.5,1.892,3.381,3.381,0,0,0-2.113-4.448" transform="translate(-425.17 -251.12)" fill="#1f89cd"/>
        <path id="Path_94" data-name="Path 94" d="M284.329,94.326c.128.128.159.142.663.147a3.533,3.533,0,0,1,2.591.9,3.422,3.422,0,0,0-4.3-4.3,3.535,3.535,0,0,1,.9,2.59C284.186,94.167,284.2,94.2,284.329,94.326Z" transform="translate(-274.115 -87.966)" fill="#1f89cd"/>
        <path id="Path_95" data-name="Path 95" d="M54.988,43.236c-1.442-.82-.068-2.212-1.465-3.609a2.554,2.554,0,0,0-2.02-.716,1.542,1.542,0,0,1-1.773-1.773,2.554,2.554,0,0,0-.715-2.02c-1.393-1.393-2.793-.029-3.609-1.465A2.575,2.575,0,0,0,42,32.778l13.869,13.87A2.572,2.572,0,0,0,54.988,43.236Z" transform="translate(-40.636 -31.434)" fill="#1f89cd"/>
        <path id="Path_96" data-name="Path 96" d="M0,56.922a.486.486,0,0,0,.486.486H15.207L0,42.2Z" transform="translate(0 -40.833)" fill="#1f89cd"/>
      </g>
    </g>
    <rect id="Rectangle_142" data-name="Rectangle 142" width="25" height="25" transform="translate(712 16)" fill="none"/>
  </g>
</svg>
