<svg xmlns="http://www.w3.org/2000/svg" width="23.931" height="24" viewBox="0 0 23.931 24">
  <g id="ic-search" transform="translate(-0.49 -0.001)">
    <path id="Path_100" data-name="Path 100" d="M24.119,20.622l-5.746-5.936c-.412-.426-.927-.6-1.15-.379s-.739.046-1.151-.38l-.082-.085a8.607,8.607,0,1,0-1.484,1.53l.036.038c.411.426.564.946.34,1.163s-.071.737.341,1.162l5.743,5.939a1.074,1.074,0,0,0,1.517.025l1.612-1.56A1.075,1.075,0,0,0,24.119,20.622ZM13.327,12.837a5.949,5.949,0,1,1,0-8.412A5.956,5.956,0,0,1,13.327,12.837Z" fill="#1f89cd"/>
  </g>
</svg>
