<svg xmlns="http://www.w3.org/2000/svg" width="30" height="30" viewBox="0 0 30 30">
  <g id="ic-setting" transform="translate(-25 -19)">
    <g id="XMLID_520_" transform="translate(23.905 22)">
      <path id="XMLID_521_" d="M5.239,15.931,7.4,19.668a1.079,1.079,0,0,0,1.28.482l3.175-1.074a8.617,8.617,0,0,0,.871.5l.657,3.285a1.079,1.079,0,0,0,1.058.867h4.315a1.079,1.079,0,0,0,1.058-.867l.657-3.285a8.628,8.628,0,0,0,.871-.5l3.175,1.074a1.079,1.079,0,0,0,1.28-.482l2.158-3.737a1.079,1.079,0,0,0-.222-1.35L25.21,12.369c.01-.168.015-.335.015-.5s0-.335-.015-.5l2.518-2.213A1.079,1.079,0,0,0,27.95,7.8L25.792,4.065a1.079,1.079,0,0,0-1.28-.482L21.338,4.656a8.608,8.608,0,0,0-.871-.5L19.81.867A1.079,1.079,0,0,0,18.752,0H14.437a1.079,1.079,0,0,0-1.058.867l-.657,3.285a8.629,8.629,0,0,0-.871.5L8.677,3.582a1.079,1.079,0,0,0-1.28.482L5.239,7.8a1.079,1.079,0,0,0,.222,1.35l2.518,2.213c-.01.167-.014.335-.014.5s0,.335.014.5L5.461,14.581A1.079,1.079,0,0,0,5.239,15.931Zm11.355-8.38a4.315,4.315,0,1,1-4.315,4.315A4.32,4.32,0,0,1,16.595,7.551Z" fill="#fff"/>
    </g>
    <rect id="Rectangle_238" data-name="Rectangle 238" width="30" height="30" transform="translate(25 19)" fill="none"/>
  </g>
</svg>
