<svg xmlns="http://www.w3.org/2000/svg" xmlns:xlink="http://www.w3.org/1999/xlink" width="30" height="30" viewBox="0 0 30 30">
  <defs>
    <clipPath id="clip-path">
      <rect id="Rectangle_196" data-name="Rectangle 196" width="28.046" height="21.201" fill="#333"/>
    </clipPath>
  </defs>
  <g id="ic-ubereat" transform="translate(-15 -7)">
    <rect id="Rectangle_207" data-name="Rectangle 207" width="30" height="30" transform="translate(15 7)" fill="none"/>
    <g id="Group_157" data-name="Group 157" transform="translate(16 11)">
      <g id="Group_151" data-name="Group 151" clip-path="url(#clip-path)">
        <path id="Path_159" data-name="Path 159" d="M25.941,9.356H24.546V2.53h1.395V3.3a1.9,1.9,0,0,1,1.67-.839h.422V3.825H27.6c-1.171,0-1.662.618-1.662,1.745ZM0,0H1.5V5.716a2.3,2.3,0,1,0,4.585-.009V0H7.5V9.354H6.082V8.512A3.682,3.682,0,0,1,3.689,9.549,3.723,3.723,0,0,1,0,5.525ZM10.07,9.34H8.68V0h1.39V3.363a3.7,3.7,0,0,1,2.56-.935,3.381,3.381,0,0,1,3.452,3.383,3.672,3.672,0,0,1-3.574,3.764A3.139,3.139,0,0,1,10.07,8.52ZM12.39,3.67A2.326,2.326,0,1,0,14.716,6,2.326,2.326,0,0,0,12.39,3.67M23.616,6.427h-5.5A2.411,2.411,0,0,0,20.4,8.344,2.605,2.605,0,0,0,22.366,7.3l.937.729c-.979,1.754-3.812,1.871-5.292.714a3.365,3.365,0,0,1-1.335-2.877,3.57,3.57,0,0,1,3.7-3.493c1.737.02,3.4,1.264,3.235,4.058m-1.408-1.1c-.167-2.037-3.556-2.482-4.08,0Z" fill="#333" fill-rule="evenodd"/>
        <path id="Path_160" data-name="Path 160" d="M2.29,136.776v-2.3H6.956v-1.58H2.29v-2.3h4.8v-1.58H.48v9.344H7.095v-1.58Zm25.971-3.127H26.507a1.019,1.019,0,0,0-.369-.594,2.021,2.021,0,0,0-1.062-.417c-.618-.06-1.325.255-1.346.631-.013.232.237.488.933.691,1.163.341,2.652.193,3.467,1.256.954,1.244-.046,3.205-2.795,3.289-1.642.05-3.366-.668-3.594-2.418h1.736a1.674,1.674,0,0,0,.633.734c.6.372,2.386.447,2.5-.413a.384.384,0,0,0-.2-.367,4.222,4.222,0,0,0-1.386-.389c-2.188-.3-2.989-1.013-3.141-1.916a1.811,1.811,0,0,1,.172-1.153,2.474,2.474,0,0,1,.5-.643,3.66,3.66,0,0,1,2.569-.812c1.35.042,3.073.784,3.137,2.518m-6.989,3.1v1.582H19.351a1.747,1.747,0,0,1-1.851-1.908v-3.409h-1.32v-1.56H17.5v-2h1.771v2h2v1.56h-2V136c0,.655.227.752.853.752Zm-7.617-4.728v-.582h1.806v6.888H13.655v-.642a3.608,3.608,0,0,1-2.39.815,3.626,3.626,0,1,1,.274-7.245,3.388,3.388,0,0,1,2.116.766m-2.094.774a2.075,2.075,0,1,0,2.075,2.075,2.075,2.075,0,0,0-2.075-2.075" transform="translate(-0.436 -117.307)" fill="#333" fill-rule="evenodd"/>
      </g>
    </g>
  </g>
</svg>
