<svg xmlns="http://www.w3.org/2000/svg" width="978.168" height="468.992" viewBox="0 0 978.168 468.992">
  <g id="landing-pos" transform="translate(-297.632 -139.029)">
    <g id="Group_321" data-name="Group 321">
      <path id="Path_274" data-name="Path 274" d="M297.632,267.248,389.887,253.4c111.551-16.739,164.616,6.579,178.036,96.008s-30.463,127.3-141.55,143.971l-38.121,5.72,15.115,100.725-54.6,8.193ZM426.419,442.359c64.487-9.678,94.234-29.542,85.829-85.555-8.335-55.539-42.6-65.8-107.089-56.121l-45.654,6.851,21.26,141.675Z" fill="#fff"/>
      <path id="Path_275" data-name="Path 275" d="M626.885,392.545c-18.224-121.437,49.573-186,134.767-198.78,83.784-12.573,168.49,29.1,186.713,150.538,18.576,123.788-49.976,186.534-135.171,199.319S645.46,516.333,626.885,392.545ZM893.758,352.5c-11.8-78.607-60.2-118.988-124.69-109.311-65.9,9.889-100.389,62.23-88.523,141.306,12.078,80.486,58.863,119.669,125.233,109.709C871.666,484.314,905.836,432.983,893.758,352.5Z" fill="#fff"/>
      <path id="Path_276" data-name="Path 276" d="M1006.882,419.746l49.749-18.057c19.419,33.186,54.855,48.079,98.162,41.58,47.064-7.062,71.07-29.912,66.2-62.393C1208.911,300.39,1016.8,386.492,997.1,255.17c-8.546-56.954,33.6-103.225,103.739-113.75,69.191-10.383,120.373,13.222,146.343,67.562l-48.411,17.367c-19.467-30.286-48.3-42.8-89.246-36.657-42.361,6.357-64.15,27.916-59.7,57.566,12.714,84.722,204.84-7.634,224.828,125.566,8.971,59.779-35.06,106.333-112.248,117.916C1091.327,501.406,1033.054,475.5,1006.882,419.746Z" fill="#fff"/>
    </g>
    <path id="Path_277" data-name="Path 277" d="M802.287,445.8c-16.569,2.486-55.347,8.306-66.841-68.285-11.416-76.076,29.542-82.222,44.962-84.536,36.377-5.459,58.667,17.369,66.242,67.848C858.143,437.413,819,443.287,802.287,445.8Z" fill="#fff"/>
  </g>
</svg>
