<svg xmlns="http://www.w3.org/2000/svg" xmlns:xlink="http://www.w3.org/1999/xlink" width="74" height="54" viewBox="0 0 74 54">
  <defs>
    <clipPath id="clip-path">
      <rect id="Rectangle_196" data-name="Rectangle 196" width="41.146" height="31.104" fill="#333"/>
    </clipPath>
  </defs>
  <g id="logo-ubereat" transform="translate(-4252 -465)">
    <rect id="Rectangle_205" data-name="Rectangle 205" width="74" height="54" rx="5" transform="translate(4252 465)" fill="#06bb64"/>
    <g id="Group_155" data-name="Group 155" transform="translate(4269 476.896)">
      <g id="Group_151" data-name="Group 151" clip-path="url(#clip-path)">
        <path id="Path_159" data-name="Path 159" d="M38.058,13.727H36.012V3.712h2.046V4.837a2.793,2.793,0,0,1,2.451-1.231h.619V5.612H40.5c-1.717,0-2.438.907-2.438,2.561ZM0,0H2.2V8.385a3.374,3.374,0,1,0,6.726-.013V0h2.082V13.723H8.923V12.487a5.4,5.4,0,0,1-3.512,1.522C2.618,14.1,0,11.818,0,8.105ZM14.773,13.7H12.734V.005h2.039V4.933a5.427,5.427,0,0,1,3.756-1.372,4.96,4.96,0,0,1,5.064,4.963,5.387,5.387,0,0,1-5.243,5.522A4.606,4.606,0,0,1,14.773,12.5Zm3.4-8.318A3.413,3.413,0,1,0,21.59,8.8a3.413,3.413,0,0,0-3.413-3.413M34.646,9.429H26.572a3.537,3.537,0,0,0,3.36,2.812,3.822,3.822,0,0,0,2.88-1.539l1.375,1.07c-1.436,2.573-5.593,2.746-7.763,1.047A4.937,4.937,0,0,1,24.465,8.6,5.237,5.237,0,0,1,29.9,3.475c2.549.029,4.985,1.854,4.745,5.954M32.581,7.817c-.244-2.989-5.218-3.642-5.986,0Z" fill="#333" fill-rule="evenodd"/>
        <path id="Path_160" data-name="Path 160" d="M3.135,140.4v-3.378H9.981v-2.318H3.135v-3.378h7.049v-2.318H.48V142.72h9.7V140.4Zm38.1-4.587H38.664a1.5,1.5,0,0,0-.542-.872,2.965,2.965,0,0,0-1.558-.611c-.907-.088-1.944.375-1.974.926-.019.341.348.715,1.368,1.014,1.707.5,3.89.283,5.086,1.843,1.4,1.826-.068,4.7-4.1,4.826-2.409.074-4.938-.98-5.273-3.547H34.22a2.457,2.457,0,0,0,.928,1.078c.884.546,3.5.656,3.665-.606a.563.563,0,0,0-.294-.538,6.194,6.194,0,0,0-2.033-.57c-3.21-.443-4.385-1.486-4.607-2.81a2.657,2.657,0,0,1,.252-1.691,3.628,3.628,0,0,1,.734-.943,5.37,5.37,0,0,1,3.769-1.191c1.981.061,4.509,1.151,4.6,3.694m-10.253,4.548v2.321H28.166a2.564,2.564,0,0,1-2.715-2.8v-5H23.514v-2.289H25.45v-2.928h2.6v2.928h2.936v2.289H28.048v4.377c0,.96.333,1.1,1.251,1.1Zm-11.175-6.937v-.853h2.649v10.105H19.809v-.942a5.293,5.293,0,0,1-3.506,1.2,5.319,5.319,0,1,1,.4-10.63,4.97,4.97,0,0,1,3.1,1.124m-3.072,1.135a3.044,3.044,0,1,0,3.044,3.044,3.044,3.044,0,0,0-3.044-3.044" transform="translate(-0.416 -111.84)" fill="#333" fill-rule="evenodd"/>
      </g>
    </g>
  </g>
</svg>
