<svg xmlns="http://www.w3.org/2000/svg" width="56" height="86" viewBox="0 0 56 86">
  <g id="logo-small" transform="translate(-285 1910)">
    <rect id="Rectangle_285" data-name="Rectangle 285" width="56" height="86" rx="15" transform="translate(285 -1910)" fill="#fff"/>
    <g id="logo-small-2" data-name="logo-small" transform="translate(293 -1901.01)">
      <path id="Path_227" data-name="Path 227" d="M19.652,0,0,35.535H9.325l14.8-27.44Z" transform="translate(0)" fill="#ffb100"/>
      <path id="Path_228" data-name="Path 228" d="M24.663,35.167,18.711,46.2H44.977l-6.1-11.031Z" transform="translate(-5.674 -10.663)" fill="#1f89cd"/>
      <path id="Path_229" data-name="Path 229" d="M35.038,16.5l-5.256,9.742H40.426Z" transform="translate(-9.031 -5.002)" fill="#1f89cd"/>
    </g>
    <g id="Group_280" data-name="Group 280" transform="translate(-97.922 4)">
      <path id="Path_230" data-name="Path 230" d="M247.842,38h-1.778V36.492h2.029c.127-1.06.234-2.137.288-3.2l2.281.073c-.162,1.077-.323,2.119-.5,3.124h3.09V38a19.912,19.912,0,0,1-1.779,7.345l-.054.107c.7.683,1.437,1.455,2.209,2.3l-1.06.988a25.244,25.244,0,0,0-2.029-1.9,12.582,12.582,0,0,1-3.772,3.286l-.971-1.149a10.481,10.481,0,0,0,3.4-3.233q-1.319-1.023-2.8-1.993A37.9,37.9,0,0,0,247.842,38m1.993,0a40.465,40.465,0,0,1-1.454,4.957,17.326,17.326,0,0,1,1.635,1.239,20.37,20.37,0,0,0,1.221-6.2Zm4.132-3.449h8.01v1.508a12.458,12.458,0,0,1-2.658,2.982V41h3.449v1.543h-3.449v5.569a1.654,1.654,0,0,1-.575,1.4,3.352,3.352,0,0,1-1.958.431,11.516,11.516,0,0,1-1.993-.161l-.36-1.815a12.787,12.787,0,0,0,1.707.145,1.1,1.1,0,0,0,.755-.18.938.938,0,0,0,.2-.628v-4.76H253.32V41h3.773V38.72h.376a12.9,12.9,0,0,0,2.084-2.659h-5.585Z" transform="translate(147.128 -1892.492)" fill="#1f89cd"/>
      <path id="Path_231" data-name="Path 231" d="M267.846,46.98a15.593,15.593,0,0,1-1.059,3.125l-1.258-.179a20.886,20.886,0,0,0,.628-3.2Zm6.52-1.94a79.182,79.182,0,0,1-8.226,1.347L266,44.412c1.06-.035,2.084-.09,3.089-.144V43.047h-2.928V41.611h2.928v-1.2H266.23V34.229h7.9v6.179H271.2v1.2h2.874v1.436H271.2v1.078c1.042-.09,2.065-.18,3.054-.288ZM269.3,35.629h-1.419v.737l.88-.269a11.337,11.337,0,0,1,.539,1.957Zm0,3.378v-.665l-.754.179a11.611,11.611,0,0,0-.665-1.706v2.191Zm.4,7.614a20.7,20.7,0,0,1,.556,3.108l-1.258.144a17.757,17.757,0,0,0-.987-3.072Zm2.084-.394a21.845,21.845,0,0,1,.736,3.125l-1.221.179a16.443,16.443,0,0,0-1.167-3.018Zm-.719-10.6v2.515a13.445,13.445,0,0,0,.485-2.065l.933.305v-.755Zm0,2.676v.7h1.419v-2.12a13.335,13.335,0,0,1-.718,1.688Zm2.712,7.49a19.361,19.361,0,0,1,.664,2.928l-1.149.178a15.946,15.946,0,0,0-1.131-2.819Zm8.01-4.365V49.98h-2.12V48.723h-2.909V49.98h-2.12V41.431h2.281V33.277h2.191v3.107h3.431v1.509h-3.431v3.538Zm-5.029,5.748h2.909v-4.2h-2.909Z" transform="translate(146.324 -1892.491)" fill="#1f89cd"/>
    </g>
  </g>
</svg>
