<svg xmlns="http://www.w3.org/2000/svg" xmlns:xlink="http://www.w3.org/1999/xlink" width="304.084" height="56" viewBox="0 0 304.084 56">
  <defs>
    <clipPath id="clip-path">
      <rect id="Rectangle_1" data-name="Rectangle 1" width="304.084" height="56" fill="none"/>
    </clipPath>
  </defs>
  <g id="logo" transform="translate(0 0)">
    <g id="Group_1" data-name="Group 1" transform="translate(0 0)" clip-path="url(#clip-path)">
      <path id="Path_1" data-name="Path 1" d="M210.14,45.38a31.607,31.607,0,0,1-2.352,4.6l-1.367-.665a24.117,24.117,0,0,0,1.629-4.722Zm6.01-7.959h-9.085V35.814H210.8a20.118,20.118,0,0,0-1-1.809l2.371-.523a19.078,19.078,0,0,1,.6,2.332h3.377Zm-.643,1.166v5.448h-2.493v5.849a1.749,1.749,0,0,1-.6,1.488,3.025,3.025,0,0,1-1.829.462,9,9,0,0,1-1.708-.142l-.381-1.948a6.451,6.451,0,0,0,1.326.141.836.836,0,0,0,.6-.181.522.522,0,0,0,.181-.422V44.035h-2.794V38.587Zm-2.372,1.608h-2.954v2.231h2.954Zm6.815-.8c-.121,5.809-1.549,10.07-4.262,12.743l-1.387-.844a14.94,14.94,0,0,0,1.608-2.713l-1.085.3a25.234,25.234,0,0,0-1.488-3.718l1.91-.683a22.355,22.355,0,0,1,.924,3.456,24.724,24.724,0,0,0,1.448-8.542h-1.568V37.662h1.588V33.5h2.332v4.16h5.185v1.728h-2.21V49.46c0,.262.081.4.261.4h.382a.354.354,0,0,0,.321-.24,3.355,3.355,0,0,0,.161-1.166c.02-.624,0-1.347-.019-2.132l1.648.684a25.231,25.231,0,0,1-.061,2.654,3.7,3.7,0,0,1-.442,1.547,1.191,1.191,0,0,1-1.144.543H222.2a1.419,1.419,0,0,1-1.627-1.589V39.391ZM222.48,33.9a21.965,21.965,0,0,1,1.528,2.734l-1.327.724a15.72,15.72,0,0,0-2.21-2.371Z" transform="translate(15.175 2.462)" fill="#1f89cd"/>
      <path id="Path_2" data-name="Path 2" d="M226.794,42.625h17.848v1.648h-7.357v1.809h6.572V47.73h-6.572v2.131l.924.019c2.392-.019,4.743-.079,7.074-.2l-.4,1.85c-2.03.1-4.2.14-6.532.14q-2.021,0-3.256-.12a7.356,7.356,0,0,1-4.823-2.614,20.221,20.221,0,0,1-2.654,3.156l-1.406-.884a17.539,17.539,0,0,0,3.657-6.433l2.272.7c-.261.623-.562,1.245-.885,1.849a6.342,6.342,0,0,0,3.5,2.311V44.273h-7.959Zm16.059-1.266H228.944V34.345h13.908ZM231.4,37.178h9V35.831h-9Zm9,1.447h-9v1.246h9Z" transform="translate(16.63 2.525)" fill="#1f89cd"/>
      <path id="Path_3" data-name="Path 3" d="M248.086,38.562H246.1V36.873h2.27c.142-1.186.262-2.392.322-3.578l2.553.082c-.181,1.206-.362,2.371-.564,3.5h3.458v1.689a22.284,22.284,0,0,1-1.99,8.22l-.06.12c.784.764,1.608,1.629,2.472,2.573l-1.186,1.106a28.248,28.248,0,0,0-2.27-2.13,14.081,14.081,0,0,1-4.221,3.677l-1.086-1.286a11.729,11.729,0,0,0,3.8-3.618q-1.477-1.145-3.136-2.231a42.413,42.413,0,0,0,1.627-6.431m2.231,0a45.293,45.293,0,0,1-1.627,5.547,19.393,19.393,0,0,1,1.829,1.387,22.8,22.8,0,0,0,1.367-6.934ZM254.94,34.7H263.9V36.39a13.942,13.942,0,0,1-2.975,3.338v2.191h3.859v1.727H260.93v6.232a1.851,1.851,0,0,1-.643,1.567,3.751,3.751,0,0,1-2.191.482,12.888,12.888,0,0,1-2.231-.18l-.4-2.031a14.309,14.309,0,0,0,1.91.162,1.234,1.234,0,0,0,.845-.2,1.049,1.049,0,0,0,.221-.7V43.646h-4.222V41.919h4.222V39.366h.421a14.435,14.435,0,0,0,2.332-2.976h-6.25Z" transform="translate(18.07 2.448)" fill="#1f89cd"/>
      <path id="Path_4" data-name="Path 4" d="M268.122,48.612a17.447,17.447,0,0,1-1.185,3.5l-1.407-.2a23.374,23.374,0,0,0,.7-3.577Zm7.3-2.171a88.616,88.616,0,0,1-9.205,1.507l-.161-2.21c1.186-.04,2.332-.1,3.457-.161V44.211h-3.276V42.6h3.276V41.256h-3.195V34.342h8.843v6.915H271.88V42.6H275.1v1.607H271.88v1.207c1.166-.1,2.311-.2,3.418-.322ZM269.75,35.909h-1.588v.824l.984-.3a12.681,12.681,0,0,1,.6,2.19Zm0,3.78v-.744l-.844.2a13,13,0,0,0-.744-1.909v2.452Zm.442,8.521a23.159,23.159,0,0,1,.623,3.478l-1.407.161a19.879,19.879,0,0,0-1.1-3.437Zm2.332-.441a24.443,24.443,0,0,1,.823,3.5l-1.367.2a18.4,18.4,0,0,0-1.306-3.377Zm-.8-11.859v2.815a15.047,15.047,0,0,0,.543-2.311l1.044.341v-.845Zm0,3v.785h1.588V37.317a14.92,14.92,0,0,1-.8,1.889Zm3.035,8.382a21.663,21.663,0,0,1,.743,3.276l-1.286.2a17.835,17.835,0,0,0-1.266-3.155Zm8.964-4.885v9.567h-2.372V50.563h-3.255v1.406h-2.372V42.4h2.553V33.277h2.452v3.477h3.84v1.689h-3.84V42.4Zm-5.627,6.433h3.255v-4.7h-3.255Z" transform="translate(19.521 2.447)" fill="#1f89cd"/>
      <line id="Line_1" data-name="Line 1" y2="48.758" transform="translate(212.532 6.006)" fill="none" stroke="#1f89cd" stroke-miterlimit="10" stroke-width="1.4"/>
      <path id="Path_5" data-name="Path 5" d="M121.739,7.554h7.212c8.719,0,12.509,2.392,12.509,9.381s-3.79,9.383-12.473,9.383h-2.979v7.873h-4.268Zm7.837,14.864c5.041,0,7.543-1.178,7.543-5.555,0-4.341-2.5-5.519-7.543-5.519h-3.568V22.418Z" transform="translate(8.95 0.556)" fill="#1f89cd"/>
      <path id="Path_6" data-name="Path 6" d="M143.847,20.93c0-9.492,5.924-13.65,12.583-13.65,6.55,0,12.546,4.158,12.546,13.65,0,9.676-5.96,13.686-12.619,13.686s-12.51-4.011-12.51-13.686m20.861,0c0-6.145-3.238-9.787-8.278-9.787-5.151,0-8.388,3.606-8.388,9.787,0,6.291,3.127,9.824,8.315,9.824,5.15,0,8.351-3.533,8.351-9.824" transform="translate(10.575 0.536)" fill="#1f89cd"/>
      <path id="Path_7" data-name="Path 7" d="M170.616,27.376l4.011-.809c1.1,2.759,3.641,4.3,7.026,4.3,3.679,0,5.777-1.472,5.777-4.011,0-6.291-15.673-1.913-15.673-12.178,0-4.452,3.753-7.506,9.235-7.506,5.408,0,9.05,2.392,10.412,6.844l-3.9.773c-1.141-2.539-3.2-3.826-6.4-3.826-3.311,0-5.224,1.4-5.224,3.715,0,6.623,15.746,1.766,15.746,12.178,0,4.673-3.9,7.726-9.933,7.726-5.555,0-9.713-2.648-11.074-7.211" transform="translate(12.543 0.528)" fill="#1f89cd"/>
      <path id="Path_8" data-name="Path 8" d="M67.506,41.512h2.531c3.062,0,4.236.981,4.236,3.371s-1.174,3.334-4.189,3.334h-.666v2.4H67.506Zm2.87,4.956c1.356,0,1.948-.453,1.948-1.623s-.593-1.61-1.948-1.61h-.957v3.233Z" transform="translate(4.963 3.052)" fill="#1f89cd"/>
      <path id="Path_9" data-name="Path 9" d="M74.757,46.9a3.58,3.58,0,1,1,7.154,0,3.581,3.581,0,1,1-7.154,0m5.327,0c0-1.346-.727-2.151-1.756-2.151s-1.742.792-1.742,2.151.726,2.164,1.755,2.164,1.743-.805,1.743-2.164" transform="translate(5.496 3.174)" fill="#1f89cd"/>
      <path id="Path_10" data-name="Path 10" d="M81.973,43.293h1.986l1.634,4.969,1.549-4.969h1.4l1.538,4.969,1.634-4.969h2.009l-2.687,7.2H89.248l-1.4-4.655-1.417,4.655h-1.8Z" transform="translate(6.026 3.183)" fill="#1f89cd"/>
      <path id="Path_11" data-name="Path 11" d="M93.372,46.9a3.477,3.477,0,0,1,3.547-3.737c2.289,0,3.632,1.661,3.414,4.177H95.212a1.713,1.713,0,0,0,1.815,1.85,1.528,1.528,0,0,0,1.562-.893l1.683.214a3.165,3.165,0,0,1-3.294,2.126A3.458,3.458,0,0,1,93.372,46.9m5.277-.818a1.587,1.587,0,0,0-1.682-1.573,1.622,1.622,0,0,0-1.719,1.573Z" transform="translate(6.864 3.174)" fill="#1f89cd"/>
      <path id="Path_12" data-name="Path 12" d="M101.332,43.3h1.84v1.082a2,2,0,0,1,2.337-1.17l-.182,1.811c-1.379-.264-2.155.4-2.155,2.076v3.4h-1.84Z" transform="translate(7.45 3.176)" fill="#1f89cd"/>
      <path id="Path_13" data-name="Path 13" d="M111.481,49.467v1.17h-1.84V41.114h1.84v3.547a2.3,2.3,0,0,1,2.2-1.345c1.718,0,3.075,1.32,3.075,3.736s-1.357,3.762-3.064,3.762a2.341,2.341,0,0,1-2.215-1.346m3.437-2.415c0-1.346-.714-2.151-1.755-2.151-1.017,0-1.743.792-1.743,2.151s.727,2.164,1.756,2.164,1.742-.805,1.742-2.164" transform="translate(8.06 3.023)" fill="#1f89cd"/>
      <path id="Path_14" data-name="Path 14" d="M119.648,50.452l-2.87-7.158h2.01l1.84,5.108,1.828-5.108h2.021l-3.788,9.523h-2.021Z" transform="translate(8.585 3.183)" fill="#1f89cd"/>
      <path id="Path_15" data-name="Path 15" d="M133.719,49.035h-3.753l-.557,1.586H127.4l3.473-9.108h1.938l3.486,9.108h-2.021Zm-.509-1.459-1.368-3.9-1.369,3.9Z" transform="translate(9.366 3.052)" fill="#1f89cd"/>
      <path id="Path_16" data-name="Path 16" d="M136.533,43.3h1.84v1.082a2,2,0,0,1,2.337-1.17l-.183,1.811c-1.379-.264-2.155.4-2.155,2.076v3.4h-1.84Z" transform="translate(10.037 3.176)" fill="#1f89cd"/>
      <path id="Path_17" data-name="Path 17" d="M142.012,47.738V44.856h-.981V43.41h.981v-1.3l1.852-.4v1.7h1.888v1.446h-1.888v2.705c0,1.221.339,1.648,1.247,1.648a3.945,3.945,0,0,0,.556-.063l.243,1.447a4.982,4.982,0,0,1-1.114.126c-1.888,0-2.784-.792-2.784-2.981" transform="translate(10.368 3.067)" fill="#1f89cd"/>
      <path id="Path_18" data-name="Path 18" d="M146.68,43.3h1.84v1.082a2,2,0,0,1,2.337-1.17l-.182,1.811c-1.379-.264-2.155.4-2.155,2.076v3.4h-1.84Z" transform="translate(10.783 3.176)" fill="#1f89cd"/>
      <path id="Path_19" data-name="Path 19" d="M151.517,41.59a.946.946,0,0,1,1.054-.968.972.972,0,1,1,0,1.938.953.953,0,0,1-1.054-.969m.133,1.9h1.828v7.2H151.65Z" transform="translate(11.139 2.987)" fill="#1f89cd"/>
      <path id="Path_20" data-name="Path 20" d="M156.886,49.467v1.17h-1.84V41.114h1.84v3.547a2.3,2.3,0,0,1,2.2-1.345c1.718,0,3.075,1.32,3.075,3.736s-1.357,3.762-3.064,3.762a2.341,2.341,0,0,1-2.215-1.346m3.437-2.415c0-1.346-.714-2.151-1.755-2.151-1.017,0-1.743.792-1.743,2.151s.727,2.164,1.756,2.164,1.742-.805,1.742-2.164" transform="translate(11.398 3.023)" fill="#1f89cd"/>
      <path id="Path_21" data-name="Path 21" d="M163.131,43.3h1.84v1.082a2,2,0,0,1,2.337-1.17l-.182,1.811c-1.379-.264-2.155.4-2.155,2.076v3.4h-1.84Z" transform="translate(11.993 3.176)" fill="#1f89cd"/>
      <path id="Path_22" data-name="Path 22" d="M61.64,13.592H58.5V10.929h3.582c.222-1.87.41-3.772.507-5.642l4.025.127c-.284,1.9-.57,3.741-.887,5.516H71.18v2.662a35.152,35.152,0,0,1-3.138,12.964l-.094.19c1.235,1.2,2.536,2.568,3.9,4.057l-1.869,1.743a46.054,46.054,0,0,0-3.581-3.36,22.228,22.228,0,0,1-6.657,5.8l-1.711-2.028a18.5,18.5,0,0,0,5.99-5.706q-2.33-1.807-4.946-3.518A66.836,66.836,0,0,0,61.64,13.592m3.518,0a71.614,71.614,0,0,1-2.568,8.748,29.986,29.986,0,0,1,2.885,2.187A35.94,35.94,0,0,0,67.63,13.592Zm7.29-6.086H86.585v2.662a21.976,21.976,0,0,1-4.692,5.261v3.456h6.086v2.726H81.892v9.826a2.918,2.918,0,0,1-1.014,2.472,5.919,5.919,0,0,1-3.455.76,20.4,20.4,0,0,1-3.518-.284l-.633-3.2a22.558,22.558,0,0,0,3.011.254,1.934,1.934,0,0,0,1.33-.318,1.636,1.636,0,0,0,.349-1.109v-8.4H71.306V18.885h6.656V14.86h.666a22.761,22.761,0,0,0,3.678-4.691H72.449Z" transform="translate(4.266 0.389)" fill="#1f89cd"/>
      <path id="Path_23" data-name="Path 23" d="M91.758,29.442a27.6,27.6,0,0,1-1.87,5.516L87.67,34.64A37.265,37.265,0,0,0,88.779,29Zm11.506-3.422A140.407,140.407,0,0,1,88.747,28.4l-.253-3.487c1.87-.063,3.677-.159,5.452-.253V22.5H88.779V19.965h5.167V17.842h-5.04V6.938h13.946v10.9H97.685v2.123h5.071V22.5H97.685v1.9c1.839-.159,3.646-.317,5.389-.508ZM94.325,9.41h-2.5v1.3l1.553-.476a19.893,19.893,0,0,1,.95,3.455Zm0,5.959V14.2l-1.33.317A20.461,20.461,0,0,0,91.821,11.5v3.867Zm.7,13.439a36.471,36.471,0,0,1,.983,5.484l-2.219.253a31.272,31.272,0,0,0-1.744-5.42Zm3.677-.7a38.389,38.389,0,0,1,1.3,5.515l-2.156.318a29.024,29.024,0,0,0-2.06-5.326ZM97.431,9.41v4.438a23.366,23.366,0,0,0,.856-3.645l1.649.538V9.41Zm0,4.723v1.236h2.5v-3.74a23.345,23.345,0,0,1-1.269,2.979Zm4.786,13.217a34.2,34.2,0,0,1,1.173,5.166l-2.029.317a28.155,28.155,0,0,0-2-4.976Zm14.136-7.7V34.736h-3.74V32.517H107.48v2.219h-3.74V19.648h4.025V5.258h3.867v5.484h6.055V13.4h-6.055v6.245ZM107.48,29.791h5.135V22.374H107.48Z" transform="translate(6.445 0.387)" fill="#1f89cd"/>
      <path id="Path_24" data-name="Path 24" d="M46.18,31.5,37.88,16.5,29.783,31.5Z" transform="translate(2.19 1.213)" fill="#0e8dd1"/>
      <path id="Path_25" data-name="Path 25" d="M30.277,0,0,54.747H14.366L37.174,12.471Z" transform="translate(0 0.001)" fill="#f9bf00"/>
      <path id="Path_26" data-name="Path 26" d="M27.88,35.167,18.711,52.161H59.178l-9.4-16.995Z" transform="translate(1.376 2.586)" fill="#0e8dd1"/>
      <path id="Path_27" data-name="Path 27" d="M27.88,35.167,18.711,52.161H59.178l-9.4-16.995Z" transform="translate(1.376 2.586)" fill="#1f89cd"/>
      <path id="Path_28" data-name="Path 28" d="M37.88,16.5,29.782,31.5h16.4Z" transform="translate(2.19 1.213)" fill="#1f89cd"/>
      <path id="Path_29" data-name="Path 29" d="M155.79,26.292c-1.275,0-4.261,0-4.261-5.9,0-5.857,3.153-5.857,4.34-5.857,2.8,0,4.221,1.971,4.221,5.857,0,5.9-3.013,5.9-4.3,5.9" transform="translate(11.14 1.069)" fill="#f9bf00"/>
    </g>
  </g>
</svg>
