<svg xmlns="http://www.w3.org/2000/svg" width="346.84" height="95.132" viewBox="0 0 346.84 95.132">
  <g id="logo-basic" transform="translate(0 0)">
    <g id="Group_318" data-name="Group 318" transform="translate(0 0)">
      <path id="Path_5" data-name="Path 5" d="M121.739,7.554h12.252c14.812,0,21.25,4.063,21.25,15.937S148.8,39.43,134.051,39.43H128.99V52.805h-7.251ZM135.052,32.8c8.564,0,12.813-2,12.813-9.438,0-7.375-4.249-9.376-12.813-9.376H128.99V32.8Z" transform="translate(100.276 6.223)" fill="#1f89cd"/>
      <path id="Path_6" data-name="Path 6" d="M143.847,30.468c0-16.125,10.063-23.188,21.376-23.188,11.126,0,21.314,7.063,21.314,23.188,0,16.437-10.125,23.25-21.438,23.25s-21.252-6.813-21.252-23.25m35.438,0c0-10.439-5.5-16.627-14.063-16.627-8.75,0-14.25,6.126-14.25,16.627,0,10.687,5.312,16.689,14.126,16.689,8.748,0,14.187-6,14.187-16.689" transform="translate(118.487 5.997)" fill="#1f89cd"/>
      <path id="Path_7" data-name="Path 7" d="M170.616,41.492l6.813-1.375c1.875,4.687,6.186,7.313,11.936,7.313,6.25,0,9.813-2.5,9.813-6.813,0-10.687-26.626-3.25-26.626-20.688,0-7.563,6.376-12.751,15.689-12.751,9.188,0,15.374,4.063,17.688,11.626L199.3,20.116c-1.939-4.313-5.438-6.5-10.877-6.5-5.624,0-8.874,2.374-8.874,6.312,0,11.25,26.75,3,26.75,20.688,0,7.939-6.625,13.125-16.875,13.125-9.438,0-16.5-4.5-18.813-12.25" transform="translate(140.536 5.913)" fill="#1f89cd"/>
      <path id="Path_8" data-name="Path 8" d="M67.506,41.512h4.3c5.2,0,7.2,1.667,7.2,5.726,0,4.039-2,5.664-7.116,5.664H70.756v4.081h-3.25Zm4.875,8.42c2.3,0,3.31-.77,3.31-2.757,0-1.966-1.007-2.736-3.31-2.736H70.756v5.493Z" transform="translate(55.605 34.194)" fill="#1f89cd"/>
      <path id="Path_9" data-name="Path 9" d="M74.757,49.511c0-4.4,3-6.346,6.088-6.346,3.064,0,6.066,1.944,6.066,6.346,0,4.446-2.982,6.39-6.066,6.39s-6.088-1.944-6.088-6.39m9.049,0c0-2.287-1.235-3.655-2.984-3.655-1.727,0-2.96,1.346-2.96,3.655,0,2.329,1.233,3.677,2.982,3.677s2.962-1.368,2.962-3.677" transform="translate(61.577 35.556)" fill="#1f89cd"/>
      <path id="Path_10" data-name="Path 10" d="M81.973,43.293h3.374l2.776,8.442,2.632-8.442h2.385l2.613,8.442,2.776-8.442h3.412L97.375,55.518H94.332L91.948,47.61l-2.407,7.908H86.477Z" transform="translate(67.521 35.662)" fill="#1f89cd"/>
      <path id="Path_11" data-name="Path 11" d="M93.372,49.512c0-3.762,2.467-6.348,6.026-6.348,3.888,0,6.17,2.821,5.8,7.1H96.5A2.91,2.91,0,0,0,99.582,53.4a2.6,2.6,0,0,0,2.653-1.517l2.86.363c-.844,2.373-2.757,3.611-5.6,3.611-3.7,0-6.128-2.522-6.128-6.346m8.965-1.39a2.7,2.7,0,0,0-2.858-2.672,2.756,2.756,0,0,0-2.92,2.672Z" transform="translate(76.911 35.555)" fill="#1f89cd"/>
      <path id="Path_12" data-name="Path 12" d="M101.332,43.38h3.126v1.838c.41-1.133,1.623-2.265,3.97-1.988l-.31,3.077c-2.343-.449-3.66.684-3.66,3.527V55.6h-3.126Z" transform="translate(83.467 35.575)" fill="#1f89cd"/>
      <path id="Path_13" data-name="Path 13" d="M112.767,55.3v1.988h-3.126V41.114h3.126v6.025a3.913,3.913,0,0,1,3.744-2.285c2.918,0,5.223,2.243,5.223,6.346s-2.305,6.39-5.2,6.39a3.977,3.977,0,0,1-3.762-2.287m5.84-4.1c0-2.287-1.213-3.655-2.982-3.655-1.727,0-2.962,1.346-2.962,3.655,0,2.329,1.235,3.677,2.984,3.677s2.96-1.368,2.96-3.677" transform="translate(90.311 33.867)" fill="#1f89cd"/>
      <path id="Path_14" data-name="Path 14" d="M121.653,55.454l-4.875-12.16h3.414l3.126,8.677,3.106-8.677h3.434l-6.436,16.178h-3.434Z" transform="translate(96.19 35.662)" fill="#1f89cd"/>
      <path id="Path_15" data-name="Path 15" d="M138.134,54.292h-6.376l-.946,2.694H127.4l5.9-15.472h3.292l5.922,15.472h-3.434Zm-.864-2.478-2.323-6.626-2.325,6.626Z" transform="translate(104.939 34.195)" fill="#1f89cd"/>
      <path id="Path_16" data-name="Path 16" d="M136.533,43.38h3.126v1.838c.41-1.133,1.623-2.265,3.97-1.988l-.31,3.077c-2.343-.449-3.66.684-3.66,3.527V55.6h-3.126Z" transform="translate(112.462 35.575)" fill="#1f89cd"/>
      <path id="Path_17" data-name="Path 17" d="M142.7,51.948V47.054h-1.667V44.6H142.7V42.4l3.146-.684V44.6h3.208v2.457h-3.208v4.6c0,2.074.576,2.8,2.119,2.8a6.7,6.7,0,0,0,.945-.108l.412,2.458a8.465,8.465,0,0,1-1.893.213c-3.208,0-4.729-1.346-4.729-5.064" transform="translate(116.167 34.359)" fill="#1f89cd"/>
      <path id="Path_18" data-name="Path 18" d="M146.68,43.38h3.126v1.838c.41-1.133,1.623-2.265,3.97-1.988l-.31,3.077c-2.343-.449-3.66.684-3.66,3.527V55.6H146.68Z" transform="translate(120.82 35.575)" fill="#1f89cd"/>
      <path id="Path_19" data-name="Path 19" d="M151.517,42.267a1.606,1.606,0,0,1,1.791-1.645,1.651,1.651,0,1,1,0,3.292,1.618,1.618,0,0,1-1.791-1.647m.226,3.228h3.106V57.719h-3.106Z" transform="translate(124.805 33.461)" fill="#1f89cd"/>
      <path id="Path_20" data-name="Path 20" d="M158.172,55.3v1.988h-3.126V41.114h3.126v6.025a3.914,3.914,0,0,1,3.744-2.285c2.918,0,5.223,2.243,5.223,6.346s-2.305,6.39-5.2,6.39a3.977,3.977,0,0,1-3.762-2.287m5.84-4.1c0-2.287-1.213-3.655-2.982-3.655-1.727,0-2.962,1.346-2.962,3.655,0,2.329,1.235,3.677,2.984,3.677s2.96-1.368,2.96-3.677" transform="translate(127.711 33.867)" fill="#1f89cd"/>
      <path id="Path_21" data-name="Path 21" d="M163.131,43.38h3.126v1.838c.41-1.133,1.623-2.265,3.97-1.988l-.31,3.077c-2.343-.449-3.66.684-3.66,3.527V55.6h-3.126Z" transform="translate(134.371 35.575)" fill="#1f89cd"/>
      <path id="Path_22" data-name="Path 22" d="M64.166,19.4H58.833V14.872h6.086c.378-3.177.7-6.408.861-9.585l6.837.215c-.483,3.232-.968,6.356-1.506,9.37h9.261V19.4c-.7,8.993-2.475,16.315-5.331,22.023l-.161.323c2.1,2.046,4.308,4.362,6.622,6.892l-3.175,2.962a78.235,78.235,0,0,0-6.084-5.708A37.761,37.761,0,0,1,60.934,55.74l-2.907-3.445A31.431,31.431,0,0,0,68.2,42.6q-3.958-3.069-8.4-5.976A113.544,113.544,0,0,0,64.166,19.4m5.976,0A121.658,121.658,0,0,1,65.78,34.256a50.941,50.941,0,0,1,4.9,3.715c1.99-4.953,3.175-11.146,3.66-18.576ZM82.527,9.057h24.014v4.523a37.334,37.334,0,0,1-7.971,8.938v5.87h10.339v4.63H98.57V49.711a4.956,4.956,0,0,1-1.723,4.2c-1.129.861-3.12,1.291-5.869,1.291A34.656,34.656,0,0,1,85,54.718l-1.076-5.44a38.322,38.322,0,0,0,5.115.432,3.285,3.285,0,0,0,2.26-.54,2.78,2.78,0,0,0,.593-1.884V33.018H80.586v-4.63H91.893V21.549h1.131a38.667,38.667,0,0,0,6.248-7.97H82.527Z" transform="translate(47.797 4.356)" fill="#1f89cd"/>
      <path id="Path_23" data-name="Path 23" d="M94.615,46.342a46.891,46.891,0,0,1-3.177,9.37l-3.768-.54a63.3,63.3,0,0,0,1.884-9.584Zm19.546-5.814A238.524,238.524,0,0,1,89.5,44.566l-.43-5.923c3.177-.108,6.246-.27,9.263-.43V34.55H89.554V30.243h8.777V26.635H89.769V8.112h23.692V26.635h-8.777v3.607H113.3V34.55h-8.615v3.232c3.124-.27,6.193-.538,9.155-.863ZM98.975,12.312H94.722v2.208l2.639-.808a33.793,33.793,0,0,1,1.614,5.869Zm0,10.123V20.444l-2.26.538a34.761,34.761,0,0,0-1.993-5.115v6.569Zm1.185,22.831a61.959,61.959,0,0,1,1.671,9.315l-3.77.43A53.125,53.125,0,0,0,95.1,45.8Zm6.246-1.185a65.216,65.216,0,0,1,2.209,9.368l-3.662.54a49.3,49.3,0,0,0-3.5-9.047Zm-2.154-31.769v7.539a39.694,39.694,0,0,0,1.453-6.191l2.8.914V12.312Zm0,8.024v2.1h4.255V16.082a39.66,39.66,0,0,1-2.156,5.061Zm8.13,22.453a58.1,58.1,0,0,1,1.993,8.776l-3.447.538a47.833,47.833,0,0,0-3.392-8.453ZM136.4,29.7v25.63h-6.354v-3.77h-8.721v3.77h-6.354V29.7h6.837V5.258h6.569v9.315h10.286V19.1H128.375V29.7Zm-15.075,17.23h8.723v-12.6h-8.723Z" transform="translate(72.214 4.332)" fill="#1f89cd"/>
      <path id="Path_24" data-name="Path 24" d="M57.64,41.993l-14.1-25.5-13.756,25.5Z" transform="translate(24.532 13.588)" fill="#0e8dd1"/>
      <path id="Path_25" data-name="Path 25" d="M51.434,0,0,93.005H24.4L63.151,21.186Z" transform="translate(0 0.001)" fill="#ffb100"/>
      <path id="Path_26" data-name="Path 26" d="M34.288,35.167,18.711,64.038H87.456L71.489,35.167Z" transform="translate(15.413 28.968)" fill="#0e8dd1"/>
      <path id="Path_27" data-name="Path 27" d="M34.288,35.167,18.711,64.038H87.456L71.489,35.167Z" transform="translate(15.413 28.968)" fill="#1f89cd"/>
      <path id="Path_28" data-name="Path 28" d="M43.539,16.5l-13.756,25.5H57.639Z" transform="translate(24.532 13.588)" fill="#1f89cd"/>
      <path id="Path_29" data-name="Path 29" d="M158.767,34.506c-2.167,0-7.238,0-7.238-10.018,0-9.95,5.356-9.95,7.373-9.95,4.758,0,7.171,3.348,7.171,9.95,0,10.018-5.119,10.018-7.306,10.018" transform="translate(124.814 11.976)" fill="#ffb100"/>
    </g>
  </g>
</svg>
