<svg xmlns="http://www.w3.org/2000/svg" xmlns:xlink="http://www.w3.org/1999/xlink" width="228" height="41.988" viewBox="0 0 228 41.988">
  <defs>
    <clipPath id="clip-path">
      <rect id="Rectangle_1" data-name="Rectangle 1" width="228" height="41.988" fill="none"/>
    </clipPath>
  </defs>
  <g id="logo" transform="translate(0 0)">
    <g id="Group_1" data-name="Group 1" transform="translate(0 0)" clip-path="url(#clip-path)">
      <path id="Path_1" data-name="Path 1" d="M209.209,42.4a23.7,23.7,0,0,1-1.764,3.452l-1.025-.5a18.081,18.081,0,0,0,1.221-3.541Zm4.506-5.968H206.9v-1.2h2.8a15.082,15.082,0,0,0-.753-1.356l1.778-.392a14.307,14.307,0,0,1,.452,1.748h2.532Zm-.482.874v4.085h-1.869v4.385a1.312,1.312,0,0,1-.452,1.116,2.268,2.268,0,0,1-1.372.346,6.75,6.75,0,0,1-1.281-.106l-.286-1.461a4.836,4.836,0,0,0,.994.105.627.627,0,0,0,.452-.136.391.391,0,0,0,.136-.316V41.394h-2.1V37.309Zm-1.779,1.206h-2.215v1.673h2.215Zm5.11-.6c-.091,4.355-1.161,7.55-3.2,9.554l-1.04-.633a11.2,11.2,0,0,0,1.206-2.034l-.814.225a18.918,18.918,0,0,0-1.116-2.787l1.432-.512a16.762,16.762,0,0,1,.693,2.591,18.538,18.538,0,0,0,1.086-6.4h-1.176v-1.3h1.19V33.5h1.748v3.119h3.888v1.3h-1.657v7.55c0,.2.06.3.2.3h.287a.266.266,0,0,0,.241-.18,2.516,2.516,0,0,0,.121-.874c.015-.468,0-1.01-.014-1.6l1.236.513a18.913,18.913,0,0,1-.046,1.99,2.774,2.774,0,0,1-.332,1.16.893.893,0,0,1-.858.407h-1.387a1.064,1.064,0,0,1-1.22-1.191V37.912Zm1.9-4.114a16.468,16.468,0,0,1,1.145,2.05l-.995.543a11.788,11.788,0,0,0-1.657-1.778Z" transform="translate(-40.27 -6.531)" fill="#1f89cd"/>
      <path id="Path_2" data-name="Path 2" d="M226.648,40.553h13.382v1.236h-5.516v1.356h4.928v1.236h-4.928v1.6l.693.014c1.793-.014,3.556-.06,5.3-.15l-.3,1.387c-1.522.074-3.15.1-4.9.1q-1.515,0-2.441-.09a5.515,5.515,0,0,1-3.616-1.96,15.163,15.163,0,0,1-1.99,2.366l-1.054-.662a13.15,13.15,0,0,0,2.742-4.823l1.7.528c-.2.467-.422.934-.663,1.386a4.755,4.755,0,0,0,2.622,1.733V41.789h-5.968Zm12.041-.949H228.26V34.345h10.428Zm-8.59-3.135h6.752v-1.01H230.1Zm6.752,1.085H230.1v.935h6.752Z" transform="translate(-44.131 -6.7)" fill="#1f89cd"/>
      <path id="Path_3" data-name="Path 3" d="M247.513,37.244h-1.492V35.978h1.7c.106-.889.2-1.793.241-2.683l1.914.061c-.136.9-.271,1.778-.423,2.622h2.593v1.266a16.708,16.708,0,0,1-1.492,6.163l-.045.09c.588.573,1.206,1.221,1.854,1.929l-.889.829a21.182,21.182,0,0,0-1.7-1.6,10.557,10.557,0,0,1-3.165,2.757l-.815-.964a8.794,8.794,0,0,0,2.849-2.713q-1.107-.858-2.351-1.673a31.8,31.8,0,0,0,1.22-4.822m1.673,0a33.959,33.959,0,0,1-1.22,4.159,14.537,14.537,0,0,1,1.372,1.04,17.092,17.092,0,0,0,1.025-5.2Zm3.467-2.894h6.721v1.265a10.454,10.454,0,0,1-2.23,2.5v1.643h2.894v1.3h-2.894v4.673a1.388,1.388,0,0,1-.482,1.175,2.813,2.813,0,0,1-1.643.361,9.663,9.663,0,0,1-1.673-.135l-.3-1.523a10.729,10.729,0,0,0,1.432.122.925.925,0,0,0,.633-.151.787.787,0,0,0,.166-.527V41.056h-3.166v-1.3h3.166V37.847h.316a10.822,10.822,0,0,0,1.748-2.231h-4.686Z" transform="translate(-47.951 -6.495)" fill="#1f89cd"/>
      <path id="Path_4" data-name="Path 4" d="M267.473,44.775a13.083,13.083,0,0,1-.889,2.622l-1.055-.151a17.526,17.526,0,0,0,.527-2.682Zm5.471-1.628a66.442,66.442,0,0,1-6.9,1.13l-.121-1.657c.889-.03,1.748-.076,2.592-.121V41.475h-2.457v-1.2h2.457V39.26h-2.4V34.075h6.63V39.26h-2.457v1.01H272.7v1.2h-2.411v.9c.874-.076,1.733-.151,2.563-.241Zm-4.25-7.9H267.5v.618l.738-.225a9.51,9.51,0,0,1,.452,1.642Zm0,2.834v-.558l-.633.151a9.745,9.745,0,0,0-.558-1.431v1.838Zm.332,6.389a17.365,17.365,0,0,1,.467,2.608l-1.055.121a14.9,14.9,0,0,0-.828-2.577Zm1.748-.331a18.33,18.33,0,0,1,.617,2.622l-1.025.151a13.8,13.8,0,0,0-.98-2.532Zm-.6-8.892v2.11a11.283,11.283,0,0,0,.407-1.733l.783.256v-.633Zm0,2.246v.588h1.19V36.306a11.192,11.192,0,0,1-.6,1.417Zm2.275,6.285A16.245,16.245,0,0,1,273,46.238l-.964.15a13.377,13.377,0,0,0-.949-2.366Zm6.721-3.662v7.173h-1.779V46.238h-2.441v1.054h-1.779V40.119h1.914V33.277h1.838v2.607H279.8V37.15h-2.879v2.969Zm-4.219,4.823h2.441V41.415h-2.441Z" transform="translate(-51.801 -6.491)" fill="#1f89cd"/>
      <line id="Line_1" data-name="Line 1" y2="36.558" transform="translate(159.355 4.503)" fill="none" stroke="#1f89cd" stroke-miterlimit="10" stroke-width="1.4"/>
      <path id="Path_5" data-name="Path 5" d="M121.739,7.554h5.407c6.538,0,9.379,1.793,9.379,7.034s-2.841,7.035-9.352,7.035h-2.234v5.9h-3.2ZM127.615,18.7c3.78,0,5.655-.883,5.655-4.165,0-3.255-1.875-4.138-5.655-4.138h-2.676v8.3Z" transform="translate(-23.75 -1.473)" fill="#1f89cd"/>
      <path id="Path_6" data-name="Path 6" d="M143.847,17.514c0-7.117,4.442-10.234,9.434-10.234,4.911,0,9.407,3.117,9.407,10.234,0,7.255-4.469,10.262-9.462,10.262s-9.38-3.007-9.38-10.262m15.641,0c0-4.607-2.428-7.338-6.207-7.338-3.862,0-6.29,2.7-6.29,7.338,0,4.717,2.345,7.366,6.235,7.366,3.861,0,6.261-2.649,6.261-7.366" transform="translate(-28.063 -1.42)" fill="#1f89cd"/>
      <path id="Path_7" data-name="Path 7" d="M170.616,22.322l3.007-.607a5.278,5.278,0,0,0,5.268,3.228c2.758,0,4.331-1.1,4.331-3.007,0-4.717-11.752-1.434-11.752-9.131,0-3.338,2.814-5.628,6.925-5.628,4.055,0,6.785,1.793,7.807,5.131l-2.924.58a4.744,4.744,0,0,0-4.8-2.869c-2.482,0-3.917,1.048-3.917,2.786,0,4.966,11.806,1.324,11.806,9.131,0,3.5-2.924,5.793-7.448,5.793-4.165,0-7.283-1.986-8.3-5.407" transform="translate(-33.285 -1.4)" fill="#1f89cd"/>
      <path id="Path_8" data-name="Path 8" d="M67.506,41.512h1.9c2.3,0,3.176.736,3.176,2.527s-.881,2.5-3.141,2.5h-.5v1.8H67.506Zm2.152,3.716c1.017,0,1.461-.34,1.461-1.217S70.674,42.8,69.658,42.8H68.94v2.424Z" transform="translate(-13.169 -8.098)" fill="#1f89cd"/>
      <path id="Path_9" data-name="Path 9" d="M74.757,45.966a2.685,2.685,0,1,1,5.364,0,2.685,2.685,0,1,1-5.364,0m3.994,0c0-1.009-.545-1.613-1.317-1.613s-1.306.594-1.306,1.613.544,1.623,1.316,1.623,1.307-.6,1.307-1.623" transform="translate(-14.584 -8.42)" fill="#1f89cd"/>
      <path id="Path_10" data-name="Path 10" d="M81.973,43.293h1.489l1.225,3.726,1.161-3.726H86.9l1.153,3.726,1.225-3.726h1.506l-2.015,5.4H87.427L86.375,45.2l-1.062,3.49H83.961Z" transform="translate(-15.992 -8.446)" fill="#1f89cd"/>
      <path id="Path_11" data-name="Path 11" d="M93.372,45.966a2.607,2.607,0,0,1,2.659-2.8c1.716,0,2.723,1.245,2.56,3.132H94.752a1.284,1.284,0,0,0,1.361,1.387,1.146,1.146,0,0,0,1.171-.67l1.262.16a2.373,2.373,0,0,1-2.469,1.594,2.593,2.593,0,0,1-2.7-2.8m3.957-.613a1.19,1.19,0,0,0-1.261-1.179,1.216,1.216,0,0,0-1.289,1.179Z" transform="translate(-18.216 -8.42)" fill="#1f89cd"/>
      <path id="Path_12" data-name="Path 12" d="M101.332,43.272h1.38v.811a1.5,1.5,0,0,1,1.752-.877l-.137,1.358c-1.034-.2-1.615.3-1.615,1.557v2.547h-1.38Z" transform="translate(-19.768 -8.425)" fill="#1f89cd"/>
      <path id="Path_13" data-name="Path 13" d="M111.021,47.377v.877h-1.38v-7.14h1.38v2.659a1.727,1.727,0,0,1,1.652-1.009c1.288,0,2.305.99,2.305,2.8s-1.017,2.82-2.3,2.82a1.755,1.755,0,0,1-1.661-1.009m2.577-1.811c0-1.009-.535-1.613-1.316-1.613-.762,0-1.307.594-1.307,1.613s.545,1.623,1.317,1.623,1.306-.6,1.306-1.623" transform="translate(-21.389 -8.02)" fill="#1f89cd"/>
      <path id="Path_14" data-name="Path 14" d="M118.93,48.661l-2.152-5.367h1.507l1.38,3.83,1.371-3.83h1.516l-2.841,7.14h-1.516Z" transform="translate(-22.782 -8.446)" fill="#1f89cd"/>
      <path id="Path_15" data-name="Path 15" d="M132.138,47.153h-2.814l-.418,1.189H127.4l2.6-6.829h1.453l2.614,6.829h-1.516Zm-.382-1.094-1.025-2.924L129.7,46.059Z" transform="translate(-24.854 -8.098)" fill="#1f89cd"/>
      <path id="Path_16" data-name="Path 16" d="M136.533,43.272h1.38v.811a1.5,1.5,0,0,1,1.752-.877l-.137,1.358c-1.034-.2-1.615.3-1.615,1.557v2.547h-1.38Z" transform="translate(-26.636 -8.425)" fill="#1f89cd"/>
      <path id="Path_17" data-name="Path 17" d="M141.767,46.23V44.07h-.736V42.985h.736v-.972l1.388-.3v1.273h1.416V44.07h-1.416V46.1c0,.915.254,1.236.935,1.236a2.958,2.958,0,0,0,.417-.047l.182,1.085a3.736,3.736,0,0,1-.836.094c-1.416,0-2.087-.594-2.087-2.235" transform="translate(-27.513 -8.137)" fill="#1f89cd"/>
      <path id="Path_18" data-name="Path 18" d="M146.68,43.272h1.38v.811a1.5,1.5,0,0,1,1.752-.877l-.137,1.358c-1.034-.2-1.615.3-1.615,1.557v2.547h-1.38Z" transform="translate(-28.615 -8.425)" fill="#1f89cd"/>
      <path id="Path_19" data-name="Path 19" d="M151.517,41.348a.709.709,0,0,1,.79-.726.729.729,0,1,1,0,1.453.714.714,0,0,1-.79-.727m.1,1.425h1.371v5.4h-1.371Z" transform="translate(-29.559 -7.924)" fill="#1f89cd"/>
      <path id="Path_20" data-name="Path 20" d="M156.426,47.377v.877h-1.38v-7.14h1.38v2.659a1.727,1.727,0,0,1,1.652-1.009c1.288,0,2.305.99,2.305,2.8s-1.017,2.82-2.3,2.82a1.755,1.755,0,0,1-1.661-1.009M159,45.566c0-1.009-.535-1.613-1.316-1.613-.762,0-1.307.594-1.307,1.613s.545,1.623,1.317,1.623,1.306-.6,1.306-1.623" transform="translate(-30.247 -8.02)" fill="#1f89cd"/>
      <path id="Path_21" data-name="Path 21" d="M163.131,43.272h1.38v.811a1.5,1.5,0,0,1,1.752-.877l-.137,1.358c-1.034-.2-1.615.3-1.615,1.557v2.547h-1.38Z" transform="translate(-31.825 -8.425)" fill="#1f89cd"/>
      <path id="Path_22" data-name="Path 22" d="M60.736,11.514H58.383v-2h2.686c.167-1.4.307-2.828.38-4.231l3.018.095c-.213,1.426-.427,2.805-.665,4.136h4.087v2a26.357,26.357,0,0,1-2.353,9.72l-.071.142c.926.9,1.9,1.925,2.923,3.042l-1.4,1.307A34.53,34.53,0,0,0,64.3,23.206a16.666,16.666,0,0,1-4.991,4.349l-1.283-1.52a13.873,13.873,0,0,0,4.491-4.278Q60.771,20.4,58.81,19.119a50.113,50.113,0,0,0,1.926-7.6m2.638,0a53.7,53.7,0,0,1-1.925,6.559,22.483,22.483,0,0,1,2.163,1.64,26.948,26.948,0,0,0,1.615-8.2ZM68.84,6.951h10.6v2a16.478,16.478,0,0,1-3.518,3.945v2.591h4.563v2.044H75.921v7.367a2.188,2.188,0,0,1-.761,1.854,4.438,4.438,0,0,1-2.59.57,15.3,15.3,0,0,1-2.638-.213l-.475-2.4a16.914,16.914,0,0,0,2.258.191,1.45,1.45,0,0,0,1-.238,1.227,1.227,0,0,0,.262-.831v-6.3h-4.99V15.483h4.99V12.464h.5a17.066,17.066,0,0,0,2.758-3.517H68.84Z" transform="translate(-11.32 -1.031)" fill="#1f89cd"/>
      <path id="Path_23" data-name="Path 23" d="M90.735,23.391a20.7,20.7,0,0,1-1.4,4.136l-1.663-.238a27.941,27.941,0,0,0,.831-4.23Zm8.627-2.566a105.276,105.276,0,0,1-10.885,1.782l-.19-2.614c1.4-.047,2.757-.119,4.088-.19V18.187H88.5v-1.9h3.874V14.693H88.6V6.518H99.053v8.176H95.179v1.592h3.8v1.9h-3.8v1.426c1.379-.119,2.733-.237,4.041-.381ZM92.66,8.371H90.783v.975l1.165-.357a14.915,14.915,0,0,1,.712,2.59Zm0,4.468v-.879l-1,.237a15.342,15.342,0,0,0-.88-2.258v2.9Zm.523,10.077a27.346,27.346,0,0,1,.737,4.112l-1.664.19a23.448,23.448,0,0,0-1.308-4.064Zm2.757-.523a28.783,28.783,0,0,1,.975,4.135l-1.616.238a21.762,21.762,0,0,0-1.545-3.993ZM94.989,8.371V11.7a17.52,17.52,0,0,0,.642-2.733l1.236.4v-1Zm0,3.542v.926h1.878v-2.8a17.5,17.5,0,0,1-.951,2.234Zm3.588,9.91a25.644,25.644,0,0,1,.88,3.873l-1.521.237a21.111,21.111,0,0,0-1.5-3.731Zm10.6-5.775V27.36h-2.8V25.7h-3.849V27.36h-2.8V16.048h3.018V5.258h2.9V9.37h4.54v2h-4.54v4.682Zm-6.653,7.6h3.85V18.092h-3.85Z" transform="translate(-17.103 -1.025)" fill="#1f89cd"/>
      <path id="Path_24" data-name="Path 24" d="M42.078,27.749,35.854,16.5,29.783,27.749Z" transform="translate(-5.81 -3.218)" fill="#0e8dd1"/>
      <path id="Path_25" data-name="Path 25" d="M22.7,0,0,41.049H10.772l17.1-31.7Z" transform="translate(0 0)" fill="#ffb100"/>
      <path id="Path_26" data-name="Path 26" d="M25.586,35.167,18.711,47.909H49.053L42.006,35.167Z" transform="translate(-3.65 -6.86)" fill="#0e8dd1"/>
      <path id="Path_27" data-name="Path 27" d="M25.586,35.167,18.711,47.909H49.053L42.006,35.167Z" transform="translate(-3.65 -6.86)" fill="#1f89cd"/>
      <path id="Path_28" data-name="Path 28" d="M35.854,16.5,29.782,27.749h12.3Z" transform="translate(-5.81 -3.218)" fill="#1f89cd"/>
      <path id="Path_29" data-name="Path 29" d="M154.724,23.351c-.956,0-3.195,0-3.195-4.421,0-4.392,2.364-4.392,3.254-4.392,2.1,0,3.165,1.478,3.165,4.392,0,4.421-2.259,4.421-3.225,4.421" transform="translate(-29.561 -2.836)" fill="#ffb100"/>
    </g>
  </g>
</svg>
