<svg xmlns="http://www.w3.org/2000/svg" width="139" height="109" viewBox="0 0 139 109">
  <g id="logo-google-pay" transform="translate(-26 -168)">
    <g id="Google_Pay-Logo.wine" transform="translate(55 207)">
      <path id="Path_127" data-name="Path 127" d="M193.073,23.783v9.38H190.1V10h7.892A7.136,7.136,0,0,1,203.1,12a6.447,6.447,0,0,1,2.135,4.889,6.417,6.417,0,0,1-2.135,4.916,7.114,7.114,0,0,1-5.11,1.972h-4.916Zm0-10.933v8.086h4.99a4.006,4.006,0,0,0,2.944-6.859,3.881,3.881,0,0,0-2.944-1.229h-4.99ZM212.091,16.8a7.379,7.379,0,0,1,5.208,1.763,6.251,6.251,0,0,1,1.907,4.835v9.768h-2.846v-2.2h-.129a5.684,5.684,0,0,1-4.916,2.717,6.392,6.392,0,0,1-4.382-1.553,4.957,4.957,0,0,1-1.763-3.881,4.707,4.707,0,0,1,1.859-3.913,7.862,7.862,0,0,1,4.964-1.456,8.787,8.787,0,0,1,4.366.97v-.68a3.388,3.388,0,0,0-1.229-2.634,4.214,4.214,0,0,0-2.872-1.085,4.555,4.555,0,0,0-3.946,2.1L205.691,19.9a7.294,7.294,0,0,1,6.4-3.105Zm-3.85,11.515a2.377,2.377,0,0,0,.987,1.941,3.63,3.63,0,0,0,2.312.776,4.745,4.745,0,0,0,3.347-1.39,4.348,4.348,0,0,0,1.479-3.266,6.078,6.078,0,0,0-3.881-1.109,5.031,5.031,0,0,0-3.024.874,2.607,2.607,0,0,0-1.22,2.174Zm27.3-11L225.61,40.149h-3.072l3.687-7.99-6.534-14.845h3.234L227.648,28.7h.065l4.593-11.385Z" transform="translate(-154.962 -8.149)" fill="#5f6368"/>
      <path id="Path_128" data-name="Path 128" d="M84.776,61.711A15.856,15.856,0,0,0,84.547,59H72V64.13h7.188a6.16,6.16,0,0,1-2.658,4.044V71.5h4.29A13.014,13.014,0,0,0,84.776,61.711Z" transform="translate(-58.69 -48.099)" fill="#4285f4"/>
      <path id="Path_129" data-name="Path 129" d="M19.557,96.546a12.736,12.736,0,0,0,8.82-3.212l-4.29-3.327a8.071,8.071,0,0,1-12-4.221H7.667v3.429a13.308,13.308,0,0,0,11.89,7.332Z" transform="translate(-6.25 -69.929)" fill="#34a853"/>
      <path id="Path_130" data-name="Path 130" d="M5.837,48.2a7.973,7.973,0,0,1,0-5.094V39.675H1.417a13.308,13.308,0,0,0,0,11.951Z" transform="translate(0 -32.342)" fill="#fbbc04"/>
      <path id="Path_131" data-name="Path 131" d="M19.558,5.269a7.225,7.225,0,0,1,5.1,2l3.8-3.8A12.786,12.786,0,0,0,19.558,0,13.307,13.307,0,0,0,7.668,7.333l4.419,3.429a7.96,7.96,0,0,1,7.471-5.493Z" transform="translate(-6.251 0)" fill="#ea4335"/>
    </g>
    <rect id="Rectangle_204" data-name="Rectangle 204" width="139" height="109" transform="translate(26 168)" fill="none"/>
  </g>
</svg>
