<svg xmlns="http://www.w3.org/2000/svg" xmlns:xlink="http://www.w3.org/1999/xlink" width="139" height="109" viewBox="0 0 139 109">
  <defs>
    <clipPath id="clip-path">
      <rect id="Rectangle_185" data-name="Rectangle 185" width="85.78" height="25" fill="none"/>
    </clipPath>
  </defs>
  <g id="logo-line-pay" transform="translate(-374 -179)">
    <g id="Group_131" data-name="Group 131" transform="translate(401 221)">
      <g id="Group_130" data-name="Group 130" transform="translate(0 0)" clip-path="url(#clip-path)">
        <path id="Path_132" data-name="Path 132" d="M29.024,12.716H26.937a.58.58,0,0,0-.58.58V26.285a.58.58,0,0,0,.58.58h2.087a.58.58,0,0,0,.58-.58V13.3a.58.58,0,0,0-.58-.58" transform="translate(-15.108 -7.289)"/>
        <path id="Path_133" data-name="Path 133" d="M8.872,23.617H3.247V13.3a.58.58,0,0,0-.58-.58H.58A.58.58,0,0,0,0,13.3V26.285a.58.58,0,0,0,.58.58H8.872a.58.58,0,0,0,.58-.58V24.2a.58.58,0,0,0-.58-.58" transform="translate(0 -7.289)"/>
        <path id="Path_134" data-name="Path 134" d="M81.559,15.963a.58.58,0,0,0,.58-.58V13.3a.58.58,0,0,0-.58-.58H73.267a.58.58,0,0,0-.58.58V26.285a.58.58,0,0,0,.58.58h8.292a.58.58,0,0,0,.58-.58V24.2a.58.58,0,0,0-.58-.58H75.934v-2.2h5.625a.58.58,0,0,0,.58-.58V18.746a.58.58,0,0,0-.58-.58H75.934v-2.2Z" transform="translate(-41.664 -7.289)"/>
        <path id="Path_135" data-name="Path 135" d="M50.667,12.713H48.58a.58.58,0,0,0-.58.58v7.515L42.537,13a.721.721,0,0,0-.642-.285.59.59,0,0,0-.1,0H39.708a.58.58,0,0,0-.58.58V26.281a.58.58,0,0,0,.58.58H41.8a.58.58,0,0,0,.58-.58v-7.85l5.7,8.144a.728.728,0,0,0,.067.081.582.582,0,0,0,.4.205h2.128a.58.58,0,0,0,.58-.58V13.293a.58.58,0,0,0-.58-.58" transform="translate(-22.428 -7.285)"/>
        <path id="Path_136" data-name="Path 136" d="M146.01,0H109.053A1.449,1.449,0,0,0,107.6,1.449v22.1A1.45,1.45,0,0,0,109.053,25H146.01a1.45,1.45,0,0,0,1.449-1.449V1.449A1.449,1.449,0,0,0,146.01,0" transform="translate(-61.679 0)" fill="#08bf5b"/>
        <path id="Path_137" data-name="Path 137" d="M129.962,17.52a3.973,3.973,0,0,1-4.046,3.963h-1.734v3.244a.389.389,0,0,1-.389.389h-1.864a.389.389,0,0,1-.389-.389V13.946a.389.389,0,0,1,.389-.389h3.987a3.973,3.973,0,0,1,4.046,3.963m-2.642,0a1.413,1.413,0,0,0-1.4-1.486h-1.734v2.972h1.734a1.413,1.413,0,0,0,1.4-1.486" transform="translate(-69.667 -7.771)" fill="#fff"/>
        <path id="Path_138" data-name="Path 138" d="M152.327,21.19v7.847a.2.2,0,0,1-.2.2h-2.067a.2.2,0,0,1-.2-.2v-.571a3.1,3.1,0,0,1-2.46,1.007,4.146,4.146,0,0,1-3.947-4.359,4.146,4.146,0,0,1,3.947-4.359,3.1,3.1,0,0,1,2.46,1.007V21.19a.2.2,0,0,1,.2-.2h2.067a.2.2,0,0,1,.2.2m-2.477,3.924a1.966,1.966,0,1,0-3.93,0,1.966,1.966,0,1,0,3.93,0" transform="translate(-82.222 -11.896)" fill="#fff"/>
        <path id="Path_139" data-name="Path 139" d="M174.849,21.51l-1.9,4.788-1.965-4.792a.341.341,0,0,0-.316-.212h-2.108a.205.205,0,0,0-.19.283l3.28,7.995-1.2,3.01a.2.2,0,0,0,.19.28h2.109a.342.342,0,0,0,.317-.215l4.4-11.072a.2.2,0,0,0-.19-.28h-2.109a.341.341,0,0,0-.317.216" transform="translate(-96.501 -12.206)" fill="#fff"/>
      </g>
    </g>
    <rect id="Rectangle_202" data-name="Rectangle 202" width="139" height="109" transform="translate(374 179)" fill="none"/>
  </g>
</svg>
