<svg xmlns="http://www.w3.org/2000/svg" xmlns:xlink="http://www.w3.org/1999/xlink" width="74" height="54" viewBox="0 0 74 54">
  <defs>
    <clipPath id="clip-path">
      <rect id="Rectangle_192" data-name="Rectangle 192" width="45" height="45.014" fill="#f72a81"/>
    </clipPath>
  </defs>
  <g id="logo-foodpanda" transform="translate(-4252 -395)">
    <rect id="Rectangle_206" data-name="Rectangle 206" width="74" height="54" rx="5" transform="translate(4252 395)" fill="#f72a81"/>
    <g id="Group_154" data-name="Group 154" transform="translate(3212 186)">
      <rect id="Rectangle_194" data-name="Rectangle 194" width="38.086" height="37.084" transform="translate(1059 216)" fill="#fff"/>
      <g id="Group_149" data-name="Group 149" transform="translate(1055 213.035)">
        <g id="Group_148" data-name="Group 148" clip-path="url(#clip-path)">
          <path id="Path_152" data-name="Path 152" d="M22.48,45.009c-4.42,0-8.84.015-13.26,0A9.426,9.426,0,0,1,.072,36.782,10.407,10.407,0,0,1,0,35.606Q0,22.483,0,9.361A9.465,9.465,0,0,1,7.776.169,11.42,11.42,0,0,1,9.653.008Q22.5-.007,35.347,0a9.492,9.492,0,0,1,9.537,7.951,7.324,7.324,0,0,1,.111,1.29Q45,22.385,45,35.527a9.456,9.456,0,0,1-5.926,8.821,8.5,8.5,0,0,1-3.254.662q-6.669-.006-13.339,0M15.088,7.288c-.072-.089-.159-.2-.251-.313a4.431,4.431,0,0,0-3.12-1.631,4.5,4.5,0,0,0-3.6,7.608.39.39,0,0,1,.064.589,16.658,16.658,0,0,0-2.312,12.7A17.009,17.009,0,1,0,36.806,13.51a.346.346,0,0,1,.052-.526A4.322,4.322,0,0,0,38.15,9.712a4.5,4.5,0,0,0-8.026-2.673.44.44,0,0,1-.642.157,16.721,16.721,0,0,0-11.1-.983c-1.1.276-2.162.7-3.29,1.075" transform="translate(0 0)" fill="#f72a81"/>
          <path id="Path_153" data-name="Path 153" d="M122.069,189.862a6.319,6.319,0,0,1,7.053-6.224,2.846,2.846,0,0,1,2.435,1.855,2.342,2.342,0,0,1-.375,2.509c-.624.776-1.265,1.539-1.864,2.334a8.244,8.244,0,0,0-1.5,3,3.7,3.7,0,0,1-.278.733,1.812,1.812,0,0,1-2.417.906,4.857,4.857,0,0,1-2.348-2.288,5.694,5.694,0,0,1-.705-2.828m7.549-2.558a.915.915,0,1,0-1.83,0,.915.915,0,0,0,1.83,0" transform="translate(-112.461 -169.142)" fill="#f72a81"/>
          <path id="Path_154" data-name="Path 154" d="M335.277,189.8a5.9,5.9,0,0,1-2.2,4.67,2.414,2.414,0,0,1-1.876.647,1.632,1.632,0,0,1-1.3-.838,3.381,3.381,0,0,1-.355-.826,9.791,9.791,0,0,0-1.956-3.686c-.393-.507-.8-1.009-1.226-1.485a2.483,2.483,0,0,1-.6-2.75,2.814,2.814,0,0,1,2.374-1.876,6.306,6.306,0,0,1,7.049,5.282c.05.309.067.624.091.862m-6.375-1.578a.915.915,0,0,0,.913-.892.916.916,0,1,0-1.831.007.913.913,0,0,0,.918.885" transform="translate(-299.947 -169.154)" fill="#f72a81"/>
          <path id="Path_155" data-name="Path 155" d="M241.391,344.277c.093,1.893-1.854,3.566-4.107,3.566s-4.2-1.68-4.1-3.566Z" transform="translate(-214.824 -317.181)" fill="#f72a81"/>
          <path id="Path_156" data-name="Path 156" d="M110.12,86.5a17.711,17.711,0,0,0-4.7,4.079,3.131,3.131,0,0,1,1.435-5.324A3.108,3.108,0,0,1,110.12,86.5" transform="translate(-96.222 -78.468)" fill="#f72a81"/>
          <path id="Path_157" data-name="Path 157" d="M399.673,90.575a17.878,17.878,0,0,0-4.727-4.094,3.14,3.14,0,1,1,4.727,4.094" transform="translate(-363.862 -78.462)" fill="#f72a81"/>
          <path id="Path_158" data-name="Path 158" d="M250.883,292.026c.748.124,1.519.2,2.262.39.725.183.844.577.374,1.148a4.066,4.066,0,0,1-2.609,1.4,2.072,2.072,0,0,1-1.152-.321,6.474,6.474,0,0,1-1.486-1c-.587-.568-.448-1.05.337-1.244.731-.181,1.491-.25,2.274-.374" transform="translate(-228.398 -269.042)" fill="#f72a81"/>
        </g>
      </g>
    </g>
  </g>
</svg>
