<svg xmlns="http://www.w3.org/2000/svg" width="139" height="109" viewBox="0 0 139 109">
  <g id="logo-samsung-pay" transform="translate(-374 -22)">
    <g id="Samsung_Pay-Logo.wine" transform="translate(505 51)">
      <path id="Path_124" data-name="Path 124" d="M192.134,39.2V22.941h2.621v1.194a3.173,3.173,0,0,1,1.626-1.194,5.071,5.071,0,0,1,1.725-.265,5.8,5.8,0,0,1,4.247,1.792,6.37,6.37,0,0,1,.033,8.726,5.818,5.818,0,0,1-1.924,1.36,5.6,5.6,0,0,1-2.256.464,5.53,5.53,0,0,1-1.825-.3,3.458,3.458,0,0,1-1.659-1.127v5.64h-2.588V39.2Zm5.873-14.233a3.229,3.229,0,0,0-2.455,1,4,4,0,0,0-.962,2.82,4.345,4.345,0,0,0,.929,2.919,3.523,3.523,0,0,0,4.944-.033,3.888,3.888,0,0,0,1.029-2.754,4.049,4.049,0,0,0-1.029-2.886A3.252,3.252,0,0,0,198.007,24.965Zm21.2-2.024h2.754l3.583,8.361,3.351-8.361h2.754L224.781,39.2h-2.721l2.19-5.143Zm-4.18,11.845V33.558a3.246,3.246,0,0,1-1.659,1.128,5.686,5.686,0,0,1-1.825.3,5.6,5.6,0,0,1-2.256-.464,5.828,5.828,0,0,1-1.925-1.36,6.168,6.168,0,0,1-1.261-1.991,6.311,6.311,0,0,1-.464-2.322,6.136,6.136,0,0,1,1.758-4.413,5.854,5.854,0,0,1,4.247-1.792,6.041,6.041,0,0,1,1.725.265,3.17,3.17,0,0,1,1.625,1.194V22.908h2.621V34.752h-2.588v.033Zm-5.74-8.792a4.1,4.1,0,0,0-1.029,2.886,3.889,3.889,0,0,0,1.029,2.754,3.326,3.326,0,0,0,2.422,1.029,3.255,3.255,0,0,0,2.522-1,4.127,4.127,0,0,0,.929-2.92,4.058,4.058,0,0,0-.962-2.82,3.33,3.33,0,0,0-2.455-1A3.446,3.446,0,0,0,209.287,25.993ZM177.569,24.6v9.92h-3.583l-2.455-8.162h-.066l.133,8.162h-2.455V24.6h3.716l2.322,7.864h.033l-.133-7.864ZM126.011,34.62l1.858-10.02h4.446l1.858,10.02h-2.687l-1.36-9.124h-.033L128.7,34.62Zm21.1-10.02.232,10.02h-2.522l-.066-9.025h-.066l-1.659,9.025h-2.555L138.817,25.6h-.066l-.066,9.025h-2.522L136.4,24.6h4.114l1.228,7.664h.033l1.261-7.664Zm15.693,8.494a.878.878,0,0,0,.962-.73,1.483,1.483,0,0,0,.033-.4V24.6h2.555v7.2c0,.2-.033.564-.033.664-.166,1.858-1.659,2.488-3.517,2.488s-3.318-.6-3.484-2.488c0-.1-.033-.464-.033-.664V24.6h2.555v7.432a1.618,1.618,0,0,0,.033.4.85.85,0,0,0,.929.664m-41.041-1.327a1.389,1.389,0,0,1,.033.73c-.1.332-.3.664-1,.664a.883.883,0,0,1-1-.9V31.3h-2.687v.763c0,2.256,1.758,2.92,3.65,2.92,1.825,0,3.318-.63,3.55-2.289a5.117,5.117,0,0,0,0-1.659c-.431-2.09-4.247-2.721-4.512-3.915a1.416,1.416,0,0,1,0-.531.823.823,0,0,1,.929-.664.846.846,0,0,1,.929.9v.63h2.488v-.7c0-2.19-1.957-2.522-3.384-2.522-1.792,0-3.251.6-3.517,2.223a3.8,3.8,0,0,0,.033,1.36c.4,2.09,3.981,2.654,4.479,3.948m32.614,0a1.379,1.379,0,0,1,.033.73c-.066.332-.3.664-.962.664a.883.883,0,0,1-1-.9V31.3H149.8v.763c0,2.223,1.758,2.887,3.616,2.887,1.792,0,3.285-.6,3.517-2.256a4.842,4.842,0,0,0,0-1.626c-.431-2.09-4.18-2.687-4.446-3.848a.955.955,0,0,1,0-.531.808.808,0,0,1,.9-.664.846.846,0,0,1,.929.9v.63H156.8v-.7c0-2.157-1.957-2.488-3.351-2.488-1.758,0-3.218.564-3.484,2.19A3.009,3.009,0,0,0,150,27.885c.365,2.024,3.882,2.588,4.379,3.882m29.362,1.227a.96.96,0,0,0,1.029-.73,1.365,1.365,0,0,0,.033-.366V30.439h-1.029v-1.46h3.55v2.687a5.375,5.375,0,0,1-.034.664c-.166,1.825-1.758,2.488-3.55,2.488-1.759,0-3.351-.664-3.517-2.488a5.427,5.427,0,0,1-.033-.664V27.453c0-.166.033-.5.033-.664.232-1.891,1.725-2.488,3.517-2.488s3.351.6,3.517,2.488c.033.3.033.664.033.664v.332h-2.522v-.564a2.488,2.488,0,0,0-.033-.4.891.891,0,0,0-1-.73.945.945,0,0,0-1,.73,2.02,2.02,0,0,0-.034.464v4.578a1.231,1.231,0,0,0,.034.365c0,.332.265.763,1,.763" transform="translate(-236.119 11.412)" fill="#211f1f"/>
      <g id="Group_129" data-name="Group 129" transform="translate(-75.537 0)">
        <path id="Path_125" data-name="Path 125" d="M27.743,9.8a11.781,11.781,0,0,0-2.886-6.669A11.781,11.781,0,0,0,18.188.246a24.214,24.214,0,0,0-4.18-.232,29.214,29.214,0,0,0-4.18.232A11.781,11.781,0,0,0,3.158,3.133,11.781,11.781,0,0,0,.272,9.8a26.991,26.991,0,0,0-.265,4.18,29.214,29.214,0,0,0,.232,4.18,11.782,11.782,0,0,0,2.886,6.669,11.781,11.781,0,0,0,6.669,2.886,24.239,24.239,0,0,0,4.18.233,29.251,29.251,0,0,0,4.18-.233,11.781,11.781,0,0,0,6.669-2.886,11.781,11.781,0,0,0,2.886-6.669,24.214,24.214,0,0,0,.232-4.18,21.959,21.959,0,0,0-.2-4.18" transform="translate(0 0)" fill="#1e4bc6"/>
        <path id="Path_126" data-name="Path 126" d="M15.519,29.842h2.522a2.751,2.751,0,0,1,1.062.2A2.68,2.68,0,0,1,20.5,31.435a2.757,2.757,0,0,1,0,2.057,2.447,2.447,0,0,1-.564.829,2.819,2.819,0,0,1-.829.564,2.635,2.635,0,0,1-1.062.2H16.912v2.09h-1.36V29.842Zm1.36,1.261v2.687h1.062a1.55,1.55,0,0,0,.564-.1,1.263,1.263,0,0,0,.431-.3,1.171,1.171,0,0,0,.265-.431,1.465,1.465,0,0,0,0-1.062,1.881,1.881,0,0,0-.265-.431,1.263,1.263,0,0,0-.431-.3,1.55,1.55,0,0,0-.564-.1H16.879Zm6.967,6.071a3,3,0,0,1-1.062-.2,3.323,3.323,0,0,1-.929-.564,3.16,3.16,0,0,1-.664-.929,3.319,3.319,0,0,1-.033-2.522,3.154,3.154,0,0,1,.664-.929,2.69,2.69,0,0,1,.929-.564,3.049,3.049,0,0,1,1.095-.2,2.635,2.635,0,0,1,1.062.2,2.45,2.45,0,0,1,.829.564v-.763H27.1v5.905h-1.36v-.829a2.291,2.291,0,0,1-.829.63,2.739,2.739,0,0,1-1.062.2m.232-1.227a1.539,1.539,0,0,0,.7-.133,2.054,2.054,0,0,0,.564-.365,1.9,1.9,0,0,0,.365-.531,1.725,1.725,0,0,0,0-1.327,1.516,1.516,0,0,0-.365-.531,1.656,1.656,0,0,0-.564-.365,1.347,1.347,0,0,0-.7-.166,1.733,1.733,0,0,0-.7.133,1.656,1.656,0,0,0-.564.365,1.389,1.389,0,0,0-.365.531,1.724,1.724,0,0,0,0,1.327,3.265,3.265,0,0,0,.365.564,2.062,2.062,0,0,0,.564.365,2.178,2.178,0,0,0,.7.133m4.91-4.645,1.659,4.015L32.174,31.3H33.6l-3.484,8.56H28.724l1.228-2.952L27.563,31.3Z" transform="translate(-10.37 -19.941)" fill="#fff"/>
      </g>
    </g>
    <rect id="Rectangle_201" data-name="Rectangle 201" width="139" height="109" transform="translate(374 22)" fill="none"/>
  </g>
</svg>
