<svg xmlns="http://www.w3.org/2000/svg" xmlns:xlink="http://www.w3.org/1999/xlink" width="139" height="109" viewBox="0 0 139 109">
  <defs>
    <clipPath id="clip-path">
      <rect id="Rectangle_183" data-name="Rectangle 183" width="73" height="34.462" fill="none"/>
    </clipPath>
  </defs>
  <g id="logo-apple-pay" transform="translate(-26 -22)">
    <g id="Group_128" data-name="Group 128" transform="translate(59 59)">
      <g id="Group_127" data-name="Group 127" clip-path="url(#clip-path)">
        <path id="Path_119" data-name="Path 119" d="M21.822,55.369c-.278.255-.559.508-.834.767a6.149,6.149,0,0,0-.818,8.388,4.982,4.982,0,0,0,2.119,1.754c.1.042.209.08.337.129-.116.315-.218.625-.343.927a16.14,16.14,0,0,1-2.953,4.79,7.12,7.12,0,0,1-.786.724,3.332,3.332,0,0,1-3.178.707c-.592-.173-1.178-.367-1.767-.549a6.848,6.848,0,0,0-1.862-.354,6.088,6.088,0,0,0-2.259.488,14.9,14.9,0,0,1-1.69.554,3.047,3.047,0,0,1-2.474-.572A7.353,7.353,0,0,1,3.44,71.2a19.675,19.675,0,0,1-2.9-6.053,14.049,14.049,0,0,1-.388-5.923,8.444,8.444,0,0,1,2.167-4.672A5.438,5.438,0,0,1,7.049,52.81a14.964,14.964,0,0,1,2.694.617c.369.107.746.188,1.12.283a2.946,2.946,0,0,0,1.577-.077c.728-.214,1.447-.455,2.173-.671a6.839,6.839,0,0,1,3.292-.2,6.228,6.228,0,0,1,3.537,2.14c.12.136.237.274.354.412a.289.289,0,0,1,.027.052" transform="translate(0 -46.485)" fill="#070303"/>
        <path id="Path_120" data-name="Path 120" d="M99.444,0a7.945,7.945,0,0,1,.039.91,6.511,6.511,0,0,1-1.85,4.147A4.93,4.93,0,0,1,95.9,6.312a6.07,6.07,0,0,1-1.815.324c-.009,0-.02-.01-.029-.015C94.14,3.038,95.948.72,99.444,0" transform="translate(-83.044)" fill="#070303"/>
        <path id="Path_121" data-name="Path 121" d="M252.216,33.049a34.336,34.336,0,0,1,5.686-.443c2.928,0,5.074.681,6.436,1.907a6.17,6.17,0,0,1,2.009,4.8,6.755,6.755,0,0,1-1.771,4.9,9.509,9.509,0,0,1-7.014,2.52,10.193,10.193,0,0,1-2.384-.2v9.194h-2.962Zm2.962,11.066a9.932,9.932,0,0,0,2.452.238c3.575,0,5.755-1.736,5.755-4.9,0-3.031-2.145-4.495-5.414-4.495a12.437,12.437,0,0,0-2.792.238Z" transform="translate(-222.692 -28.789)" fill="#070303"/>
        <path id="Path_122" data-name="Path 122" d="M385.656,102.983l-.238-2.077h-.1a6.138,6.138,0,0,1-5.039,2.452,4.7,4.7,0,0,1-5.039-4.733c0-3.984,3.541-6.163,9.909-6.129v-.341c0-1.362-.374-3.814-3.746-3.814a8.211,8.211,0,0,0-4.29,1.226l-.681-1.975a10.228,10.228,0,0,1,5.414-1.464c5.039,0,6.265,3.439,6.265,6.742v6.163a23.207,23.207,0,0,0,.272,3.95Zm-.443-8.411c-3.269-.068-6.98.511-6.98,3.712a2.652,2.652,0,0,0,2.826,2.86,4.1,4.1,0,0,0,3.984-2.758,3.127,3.127,0,0,0,.17-.953Z" transform="translate(-331.313 -76.046)" fill="#070303"/>
        <path id="Path_123" data-name="Path 123" d="M494.538,89.328l3.609,9.739c.375,1.09.783,2.384,1.056,3.371h.068c.306-.988.647-2.247,1.056-3.439l3.269-9.67h3.167l-4.495,11.747c-2.145,5.653-3.609,8.547-5.652,10.317a8.119,8.119,0,0,1-3.677,1.941l-.749-2.52a7.923,7.923,0,0,0,2.622-1.464,9.085,9.085,0,0,0,2.52-3.337,2.149,2.149,0,0,0,.238-.715,2.614,2.614,0,0,0-.2-.783l-6.1-15.187Z" transform="translate(-433.762 -78.871)" fill="#070303"/>
      </g>
    </g>
    <rect id="Rectangle_199" data-name="Rectangle 199" width="139" height="109" transform="translate(26 22)" fill="none"/>
  </g>
</svg>
