<svg xmlns="http://www.w3.org/2000/svg" width="74" height="54" viewBox="0 0 74 54">
  <g id="logo-linepay" transform="translate(-1102 -342)">
    <g id="logo-foodpanda" transform="translate(-3150 -53)">
      <rect id="Rectangle_206" data-name="Rectangle 206" width="74" height="54" rx="5" transform="translate(4252 395)" fill="#08bf5b"/>
    </g>
    <g id="Group_349" data-name="Group 349" transform="translate(594.536 -976.394)">
      <g id="Group_347" data-name="Group 347" transform="translate(529.55 1328.394)">
        <g id="Group_346" data-name="Group 346">
          <rect id="Rectangle_332" data-name="Rectangle 332" width="2.348" height="10.232" rx="1.174" transform="translate(8.135 0.002)" fill="#fff"/>
          <path id="Path_301" data-name="Path 301" d="M538.09,1336.282h-4.068v-7.464a.419.419,0,0,0-.419-.419h-1.51a.419.419,0,0,0-.419.419v9.393a.419.419,0,0,0,.419.419h6a.419.419,0,0,0,.419-.419v-1.51A.419.419,0,0,0,538.09,1336.282Z" transform="translate(-531.674 -1328.397)" fill="#fff"/>
          <path id="Path_302" data-name="Path 302" d="M604.4,1330.747a.419.419,0,0,0,.419-.42v-1.51a.419.419,0,0,0-.419-.419h-6a.419.419,0,0,0-.419.419v9.393a.419.419,0,0,0,.419.419h6a.419.419,0,0,0,.419-.419v-1.51a.419.419,0,0,0-.419-.419h-4.068v-1.594H604.4a.419.419,0,0,0,.419-.419v-1.509a.419.419,0,0,0-.419-.42h-4.068v-1.593Z" transform="translate(-575.554 -1328.397)" fill="#fff"/>
          <path id="Path_303" data-name="Path 303" d="M575.718,1328.4h-1.509a.419.419,0,0,0-.419.419v5.435l-3.95-5.649a.521.521,0,0,0-.465-.206.414.414,0,0,0-.072,0h-1.51a.419.419,0,0,0-.419.419v9.393a.419.419,0,0,0,.419.42h1.51a.419.419,0,0,0,.42-.42v-5.676l4.119,5.889a.509.509,0,0,0,.048.058.419.419,0,0,0,.29.148h1.539a.419.419,0,0,0,.42-.42v-9.393A.419.419,0,0,0,575.718,1328.4Z" transform="translate(-555.296 -1328.394)" fill="#fff"/>
        </g>
      </g>
      <g id="Group_348" data-name="Group 348" transform="translate(528.464 1342.049)">
        <path id="Path_304" data-name="Path 304" d="M558.912,1368.758h-29.3a1.149,1.149,0,0,0-1.149,1.149v17.522a1.149,1.149,0,0,0,1.149,1.149h29.3a1.149,1.149,0,0,0,1.149-1.149v-17.522A1.149,1.149,0,0,0,558.912,1368.758Zm-22.263,10.979h-1.267v2.557a.323.323,0,0,1-.323.323h-1.664a.323.323,0,0,1-.323-.323v-8.734a.323.323,0,0,1,.323-.323h3.254a3.25,3.25,0,1,1,0,6.5Zm10.9,2.88h-1.8a.191.191,0,0,1-.191-.191v-.267a2.633,2.633,0,0,1-1.843.641,3.58,3.58,0,0,1,0-7.128,2.633,2.633,0,0,1,1.843.642v-.268a.191.191,0,0,1,.191-.191h1.8a.191.191,0,0,1,.191.191v6.379A.191.191,0,0,1,547.55,1382.617Zm5.018,2.625h-1.85a.191.191,0,0,1-.178-.261l.974-2.454-2.628-6.407a.191.191,0,0,1,.177-.263h1.85a.287.287,0,0,1,.266.178l1.48,3.609,1.431-3.606a.287.287,0,0,1,.267-.181h1.85a.191.191,0,0,1,.177.261l-3.55,8.944A.288.288,0,0,1,552.569,1385.242Z" transform="translate(-528.464 -1368.758)" fill="#fff"/>
        <path id="Path_305" data-name="Path 305" d="M571.882,1395.328a1.49,1.49,0,1,0,1.45,1.49A1.392,1.392,0,0,0,571.882,1395.328Z" transform="translate(-556.234 -1386.339)" fill="#fff"/>
        <path id="Path_306" data-name="Path 306" d="M550.179,1388.44h-1.267v2.141h1.267a1.073,1.073,0,0,0,0-2.141Z" transform="translate(-541.994 -1381.781)" fill="#fff"/>
      </g>
    </g>
  </g>
</svg>
