<svg xmlns="http://www.w3.org/2000/svg" xmlns:xlink="http://www.w3.org/1999/xlink" width="308" height="595" viewBox="0 0 308 595">
  <defs>
    <clipPath id="clip-path">
      <rect id="Rectangle_68" data-name="Rectangle 68" width="308" height="595" transform="translate(1048 121)" fill="#fff"/>
    </clipPath>
    <clipPath id="clip-path-2">
      <rect width="374" height="620" fill="none"/>
    </clipPath>
    <clipPath id="clip-path-3">
      <rect id="Rectangle_375" data-name="Rectangle 375" width="16.118" height="11.123" fill="none"/>
    </clipPath>
  </defs>
  <g id="Mask_Group_7" data-name="Mask Group 7" transform="translate(-1048 -121)" clip-path="url(#clip-path)">
    <g id="Repeat_Grid_30" data-name="Repeat Grid 30" transform="translate(1048 133)" clip-path="url(#clip-path-2)">
      <g transform="translate(-1048 -132)">
        <text id="雙濃起司炸魚番薯披薩" transform="translate(1048 149)" fill="#333" font-size="16" font-family="NotoSansCJKtc-Medium, Noto Sans CJK TC" font-weight="500"><tspan x="0" y="0">雙濃起司炸魚番薯披薩</tspan></text>
        <text id="芝心餅皮_30_x2_芝心腸_x2" data-name="芝心餅皮 (+$30) x2 、芝心腸 x2" transform="translate(1048 171)" fill="#888" font-size="12" font-family="NotoSansCJKtc-Medium, Noto Sans CJK TC" font-weight="500"><tspan x="0" y="0">芝心餅皮 (+$30) x2 、芝心腸 x2</tspan></text>
        <text id="小計" transform="translate(1289 214)" fill="#1f89cd" font-size="12" font-family="NotoSansCJKtc-Medium, Noto Sans CJK TC" font-weight="500"><tspan x="0" y="0">小計</tspan></text>
        <text id="_578" data-name="$578" transform="translate(1320 215)" fill="#1f89cd" font-size="16" font-family="NotoSansCJKtc-Medium, Noto Sans CJK TC" font-weight="500"><tspan x="0" y="0">$578</tspan></text>
        <text id="_x2" data-name=" x2" transform="translate(1356 181)" fill="#333" font-size="16" font-family="NotoSansCJKtc-Black, Noto Sans CJK TC" font-weight="800"><tspan x="-22.976" y="0" xml:space="preserve"> x2</tspan></text>
        <rect id="Rectangle_41" data-name="Rectangle 41" width="308" height="1" transform="translate(1048 234)" fill="#e8e8e8"/>
        <rect id="Rectangle_235" data-name="Rectangle 235" width="44" height="31" rx="5" transform="translate(1048 189)" fill="#5ba9da"/>
        <rect id="Rectangle_373" data-name="Rectangle 373" width="44" height="31" rx="5" transform="translate(1104 189)" fill="#5ba9da"/>
        <g id="ic-print-label" transform="translate(2745 1463)">
          <rect id="Rectangle_304" data-name="Rectangle 304" width="22" height="22" transform="translate(-1686 -1269)" fill="none"/>
          <g id="Group_381" data-name="Group 381" transform="translate(-1683 -1264)">
            <g id="Group_380" data-name="Group 380" transform="translate(0 0)" clip-path="url(#clip-path-3)">
              <path id="Path_328" data-name="Path 328" d="M9.979,6.765a2.88,2.88,0,0,1,2.59-1.636,2.843,2.843,0,0,1,1.229.278l2.319,1V1.362A1.362,1.362,0,0,0,14.756,0H1.362A1.362,1.362,0,0,0,0,1.362v8.4a1.362,1.362,0,0,0,1.362,1.363H8.63Z" transform="translate(0 0)" fill="#fff"/>
              <path id="Path_329" data-name="Path 329" d="M109.47,74.56l1.087-3.806a1.581,1.581,0,0,1,2.106-.749l2.871,1.266Z" transform="translate(-99.416 -63.437)" fill="#fff"/>
            </g>
          </g>
        </g>
        <g id="ic-print" transform="translate(2811 1463)">
          <g id="Group_378" data-name="Group 378" transform="translate(-10)">
            <rect id="Rectangle_304-2" data-name="Rectangle 304" width="22" height="22" transform="translate(-1686 -1269)" fill="none"/>
            <g id="_x31_30" transform="translate(-1685 -1268.644)">
              <path id="Path_327" data-name="Path 327" d="M17.12,2.644H3.614A.616.616,0,0,0,3,3.258V4.289a.612.612,0,0,0,.614.614H4.2V17.2a.6.6,0,0,0,.325.54.591.591,0,0,0,.626-.031l1.185-.786a.593.593,0,0,1,.663,0l1.179.786a.624.624,0,0,0,.681,0l1.179-.786a.593.593,0,0,1,.663,0l1.173.786a.6.6,0,0,0,.681,0l1.179-.786a.593.593,0,0,1,.663,0l1.173.786a.612.612,0,0,0,.632.031.6.6,0,0,0,.325-.54V4.9h.589a.612.612,0,0,0,.614-.614V3.258A.616.616,0,0,0,17.12,2.644Zm-5.5,10.964H6.966a.614.614,0,0,1,0-1.228h4.653a.614.614,0,0,1,0,1.228Zm2.149-2.818h-6.8a.614.614,0,1,1,0-1.228h6.8a.614.614,0,0,1,0,1.228Zm0-2.818h-6.8a.614.614,0,0,1,0-1.228h6.8a.614.614,0,0,1,0,1.228Z" fill="#fff"/>
            </g>
          </g>
        </g>
        <text id="_289" data-name="$289" transform="translate(1356 149)" fill="#333" font-size="16" font-family="NotoSansCJKtc-Medium, Noto Sans CJK TC" font-weight="500"><tspan x="-36.48" y="0">$289</tspan></text>
      </g>
      <g transform="translate(-1048 -13)">
        <text id="雙濃起司炸魚番薯披薩-2" data-name="雙濃起司炸魚番薯披薩" transform="translate(1048 149)" fill="#333" font-size="16" font-family="NotoSansCJKtc-Medium, Noto Sans CJK TC" font-weight="500"><tspan x="0" y="0">雙濃起司炸魚番薯披薩</tspan></text>
        <text id="芝心餅皮_30_x2_芝心腸_x2-2" data-name="芝心餅皮 (+$30) x2 、芝心腸 x2" transform="translate(1048 171)" fill="#888" font-size="12" font-family="NotoSansCJKtc-Medium, Noto Sans CJK TC" font-weight="500"><tspan x="0" y="0">芝心餅皮 (+$30) x2 、芝心腸 x2</tspan></text>
        <text id="小計-2" data-name="小計" transform="translate(1289 214)" fill="#1f89cd" font-size="12" font-family="NotoSansCJKtc-Medium, Noto Sans CJK TC" font-weight="500"><tspan x="0" y="0">小計</tspan></text>
        <text id="_578-2" data-name="$578" transform="translate(1320 215)" fill="#1f89cd" font-size="16" font-family="NotoSansCJKtc-Medium, Noto Sans CJK TC" font-weight="500"><tspan x="0" y="0">$578</tspan></text>
        <text id="_x2-2" data-name=" x2" transform="translate(1356 181)" fill="#333" font-size="16" font-family="NotoSansCJKtc-Black, Noto Sans CJK TC" font-weight="800"><tspan x="-22.976" y="0" xml:space="preserve"> x2</tspan></text>
        <rect id="Rectangle_41-2" data-name="Rectangle 41" width="308" height="1" transform="translate(1048 234)" fill="#e8e8e8"/>
        <rect id="Rectangle_235-2" data-name="Rectangle 235" width="44" height="31" rx="5" transform="translate(1048 189)" fill="#5ba9da"/>
        <rect id="Rectangle_373-2" data-name="Rectangle 373" width="44" height="31" rx="5" transform="translate(1104 189)" fill="#5ba9da"/>
        <g id="ic-print-label-2" data-name="ic-print-label" transform="translate(2745 1463)">
          <rect id="Rectangle_304-3" data-name="Rectangle 304" width="22" height="22" transform="translate(-1686 -1269)" fill="none"/>
          <g id="Group_381-2" data-name="Group 381" transform="translate(-1683 -1264)">
            <g id="Group_380-2" data-name="Group 380" transform="translate(0 0)" clip-path="url(#clip-path-3)">
              <path id="Path_328-2" data-name="Path 328" d="M9.979,6.765a2.88,2.88,0,0,1,2.59-1.636,2.843,2.843,0,0,1,1.229.278l2.319,1V1.362A1.362,1.362,0,0,0,14.756,0H1.362A1.362,1.362,0,0,0,0,1.362v8.4a1.362,1.362,0,0,0,1.362,1.363H8.63Z" transform="translate(0 0)" fill="#fff"/>
              <path id="Path_329-2" data-name="Path 329" d="M109.47,74.56l1.087-3.806a1.581,1.581,0,0,1,2.106-.749l2.871,1.266Z" transform="translate(-99.416 -63.437)" fill="#fff"/>
            </g>
          </g>
        </g>
        <g id="ic-print-2" data-name="ic-print" transform="translate(2811 1463)">
          <g id="Group_378-2" data-name="Group 378" transform="translate(-10)">
            <rect id="Rectangle_304-4" data-name="Rectangle 304" width="22" height="22" transform="translate(-1686 -1269)" fill="none"/>
            <g id="_x31_30-2" data-name="_x31_30" transform="translate(-1685 -1268.644)">
              <path id="Path_327-2" data-name="Path 327" d="M17.12,2.644H3.614A.616.616,0,0,0,3,3.258V4.289a.612.612,0,0,0,.614.614H4.2V17.2a.6.6,0,0,0,.325.54.591.591,0,0,0,.626-.031l1.185-.786a.593.593,0,0,1,.663,0l1.179.786a.624.624,0,0,0,.681,0l1.179-.786a.593.593,0,0,1,.663,0l1.173.786a.6.6,0,0,0,.681,0l1.179-.786a.593.593,0,0,1,.663,0l1.173.786a.612.612,0,0,0,.632.031.6.6,0,0,0,.325-.54V4.9h.589a.612.612,0,0,0,.614-.614V3.258A.616.616,0,0,0,17.12,2.644Zm-5.5,10.964H6.966a.614.614,0,0,1,0-1.228h4.653a.614.614,0,0,1,0,1.228Zm2.149-2.818h-6.8a.614.614,0,1,1,0-1.228h6.8a.614.614,0,0,1,0,1.228Zm0-2.818h-6.8a.614.614,0,0,1,0-1.228h6.8a.614.614,0,0,1,0,1.228Z" fill="#fff"/>
            </g>
          </g>
        </g>
        <text id="_289-2" data-name="$289" transform="translate(1356 149)" fill="#333" font-size="16" font-family="NotoSansCJKtc-Medium, Noto Sans CJK TC" font-weight="500"><tspan x="-36.48" y="0">$289</tspan></text>
      </g>
      <g transform="translate(-1048 106)">
        <text id="雙濃起司炸魚番薯披薩-3" data-name="雙濃起司炸魚番薯披薩" transform="translate(1048 149)" fill="#333" font-size="16" font-family="NotoSansCJKtc-Medium, Noto Sans CJK TC" font-weight="500"><tspan x="0" y="0">雙濃起司炸魚番薯披薩</tspan></text>
        <text id="芝心餅皮_30_x2_芝心腸_x2-3" data-name="芝心餅皮 (+$30) x2 、芝心腸 x2" transform="translate(1048 171)" fill="#888" font-size="12" font-family="NotoSansCJKtc-Medium, Noto Sans CJK TC" font-weight="500"><tspan x="0" y="0">芝心餅皮 (+$30) x2 、芝心腸 x2</tspan></text>
        <text id="小計-3" data-name="小計" transform="translate(1289 214)" fill="#1f89cd" font-size="12" font-family="NotoSansCJKtc-Medium, Noto Sans CJK TC" font-weight="500"><tspan x="0" y="0">小計</tspan></text>
        <text id="_578-3" data-name="$578" transform="translate(1320 215)" fill="#1f89cd" font-size="16" font-family="NotoSansCJKtc-Medium, Noto Sans CJK TC" font-weight="500"><tspan x="0" y="0">$578</tspan></text>
        <text id="_x2-3" data-name=" x2" transform="translate(1356 181)" fill="#333" font-size="16" font-family="NotoSansCJKtc-Black, Noto Sans CJK TC" font-weight="800"><tspan x="-22.976" y="0" xml:space="preserve"> x2</tspan></text>
        <rect id="Rectangle_41-3" data-name="Rectangle 41" width="308" height="1" transform="translate(1048 234)" fill="#e8e8e8"/>
        <rect id="Rectangle_235-3" data-name="Rectangle 235" width="44" height="31" rx="5" transform="translate(1048 189)" fill="#5ba9da"/>
        <rect id="Rectangle_373-3" data-name="Rectangle 373" width="44" height="31" rx="5" transform="translate(1104 189)" fill="#5ba9da"/>
        <g id="ic-print-label-3" data-name="ic-print-label" transform="translate(2745 1463)">
          <rect id="Rectangle_304-5" data-name="Rectangle 304" width="22" height="22" transform="translate(-1686 -1269)" fill="none"/>
          <g id="Group_381-3" data-name="Group 381" transform="translate(-1683 -1264)">
            <g id="Group_380-3" data-name="Group 380" transform="translate(0 0)" clip-path="url(#clip-path-3)">
              <path id="Path_328-3" data-name="Path 328" d="M9.979,6.765a2.88,2.88,0,0,1,2.59-1.636,2.843,2.843,0,0,1,1.229.278l2.319,1V1.362A1.362,1.362,0,0,0,14.756,0H1.362A1.362,1.362,0,0,0,0,1.362v8.4a1.362,1.362,0,0,0,1.362,1.363H8.63Z" transform="translate(0 0)" fill="#fff"/>
              <path id="Path_329-3" data-name="Path 329" d="M109.47,74.56l1.087-3.806a1.581,1.581,0,0,1,2.106-.749l2.871,1.266Z" transform="translate(-99.416 -63.437)" fill="#fff"/>
            </g>
          </g>
        </g>
        <g id="ic-print-3" data-name="ic-print" transform="translate(2811 1463)">
          <g id="Group_378-3" data-name="Group 378" transform="translate(-10)">
            <rect id="Rectangle_304-6" data-name="Rectangle 304" width="22" height="22" transform="translate(-1686 -1269)" fill="none"/>
            <g id="_x31_30-3" data-name="_x31_30" transform="translate(-1685 -1268.644)">
              <path id="Path_327-3" data-name="Path 327" d="M17.12,2.644H3.614A.616.616,0,0,0,3,3.258V4.289a.612.612,0,0,0,.614.614H4.2V17.2a.6.6,0,0,0,.325.54.591.591,0,0,0,.626-.031l1.185-.786a.593.593,0,0,1,.663,0l1.179.786a.624.624,0,0,0,.681,0l1.179-.786a.593.593,0,0,1,.663,0l1.173.786a.6.6,0,0,0,.681,0l1.179-.786a.593.593,0,0,1,.663,0l1.173.786a.612.612,0,0,0,.632.031.6.6,0,0,0,.325-.54V4.9h.589a.612.612,0,0,0,.614-.614V3.258A.616.616,0,0,0,17.12,2.644Zm-5.5,10.964H6.966a.614.614,0,0,1,0-1.228h4.653a.614.614,0,0,1,0,1.228Zm2.149-2.818h-6.8a.614.614,0,1,1,0-1.228h6.8a.614.614,0,0,1,0,1.228Zm0-2.818h-6.8a.614.614,0,0,1,0-1.228h6.8a.614.614,0,0,1,0,1.228Z" fill="#fff"/>
            </g>
          </g>
        </g>
        <text id="_289-3" data-name="$289" transform="translate(1356 149)" fill="#333" font-size="16" font-family="NotoSansCJKtc-Medium, Noto Sans CJK TC" font-weight="500"><tspan x="-36.48" y="0">$289</tspan></text>
      </g>
      <g transform="translate(-1048 225)">
        <text id="雙濃起司炸魚番薯披薩-4" data-name="雙濃起司炸魚番薯披薩" transform="translate(1048 149)" fill="#333" font-size="16" font-family="NotoSansCJKtc-Medium, Noto Sans CJK TC" font-weight="500"><tspan x="0" y="0">雙濃起司炸魚番薯披薩</tspan></text>
        <text id="芝心餅皮_30_x2_芝心腸_x2-4" data-name="芝心餅皮 (+$30) x2 、芝心腸 x2" transform="translate(1048 171)" fill="#888" font-size="12" font-family="NotoSansCJKtc-Medium, Noto Sans CJK TC" font-weight="500"><tspan x="0" y="0">芝心餅皮 (+$30) x2 、芝心腸 x2</tspan></text>
        <text id="小計-4" data-name="小計" transform="translate(1289 214)" fill="#1f89cd" font-size="12" font-family="NotoSansCJKtc-Medium, Noto Sans CJK TC" font-weight="500"><tspan x="0" y="0">小計</tspan></text>
        <text id="_578-4" data-name="$578" transform="translate(1320 215)" fill="#1f89cd" font-size="16" font-family="NotoSansCJKtc-Medium, Noto Sans CJK TC" font-weight="500"><tspan x="0" y="0">$578</tspan></text>
        <text id="_x2-4" data-name=" x2" transform="translate(1356 181)" fill="#333" font-size="16" font-family="NotoSansCJKtc-Black, Noto Sans CJK TC" font-weight="800"><tspan x="-22.976" y="0" xml:space="preserve"> x2</tspan></text>
        <rect id="Rectangle_41-4" data-name="Rectangle 41" width="308" height="1" transform="translate(1048 234)" fill="#e8e8e8"/>
        <rect id="Rectangle_235-4" data-name="Rectangle 235" width="44" height="31" rx="5" transform="translate(1048 189)" fill="#5ba9da"/>
        <rect id="Rectangle_373-4" data-name="Rectangle 373" width="44" height="31" rx="5" transform="translate(1104 189)" fill="#5ba9da"/>
        <g id="ic-print-label-4" data-name="ic-print-label" transform="translate(2745 1463)">
          <rect id="Rectangle_304-7" data-name="Rectangle 304" width="22" height="22" transform="translate(-1686 -1269)" fill="none"/>
          <g id="Group_381-4" data-name="Group 381" transform="translate(-1683 -1264)">
            <g id="Group_380-4" data-name="Group 380" transform="translate(0 0)" clip-path="url(#clip-path-3)">
              <path id="Path_328-4" data-name="Path 328" d="M9.979,6.765a2.88,2.88,0,0,1,2.59-1.636,2.843,2.843,0,0,1,1.229.278l2.319,1V1.362A1.362,1.362,0,0,0,14.756,0H1.362A1.362,1.362,0,0,0,0,1.362v8.4a1.362,1.362,0,0,0,1.362,1.363H8.63Z" transform="translate(0 0)" fill="#fff"/>
              <path id="Path_329-4" data-name="Path 329" d="M109.47,74.56l1.087-3.806a1.581,1.581,0,0,1,2.106-.749l2.871,1.266Z" transform="translate(-99.416 -63.437)" fill="#fff"/>
            </g>
          </g>
        </g>
        <g id="ic-print-4" data-name="ic-print" transform="translate(2811 1463)">
          <g id="Group_378-4" data-name="Group 378" transform="translate(-10)">
            <rect id="Rectangle_304-8" data-name="Rectangle 304" width="22" height="22" transform="translate(-1686 -1269)" fill="none"/>
            <g id="_x31_30-4" data-name="_x31_30" transform="translate(-1685 -1268.644)">
              <path id="Path_327-4" data-name="Path 327" d="M17.12,2.644H3.614A.616.616,0,0,0,3,3.258V4.289a.612.612,0,0,0,.614.614H4.2V17.2a.6.6,0,0,0,.325.54.591.591,0,0,0,.626-.031l1.185-.786a.593.593,0,0,1,.663,0l1.179.786a.624.624,0,0,0,.681,0l1.179-.786a.593.593,0,0,1,.663,0l1.173.786a.6.6,0,0,0,.681,0l1.179-.786a.593.593,0,0,1,.663,0l1.173.786a.612.612,0,0,0,.632.031.6.6,0,0,0,.325-.54V4.9h.589a.612.612,0,0,0,.614-.614V3.258A.616.616,0,0,0,17.12,2.644Zm-5.5,10.964H6.966a.614.614,0,0,1,0-1.228h4.653a.614.614,0,0,1,0,1.228Zm2.149-2.818h-6.8a.614.614,0,1,1,0-1.228h6.8a.614.614,0,0,1,0,1.228Zm0-2.818h-6.8a.614.614,0,0,1,0-1.228h6.8a.614.614,0,0,1,0,1.228Z" fill="#fff"/>
            </g>
          </g>
        </g>
        <text id="_289-4" data-name="$289" transform="translate(1356 149)" fill="#333" font-size="16" font-family="NotoSansCJKtc-Medium, Noto Sans CJK TC" font-weight="500"><tspan x="-36.48" y="0">$289</tspan></text>
      </g>
      <g transform="translate(-1048 344)">
        <text id="雙濃起司炸魚番薯披薩-5" data-name="雙濃起司炸魚番薯披薩" transform="translate(1048 149)" fill="#333" font-size="16" font-family="NotoSansCJKtc-Medium, Noto Sans CJK TC" font-weight="500"><tspan x="0" y="0">雙濃起司炸魚番薯披薩</tspan></text>
        <text id="芝心餅皮_30_x2_芝心腸_x2-5" data-name="芝心餅皮 (+$30) x2 、芝心腸 x2" transform="translate(1048 171)" fill="#888" font-size="12" font-family="NotoSansCJKtc-Medium, Noto Sans CJK TC" font-weight="500"><tspan x="0" y="0">芝心餅皮 (+$30) x2 、芝心腸 x2</tspan></text>
        <text id="小計-5" data-name="小計" transform="translate(1289 214)" fill="#1f89cd" font-size="12" font-family="NotoSansCJKtc-Medium, Noto Sans CJK TC" font-weight="500"><tspan x="0" y="0">小計</tspan></text>
        <text id="_578-5" data-name="$578" transform="translate(1320 215)" fill="#1f89cd" font-size="16" font-family="NotoSansCJKtc-Medium, Noto Sans CJK TC" font-weight="500"><tspan x="0" y="0">$578</tspan></text>
        <text id="_x2-5" data-name=" x2" transform="translate(1356 181)" fill="#333" font-size="16" font-family="NotoSansCJKtc-Black, Noto Sans CJK TC" font-weight="800"><tspan x="-22.976" y="0" xml:space="preserve"> x2</tspan></text>
        <rect id="Rectangle_41-5" data-name="Rectangle 41" width="308" height="1" transform="translate(1048 234)" fill="#e8e8e8"/>
        <rect id="Rectangle_235-5" data-name="Rectangle 235" width="44" height="31" rx="5" transform="translate(1048 189)" fill="#5ba9da"/>
        <rect id="Rectangle_373-5" data-name="Rectangle 373" width="44" height="31" rx="5" transform="translate(1104 189)" fill="#5ba9da"/>
        <g id="ic-print-label-5" data-name="ic-print-label" transform="translate(2745 1463)">
          <rect id="Rectangle_304-9" data-name="Rectangle 304" width="22" height="22" transform="translate(-1686 -1269)" fill="none"/>
          <g id="Group_381-5" data-name="Group 381" transform="translate(-1683 -1264)">
            <g id="Group_380-5" data-name="Group 380" transform="translate(0 0)" clip-path="url(#clip-path-3)">
              <path id="Path_328-5" data-name="Path 328" d="M9.979,6.765a2.88,2.88,0,0,1,2.59-1.636,2.843,2.843,0,0,1,1.229.278l2.319,1V1.362A1.362,1.362,0,0,0,14.756,0H1.362A1.362,1.362,0,0,0,0,1.362v8.4a1.362,1.362,0,0,0,1.362,1.363H8.63Z" transform="translate(0 0)" fill="#fff"/>
              <path id="Path_329-5" data-name="Path 329" d="M109.47,74.56l1.087-3.806a1.581,1.581,0,0,1,2.106-.749l2.871,1.266Z" transform="translate(-99.416 -63.437)" fill="#fff"/>
            </g>
          </g>
        </g>
        <g id="ic-print-5" data-name="ic-print" transform="translate(2811 1463)">
          <g id="Group_378-5" data-name="Group 378" transform="translate(-10)">
            <rect id="Rectangle_304-10" data-name="Rectangle 304" width="22" height="22" transform="translate(-1686 -1269)" fill="none"/>
            <g id="_x31_30-5" data-name="_x31_30" transform="translate(-1685 -1268.644)">
              <path id="Path_327-5" data-name="Path 327" d="M17.12,2.644H3.614A.616.616,0,0,0,3,3.258V4.289a.612.612,0,0,0,.614.614H4.2V17.2a.6.6,0,0,0,.325.54.591.591,0,0,0,.626-.031l1.185-.786a.593.593,0,0,1,.663,0l1.179.786a.624.624,0,0,0,.681,0l1.179-.786a.593.593,0,0,1,.663,0l1.173.786a.6.6,0,0,0,.681,0l1.179-.786a.593.593,0,0,1,.663,0l1.173.786a.612.612,0,0,0,.632.031.6.6,0,0,0,.325-.54V4.9h.589a.612.612,0,0,0,.614-.614V3.258A.616.616,0,0,0,17.12,2.644Zm-5.5,10.964H6.966a.614.614,0,0,1,0-1.228h4.653a.614.614,0,0,1,0,1.228Zm2.149-2.818h-6.8a.614.614,0,1,1,0-1.228h6.8a.614.614,0,0,1,0,1.228Zm0-2.818h-6.8a.614.614,0,0,1,0-1.228h6.8a.614.614,0,0,1,0,1.228Z" fill="#fff"/>
            </g>
          </g>
        </g>
        <text id="_289-5" data-name="$289" transform="translate(1356 149)" fill="#333" font-size="16" font-family="NotoSansCJKtc-Medium, Noto Sans CJK TC" font-weight="500"><tspan x="-36.48" y="0">$289</tspan></text>
      </g>
      <g transform="translate(-1048 463)">
        <text id="雙濃起司炸魚番薯披薩-6" data-name="雙濃起司炸魚番薯披薩" transform="translate(1048 149)" fill="#333" font-size="16" font-family="NotoSansCJKtc-Medium, Noto Sans CJK TC" font-weight="500"><tspan x="0" y="0">雙濃起司炸魚番薯披薩</tspan></text>
        <text id="芝心餅皮_30_x2_芝心腸_x2-6" data-name="芝心餅皮 (+$30) x2 、芝心腸 x2" transform="translate(1048 171)" fill="#888" font-size="12" font-family="NotoSansCJKtc-Medium, Noto Sans CJK TC" font-weight="500"><tspan x="0" y="0">芝心餅皮 (+$30) x2 、芝心腸 x2</tspan></text>
        <text id="小計-6" data-name="小計" transform="translate(1289 214)" fill="#1f89cd" font-size="12" font-family="NotoSansCJKtc-Medium, Noto Sans CJK TC" font-weight="500"><tspan x="0" y="0">小計</tspan></text>
        <text id="_578-6" data-name="$578" transform="translate(1320 215)" fill="#1f89cd" font-size="16" font-family="NotoSansCJKtc-Medium, Noto Sans CJK TC" font-weight="500"><tspan x="0" y="0">$578</tspan></text>
        <text id="_x_2" data-name=" x 2" transform="translate(1356 181)" fill="#333" font-size="16" font-family="NotoSansCJKtc-Black, Noto Sans CJK TC" font-weight="800"><tspan x="-26.64" y="0" xml:space="preserve"> x 2</tspan></text>
        <rect id="Rectangle_41-6" data-name="Rectangle 41" width="308" height="1" transform="translate(1048 234)" fill="#e8e8e8"/>
        <rect id="Rectangle_235-6" data-name="Rectangle 235" width="44" height="31" rx="5" transform="translate(1048 189)" fill="#5ba9da"/>
        <rect id="Rectangle_373-6" data-name="Rectangle 373" width="44" height="31" rx="5" transform="translate(1104 189)" fill="#5ba9da"/>
        <g id="ic-print-label-6" data-name="ic-print-label" transform="translate(2745 1463)">
          <rect id="Rectangle_304-11" data-name="Rectangle 304" width="22" height="22" transform="translate(-1686 -1269)" fill="none"/>
          <g id="Group_381-6" data-name="Group 381" transform="translate(-1683 -1264)">
            <g id="Group_380-6" data-name="Group 380" transform="translate(0 0)" clip-path="url(#clip-path-3)">
              <path id="Path_328-6" data-name="Path 328" d="M9.979,6.765a2.88,2.88,0,0,1,2.59-1.636,2.843,2.843,0,0,1,1.229.278l2.319,1V1.362A1.362,1.362,0,0,0,14.756,0H1.362A1.362,1.362,0,0,0,0,1.362v8.4a1.362,1.362,0,0,0,1.362,1.363H8.63Z" transform="translate(0 0)" fill="#fff"/>
              <path id="Path_329-6" data-name="Path 329" d="M109.47,74.56l1.087-3.806a1.581,1.581,0,0,1,2.106-.749l2.871,1.266Z" transform="translate(-99.416 -63.437)" fill="#fff"/>
            </g>
          </g>
        </g>
        <g id="ic-print-6" data-name="ic-print" transform="translate(2811 1463)">
          <g id="Group_378-6" data-name="Group 378" transform="translate(-10)">
            <rect id="Rectangle_304-12" data-name="Rectangle 304" width="22" height="22" transform="translate(-1686 -1269)" fill="none"/>
            <g id="_x31_30-6" data-name="_x31_30" transform="translate(-1685 -1268.644)">
              <path id="Path_327-6" data-name="Path 327" d="M17.12,2.644H3.614A.616.616,0,0,0,3,3.258V4.289a.612.612,0,0,0,.614.614H4.2V17.2a.6.6,0,0,0,.325.54.591.591,0,0,0,.626-.031l1.185-.786a.593.593,0,0,1,.663,0l1.179.786a.624.624,0,0,0,.681,0l1.179-.786a.593.593,0,0,1,.663,0l1.173.786a.6.6,0,0,0,.681,0l1.179-.786a.593.593,0,0,1,.663,0l1.173.786a.612.612,0,0,0,.632.031.6.6,0,0,0,.325-.54V4.9h.589a.612.612,0,0,0,.614-.614V3.258A.616.616,0,0,0,17.12,2.644Zm-5.5,10.964H6.966a.614.614,0,0,1,0-1.228h4.653a.614.614,0,0,1,0,1.228Zm2.149-2.818h-6.8a.614.614,0,1,1,0-1.228h6.8a.614.614,0,0,1,0,1.228Zm0-2.818h-6.8a.614.614,0,0,1,0-1.228h6.8a.614.614,0,0,1,0,1.228Z" fill="#fff"/>
            </g>
          </g>
        </g>
        <text id="_289-6" data-name="$289" transform="translate(1356 149)" fill="#333" font-size="16" font-family="NotoSansCJKtc-Medium, Noto Sans CJK TC" font-weight="500"><tspan x="-36.48" y="0">$289</tspan></text>
      </g>
    </g>
  </g>
</svg>
