<svg xmlns="http://www.w3.org/2000/svg" xmlns:xlink="http://www.w3.org/1999/xlink" width="154.779" height="142.639" viewBox="0 0 154.779 142.639">
  <defs>
    <clipPath id="clip-path">
      <rect id="Rectangle_320" data-name="Rectangle 320" width="135.431" height="115.23" fill="#2581c4"/>
    </clipPath>
  </defs>
  <g id="pointer" transform="translate(-31.115 -156.568)">
    <path id="Subtraction_1" data-name="Subtraction 1" d="M56.983,215.842h0a29.761,29.761,0,1,1,25.479-9.007c-.079-7.25-2.772-13.9-7.031-17.354a14.884,14.884,0,1,0-19.01,11.051,29.254,29.254,0,0,0-.748,6.635,28.454,28.454,0,0,0,1.309,8.674Z" transform="translate(0)" fill="#ffb100"/>
    <g id="Group_320" data-name="Group 320" transform="translate(50.463 183.977)">
      <g id="Group_319" data-name="Group 319" clip-path="url(#clip-path)">
        <g id="Group_24" data-name="Group 24" transform="translate(-0.009 0.003)">
          <path id="Path_30" data-name="Path 30" d="M159.857,232.237a17.159,17.159,0,0,0-26.911-9.069,17.142,17.142,0,0,0-25.118-4.887,17.154,17.154,0,0,0-23.511-5.975c-.375.223-.741.461-1.1.711l-8.148-29.269a17.183,17.183,0,0,0-21.135-11.935l-.032.011a17.1,17.1,0,0,0-11.833,21.09l0,.017L66.8,281.892a5.727,5.727,0,0,0,7.048,3.976,5.656,5.656,0,0,0,3.919-6.974l-.015-.051c-.336-1.21-24.393-87.748-24.73-88.959a5.709,5.709,0,0,1,3.944-7.034l.034-.011a5.792,5.792,0,0,1,7.121,3.957l18.605,66.847a5.655,5.655,0,0,0,6.92,4.013l.051-.013a5.73,5.73,0,0,0,3.981-7.051l-6.056-21.754c-.019-.081-.034-.161-.056-.244a5.723,5.723,0,0,1,10.986-3.216l.039.148,6.136,22.047A5.723,5.723,0,1,0,115.8,244.65c-.013-.049-.026-.1-.041-.146l-3.068-11.02a5.723,5.723,0,0,1,11.025-3.068l3.07,11.025a5.722,5.722,0,1,0,11.108-2.757c-.026-.105-.054-.208-.086-.311a5.722,5.722,0,1,1,10.984-3.214c.013.049.028.1.039.146.651,2.335,16.139,44.59,16.788,46.914l.276-.075.054.2a5.561,5.561,0,0,0,10.755-2.832c-.013-.051-.028-.1-.041-.148l-.054-.2.034-.011c-.649-2.329-16.139-44.585-16.788-46.916" transform="translate(-41.427 -171.185)" fill="#2581c4"/>
        </g>
      </g>
    </g>
  </g>
</svg>
