<svg id="poker-seat-bg-left" xmlns="http://www.w3.org/2000/svg" width="38.063" height="115.009" viewBox="0 0 38.063 115.009">
  <g id="armchair" transform="translate(0.058)">
    <g id="armchair-2" data-name="armchair" transform="translate(38.004) rotate(90)">
      <path id="Path_350" data-name="Path 350" d="M26.383,28.058V.673A129.692,129.692,0,0,0,0,.673V28.058a45.179,45.179,0,0,0,13.192,2.1h0a45.183,45.183,0,0,0,13.192-2.1" transform="translate(6.313 6.439)" fill="#b7b7b7"/>
      <path id="Path_351" data-name="Path 351" d="M33.6.823A121.147,121.147,0,0,0,5.4.823,6.088,6.088,0,0,0,0,6.9V34.486A3.5,3.5,0,0,0,3.482,38a3.5,3.5,0,0,0,3.482-3.519V7.713a116.763,116.763,0,0,1,25.071,0V34.486a3.482,3.482,0,1,0,6.964,0V6.9A6.088,6.088,0,0,0,33.6.823" fill="#e8e8e8"/>
    </g>
  </g>
  <g id="armchair-3" data-name="armchair" transform="translate(0 38.063)">
    <g id="armchair-4" data-name="armchair" transform="translate(38.004) rotate(90)">
      <path id="Path_350-2" data-name="Path 350" d="M26.617,28.058V.673A132,132,0,0,0,0,.673V28.058a45.952,45.952,0,0,0,13.309,2.1h0a45.955,45.955,0,0,0,13.309-2.1" transform="translate(6.313 6.439)" fill="#b48348"/>
      <path id="Path_351-2" data-name="Path 351" d="M33.5.823a120.429,120.429,0,0,0-28.109,0A6.082,6.082,0,0,0,0,6.9V34.486A3.5,3.5,0,0,0,3.472,38a3.5,3.5,0,0,0,3.472-3.519V7.713a116.072,116.072,0,0,1,25,0V34.486a3.472,3.472,0,1,0,6.944,0V6.9A6.081,6.081,0,0,0,33.5.823" fill="#d8a251"/>
    </g>
  </g>
  <g id="armchair-5" data-name="armchair" transform="translate(0.058 76.009)">
    <g id="armchair-6" data-name="armchair" transform="translate(38.004) rotate(90)">
      <path id="Path_350-3" data-name="Path 350" d="M26.5,28.058V.673A130.842,130.842,0,0,0,0,.673V28.058a45.564,45.564,0,0,0,13.25,2.1h0a45.568,45.568,0,0,0,13.25-2.1" transform="translate(6.313 6.439)" fill="#1f89cd"/>
      <path id="Path_351-3" data-name="Path 351" d="M33.6.823A121.147,121.147,0,0,0,5.4.823,6.088,6.088,0,0,0,0,6.9V34.486A3.5,3.5,0,0,0,3.482,38a3.5,3.5,0,0,0,3.482-3.519V7.713a116.763,116.763,0,0,1,25.071,0V34.486a3.482,3.482,0,1,0,6.964,0V6.9A6.088,6.088,0,0,0,33.6.823" fill="#5ba9da"/>
    </g>
  </g>
</svg>
