<svg xmlns="http://www.w3.org/2000/svg" width="180.16" height="110.641" viewBox="0 0 180.16 110.641">
  <g id="poker-table-bg" transform="translate(180.16 110.641) rotate(180)">
    <g id="Group_388" data-name="Group 388" transform="translate(0)">
      <path id="Path_352" data-name="Path 352" d="M49.2,104.357a76.926,76.926,0,0,1,75.47,0h.492c26.9,0,48.711-22.976,48.711-51.318V51.318C173.876,22.976,152.067,0,125.165,0H48.711C21.809,0,0,22.976,0,51.318v1.721c0,28.342,21.809,51.318,48.711,51.318Z" transform="translate(3.142 3.142)" fill="#428d78"/>
      <path id="Path_353" data-name="Path 353" d="M126.891,107.5H126.1l-.622-.345a75.971,75.971,0,0,0-73.933,0l-.622.345h-.793C22.487,107.5,0,83.775,0,54.615v-1.73C0,23.724,22.487,0,50.128,0h76.763c27.64,0,50.127,23.724,50.127,52.884v1.73c0,29.16-22.487,52.884-50.127,52.884M50.128,6.006c-24.5,0-44.435,21.03-44.435,46.879v1.73c0,25.639,19.609,46.537,43.837,46.874a81.393,81.393,0,0,1,77.959,0c24.228-.338,43.837-21.236,43.837-46.874v-1.73c0-25.849-19.933-46.879-44.435-46.879Z" transform="translate(1.571 1.571)" fill="#3b8a74"/>
      <path id="Path_354" data-name="Path 354" d="M128.612,110.641H127.5l-.54-.3a75.026,75.026,0,0,0-73.77,0l-.539.3H51.548C23.125,110.641,0,86.214,0,56.19V54.451C0,24.426,23.125,0,51.548,0h77.063c28.424,0,51.548,24.426,51.548,54.451V56.19c0,30.024-23.124,54.451-51.548,54.451M51.548,5.174C25.826,5.174,4.9,27.279,4.9,54.451V56.19c0,27.133,20.867,49.214,46.54,49.276a79.686,79.686,0,0,1,77.283,0c25.673-.062,46.54-22.143,46.54-49.276V54.451c0-27.171-20.927-49.277-46.65-49.277Z" transform="translate(0)" fill="#b99270"/>
    </g>
  </g>
</svg>
